G75*
G70*
%OFA0B0*%
%FSLAX24Y24*%
%IPPOS*%
%LPD*%
%AMOC8*
5,1,8,0,0,1.08239X$1,22.5*
%
%ADD10C,0.0010*%
D10*
X000131Y001111D02*
X000131Y018111D01*
X000133Y018171D01*
X000138Y018232D01*
X000147Y018291D01*
X000160Y018350D01*
X000176Y018409D01*
X000196Y018466D01*
X000219Y018521D01*
X000246Y018576D01*
X000275Y018628D01*
X000308Y018679D01*
X000344Y018728D01*
X000382Y018774D01*
X000424Y018818D01*
X000468Y018860D01*
X000514Y018898D01*
X000563Y018934D01*
X000614Y018967D01*
X000666Y018996D01*
X000721Y019023D01*
X000776Y019046D01*
X000833Y019066D01*
X000892Y019082D01*
X000951Y019095D01*
X001010Y019104D01*
X001071Y019109D01*
X001131Y019111D01*
X018131Y019111D01*
X018191Y019109D01*
X018252Y019104D01*
X018311Y019095D01*
X018370Y019082D01*
X018429Y019066D01*
X018486Y019046D01*
X018541Y019023D01*
X018596Y018996D01*
X018648Y018967D01*
X018699Y018934D01*
X018748Y018898D01*
X018794Y018860D01*
X018838Y018818D01*
X018880Y018774D01*
X018918Y018728D01*
X018954Y018679D01*
X018987Y018628D01*
X019016Y018576D01*
X019043Y018521D01*
X019066Y018466D01*
X019086Y018409D01*
X019102Y018350D01*
X019115Y018291D01*
X019124Y018232D01*
X019129Y018171D01*
X019131Y018111D01*
X019131Y001111D01*
X019129Y001051D01*
X019124Y000990D01*
X019115Y000931D01*
X019102Y000872D01*
X019086Y000813D01*
X019066Y000756D01*
X019043Y000701D01*
X019016Y000646D01*
X018987Y000594D01*
X018954Y000543D01*
X018918Y000494D01*
X018880Y000448D01*
X018838Y000404D01*
X018794Y000362D01*
X018748Y000324D01*
X018699Y000288D01*
X018648Y000255D01*
X018596Y000226D01*
X018541Y000199D01*
X018486Y000176D01*
X018429Y000156D01*
X018370Y000140D01*
X018311Y000127D01*
X018252Y000118D01*
X018191Y000113D01*
X018131Y000111D01*
X001131Y000111D01*
X001071Y000113D01*
X001010Y000118D01*
X000951Y000127D01*
X000892Y000140D01*
X000833Y000156D01*
X000776Y000176D01*
X000721Y000199D01*
X000666Y000226D01*
X000614Y000255D01*
X000563Y000288D01*
X000514Y000324D01*
X000468Y000362D01*
X000424Y000404D01*
X000382Y000448D01*
X000344Y000494D01*
X000308Y000543D01*
X000275Y000594D01*
X000246Y000646D01*
X000219Y000701D01*
X000196Y000756D01*
X000176Y000813D01*
X000160Y000872D01*
X000147Y000931D01*
X000138Y000990D01*
X000133Y001051D01*
X000131Y001111D01*
M02*
