%
M48
M72
T01C0.0120
T02C0.0276
T03C0.0320
T04C0.0354
T05C0.0400
T06C0.0730
%
T01
X8631Y2861
X8611Y3951
X9571Y4911
X10691Y4431
X10691Y3471
T02
X18131Y8430
X18131Y9020
X18131Y9611
X18131Y10201
X18131Y10792
T03
X15381Y11861
X15381Y12861
X13131Y11361
X13131Y10361
X15381Y7361
X15381Y6361
X14131Y5361
X12631Y5361
X11131Y5384
X10131Y5384
X9131Y5384
X8131Y5384
X6631Y5361
X5006Y5361
X3881Y6361
X3881Y7361
X6131Y10361
X6131Y11361
X3881Y11861
X3881Y12861
X8131Y2384
X9131Y2384
X10131Y2384
X11131Y2384
X12631Y2361
X14131Y2361
X6631Y2361
X5006Y2361
T04
X8131Y8476
X8631Y8476
X10631Y8476
X11131Y8476
T05
X1491Y1081
X3271Y1081
X3271Y3641
X1491Y3641
X1491Y15581
X3271Y15581
X3271Y18141
X1491Y18141
X15991Y18141
X17771Y18141
X17771Y15581
X15991Y15581
X15991Y3641
X17771Y3641
X17771Y1081
X15991Y1081
T06
X13765Y15736
X5497Y15736
M30
