G75*
G70*
%OFA0B0*%
%FSLAX24Y24*%
%IPPOS*%
%LPD*%
%AMOC8*
5,1,8,0,0,1.08239X$1,22.5*
%
%ADD10R,0.0050X0.0010*%
%ADD11R,0.0100X0.0010*%
%ADD12R,0.0070X0.0010*%
%ADD13R,0.0160X0.0010*%
%ADD14R,0.0080X0.0010*%
%ADD15R,0.0090X0.0010*%
%ADD16R,0.0060X0.0010*%
%ADD17R,0.0290X0.0010*%
%ADD18R,0.0110X0.0010*%
%ADD19R,0.0200X0.0010*%
%ADD20R,0.0140X0.0010*%
%ADD21R,0.0150X0.0010*%
%ADD22R,0.0170X0.0010*%
%ADD23R,0.0230X0.0010*%
%ADD24R,0.0180X0.0010*%
%ADD25R,0.0240X0.0010*%
%ADD26R,0.0210X0.0010*%
%ADD27R,0.0250X0.0010*%
%ADD28R,0.0270X0.0010*%
%ADD29R,0.0220X0.0010*%
%ADD30R,0.0260X0.0010*%
%ADD31R,0.0280X0.0010*%
%ADD32R,0.0120X0.0010*%
%ADD33R,0.0030X0.0010*%
%ADD34R,0.0010X0.0010*%
%ADD35R,0.0130X0.0010*%
%ADD36R,0.0020X0.0010*%
%ADD37R,0.0040X0.0010*%
%ADD38R,0.0450X0.0010*%
%ADD39R,0.0190X0.0010*%
%ADD40R,0.0440X0.0010*%
%ADD41R,0.0320X0.0010*%
%ADD42R,0.0400X0.0010*%
%ADD43R,0.0460X0.0010*%
%ADD44R,0.0510X0.0010*%
%ADD45R,0.0560X0.0010*%
%ADD46R,0.0600X0.0010*%
%ADD47R,0.0640X0.0010*%
%ADD48R,0.0670X0.0010*%
%ADD49R,0.0700X0.0010*%
%ADD50R,0.0720X0.0010*%
%ADD51R,0.0740X0.0010*%
%ADD52R,0.0340X0.0010*%
%ADD53R,0.0760X0.0010*%
%ADD54R,0.0370X0.0010*%
%ADD55R,0.0380X0.0010*%
%ADD56R,0.0780X0.0010*%
%ADD57R,0.0310X0.0010*%
%ADD58R,0.0420X0.0010*%
%ADD59R,0.0790X0.0010*%
%ADD60R,0.0800X0.0010*%
%ADD61R,0.0490X0.0010*%
%ADD62R,0.0820X0.0010*%
%ADD63R,0.0470X0.0010*%
%ADD64R,0.0300X0.0010*%
%ADD65R,0.0520X0.0010*%
%ADD66R,0.0480X0.0010*%
%ADD67R,0.0430X0.0010*%
%ADD68R,0.0350X0.0010*%
%ADD69R,0.0540X0.0010*%
%ADD70R,0.0840X0.0010*%
%ADD71R,0.0500X0.0010*%
%ADD72R,0.0850X0.0010*%
%ADD73R,0.0530X0.0010*%
%ADD74R,0.0590X0.0010*%
%ADD75R,0.0610X0.0010*%
%ADD76R,0.0630X0.0010*%
%ADD77R,0.0570X0.0010*%
%ADD78R,0.0650X0.0010*%
%ADD79R,0.0550X0.0010*%
%ADD80R,0.0690X0.0010*%
%ADD81R,0.0620X0.0010*%
%ADD82R,0.0580X0.0010*%
%ADD83R,0.0330X0.0010*%
%ADD84R,0.0680X0.0010*%
%ADD85R,0.0360X0.0010*%
%ADD86R,0.0710X0.0010*%
%ADD87R,0.0410X0.0010*%
%ADD88R,0.0730X0.0010*%
%ADD89R,0.0750X0.0010*%
%ADD90R,0.0660X0.0010*%
%ADD91R,0.0910X0.0010*%
%ADD92R,0.0920X0.0010*%
%ADD93R,0.0390X0.0010*%
%ADD94R,0.0930X0.0010*%
%ADD95R,0.0950X0.0010*%
%ADD96R,0.0960X0.0010*%
%ADD97R,0.0870X0.0010*%
%ADD98R,0.0980X0.0010*%
%ADD99R,0.1160X0.0010*%
%ADD100R,0.1000X0.0010*%
%ADD101R,0.1300X0.0010*%
%ADD102R,0.1170X0.0010*%
%ADD103R,0.1180X0.0010*%
%ADD104R,0.1210X0.0010*%
%ADD105R,0.1260X0.0010*%
%ADD106R,0.1350X0.0010*%
%ADD107R,0.1380X0.0010*%
%ADD108R,0.1410X0.0010*%
%ADD109R,0.1420X0.0010*%
%ADD110R,0.1290X0.0010*%
%ADD111R,0.1240X0.0010*%
%ADD112R,0.0970X0.0010*%
%ADD113R,0.0890X0.0010*%
%ADD114R,0.0940X0.0010*%
%ADD115R,0.0880X0.0010*%
%ADD116R,0.0860X0.0010*%
%ADD117R,0.0830X0.0010*%
%ADD118R,0.0810X0.0010*%
%ADD119C,0.0010*%
%ADD120C,0.0030*%
%ADD121C,0.0080*%
%ADD122C,0.0060*%
%ADD123R,0.0200X0.0150*%
%ADD124C,0.0100*%
%ADD125R,0.0021X0.0007*%
%ADD126R,0.0035X0.0007*%
%ADD127R,0.0042X0.0007*%
%ADD128R,0.0063X0.0007*%
%ADD129R,0.0070X0.0007*%
%ADD130R,0.0091X0.0007*%
%ADD131R,0.0105X0.0007*%
%ADD132R,0.0119X0.0007*%
%ADD133R,0.0133X0.0007*%
%ADD134R,0.0147X0.0007*%
%ADD135R,0.0161X0.0007*%
%ADD136R,0.0175X0.0007*%
%ADD137R,0.0189X0.0007*%
%ADD138R,0.0203X0.0007*%
%ADD139R,0.0224X0.0007*%
%ADD140R,0.0231X0.0007*%
%ADD141R,0.0231X0.0007*%
%ADD142R,0.0231X0.0007*%
%ADD143R,0.0231X0.0007*%
%ADD144R,0.0224X0.0007*%
%ADD145R,0.0224X0.0007*%
%ADD146R,0.1043X0.0007*%
%ADD147R,0.0896X0.0007*%
%ADD148R,0.1036X0.0007*%
%ADD149R,0.0896X0.0007*%
%ADD150R,0.1022X0.0007*%
%ADD151R,0.1015X0.0007*%
%ADD152R,0.1001X0.0007*%
%ADD153R,0.0994X0.0007*%
%ADD154R,0.0980X0.0007*%
%ADD155R,0.0973X0.0007*%
%ADD156R,0.0959X0.0007*%
%ADD157R,0.0952X0.0007*%
%ADD158R,0.0945X0.0007*%
%ADD159R,0.0938X0.0007*%
%ADD160R,0.0924X0.0007*%
%ADD161R,0.0917X0.0007*%
%ADD162R,0.0903X0.0007*%
%ADD163R,0.0889X0.0007*%
%ADD164R,0.0875X0.0007*%
%ADD165R,0.0868X0.0007*%
%ADD166R,0.0854X0.0007*%
%ADD167R,0.0140X0.0007*%
%ADD168R,0.0133X0.0007*%
%ADD169R,0.0140X0.0007*%
%ADD170R,0.0133X0.0007*%
%ADD171R,0.0189X0.0007*%
%ADD172R,0.0245X0.0007*%
%ADD173R,0.0770X0.0007*%
%ADD174R,0.0623X0.0007*%
%ADD175R,0.0280X0.0007*%
%ADD176R,0.0770X0.0007*%
%ADD177R,0.0693X0.0007*%
%ADD178R,0.0315X0.0007*%
%ADD179R,0.0728X0.0007*%
%ADD180R,0.0343X0.0007*%
%ADD181R,0.0777X0.0007*%
%ADD182R,0.0742X0.0007*%
%ADD183R,0.0371X0.0007*%
%ADD184R,0.0756X0.0007*%
%ADD185R,0.0385X0.0007*%
%ADD186R,0.0763X0.0007*%
%ADD187R,0.0413X0.0007*%
%ADD188R,0.0777X0.0007*%
%ADD189R,0.0427X0.0007*%
%ADD190R,0.0441X0.0007*%
%ADD191R,0.0784X0.0007*%
%ADD192R,0.0469X0.0007*%
%ADD193R,0.0791X0.0007*%
%ADD194R,0.0476X0.0007*%
%ADD195R,0.0483X0.0007*%
%ADD196R,0.0798X0.0007*%
%ADD197R,0.0497X0.0007*%
%ADD198R,0.0798X0.0007*%
%ADD199R,0.0644X0.0007*%
%ADD200R,0.0805X0.0007*%
%ADD201R,0.0784X0.0007*%
%ADD202R,0.0651X0.0007*%
%ADD203R,0.0812X0.0007*%
%ADD204R,0.0784X0.0007*%
%ADD205R,0.0819X0.0007*%
%ADD206R,0.0658X0.0007*%
%ADD207R,0.0819X0.0007*%
%ADD208R,0.0658X0.0007*%
%ADD209R,0.1484X0.0007*%
%ADD210R,0.1071X0.0007*%
%ADD211R,0.1057X0.0007*%
%ADD212R,0.0371X0.0007*%
%ADD213R,0.1050X0.0007*%
%ADD214R,0.0364X0.0007*%
%ADD215R,0.0357X0.0007*%
%ADD216R,0.0490X0.0007*%
%ADD217R,0.0504X0.0007*%
%ADD218R,0.1372X0.0007*%
%ADD219R,0.0350X0.0007*%
%ADD220R,0.1372X0.0007*%
%ADD221R,0.0483X0.0007*%
%ADD222R,0.0350X0.0007*%
%ADD223R,0.0476X0.0007*%
%ADD224R,0.0833X0.0007*%
%ADD225R,0.0469X0.0007*%
%ADD226R,0.0385X0.0007*%
%ADD227R,0.0833X0.0007*%
%ADD228R,0.0469X0.0007*%
%ADD229R,0.0567X0.0007*%
%ADD230R,0.0252X0.0007*%
%ADD231R,0.0567X0.0007*%
%ADD232R,0.0252X0.0007*%
%ADD233R,0.0560X0.0007*%
%ADD234R,0.0553X0.0007*%
%ADD235R,0.0553X0.0007*%
%ADD236R,0.0546X0.0007*%
%ADD237R,0.0364X0.0007*%
%ADD238R,0.0546X0.0007*%
%ADD239R,0.0371X0.0007*%
%ADD240R,0.0539X0.0007*%
%ADD241R,0.0378X0.0007*%
%ADD242R,0.0252X0.0007*%
%ADD243R,0.0392X0.0007*%
%ADD244R,0.0252X0.0007*%
%ADD245R,0.0399X0.0007*%
%ADD246R,0.0406X0.0007*%
%ADD247R,0.0420X0.0007*%
%ADD248R,0.0427X0.0007*%
%ADD249R,0.0441X0.0007*%
%ADD250R,0.0245X0.0007*%
%ADD251R,0.0448X0.0007*%
%ADD252R,0.0462X0.0007*%
%ADD253R,0.0217X0.0007*%
%ADD254R,0.0224X0.0007*%
%ADD255R,0.0259X0.0007*%
%ADD256R,0.0357X0.0007*%
%ADD257R,0.0287X0.0007*%
%ADD258R,0.0567X0.0007*%
%ADD259R,0.0217X0.0007*%
%ADD260R,0.0553X0.0007*%
%ADD261R,0.0392X0.0007*%
%ADD262R,0.0217X0.0007*%
%ADD263R,0.0399X0.0007*%
%ADD264R,0.0532X0.0007*%
%ADD265R,0.0525X0.0007*%
%ADD266R,0.0511X0.0007*%
%ADD267R,0.0406X0.0007*%
%ADD268R,0.0497X0.0007*%
%ADD269R,0.0406X0.0007*%
%ADD270R,0.0455X0.0007*%
%ADD271R,0.0217X0.0007*%
%ADD272R,0.0399X0.0007*%
%ADD273R,0.0511X0.0007*%
%ADD274R,0.0210X0.0007*%
%ADD275R,0.0378X0.0007*%
%ADD276R,0.0539X0.0007*%
%ADD277R,0.0357X0.0007*%
%ADD278R,0.0259X0.0007*%
%ADD279R,0.0238X0.0007*%
%ADD280R,0.0336X0.0007*%
%ADD281R,0.0210X0.0007*%
%ADD282R,0.0238X0.0007*%
%ADD283R,0.0329X0.0007*%
%ADD284R,0.0322X0.0007*%
%ADD285R,0.0308X0.0007*%
%ADD286R,0.0539X0.0007*%
%ADD287R,0.0511X0.0007*%
%ADD288R,0.0497X0.0007*%
%ADD289R,0.0476X0.0007*%
%ADD290R,0.0462X0.0007*%
%ADD291R,0.0203X0.0007*%
%ADD292R,0.0462X0.0007*%
%ADD293R,0.0434X0.0007*%
%ADD294R,0.0420X0.0007*%
%ADD295R,0.0406X0.0007*%
%ADD296R,0.0560X0.0007*%
%ADD297R,0.0553X0.0007*%
%ADD298R,0.0399X0.0007*%
%ADD299R,0.0532X0.0007*%
%ADD300R,0.0518X0.0007*%
%ADD301R,0.0504X0.0007*%
%ADD302R,0.0504X0.0007*%
%ADD303R,0.0378X0.0007*%
%ADD304R,0.0448X0.0007*%
%ADD305R,0.0434X0.0007*%
%ADD306R,0.0448X0.0007*%
%ADD307R,0.0371X0.0007*%
%ADD308R,0.0364X0.0007*%
%ADD309R,0.0336X0.0007*%
%ADD310R,0.0294X0.0007*%
%ADD311R,0.0196X0.0007*%
%ADD312R,0.2366X0.0007*%
%ADD313R,0.2366X0.0007*%
%ADD314C,0.0050*%
%ADD315C,0.0059*%
%ADD316C,0.1181*%
D10*
X000546Y008256D03*
X001636Y008186D03*
X004366Y008186D03*
X004486Y008186D03*
X004486Y008196D03*
X004856Y008246D03*
X005176Y008266D03*
X005176Y008166D03*
X005576Y008246D03*
X005576Y008456D03*
X009961Y001346D03*
X013801Y001536D03*
D11*
X014716Y001006D03*
X012186Y001006D03*
X009946Y001336D03*
X006166Y001706D03*
X006196Y001956D03*
X004666Y000646D03*
X004911Y008186D03*
X004991Y008306D03*
X004981Y008316D03*
X004871Y008396D03*
X004701Y008446D03*
X004701Y008256D03*
X004511Y008246D03*
X004331Y008256D03*
X004311Y008456D03*
X004231Y008516D03*
X004511Y008456D03*
X003621Y008456D03*
X003451Y008436D03*
X003271Y008446D03*
X003081Y008456D03*
X002921Y008456D03*
X002721Y008456D03*
X002561Y008456D03*
X002561Y008246D03*
X002641Y008186D03*
X002721Y008246D03*
X002921Y008246D03*
X003001Y008186D03*
X003081Y008246D03*
X002311Y008356D03*
X001601Y008256D03*
X001581Y008456D03*
X001501Y008516D03*
X001241Y008456D03*
X001071Y008436D03*
X000891Y008446D03*
X000731Y008336D03*
X000721Y008246D03*
X000621Y008176D03*
X000561Y008476D03*
X000561Y008576D03*
X000651Y008646D03*
X005401Y008256D03*
X005511Y008516D03*
X005741Y008456D03*
X005901Y008456D03*
X006091Y008446D03*
X006271Y008436D03*
X006441Y008456D03*
X005901Y008246D03*
X005821Y008186D03*
X005741Y008246D03*
D12*
X006196Y008516D03*
X006386Y008516D03*
X005176Y008256D03*
X005176Y008176D03*
X004336Y008426D03*
X003566Y008516D03*
X003376Y008516D03*
X001606Y008426D03*
X001186Y008516D03*
X000996Y008516D03*
X000556Y008246D03*
X005521Y001496D03*
X006101Y001366D03*
X006991Y001406D03*
X006951Y000526D03*
X008071Y001376D03*
X010041Y001326D03*
X010061Y000566D03*
X012191Y001016D03*
X012711Y001856D03*
X014721Y001016D03*
D13*
X013766Y001516D03*
X012696Y001816D03*
X012306Y001146D03*
X010066Y000586D03*
X008076Y001356D03*
X006986Y001376D03*
X006156Y001716D03*
X005566Y001566D03*
X005566Y001556D03*
X005566Y001546D03*
X005296Y001856D03*
X000621Y008186D03*
X000641Y008416D03*
X000621Y008426D03*
X000651Y008636D03*
X001001Y008496D03*
X003381Y008496D03*
X005511Y008506D03*
X006201Y008496D03*
D14*
X006271Y008426D03*
X006271Y008416D03*
X006271Y008406D03*
X006271Y008396D03*
X006271Y008386D03*
X006271Y008376D03*
X006271Y008366D03*
X006271Y008356D03*
X006271Y008346D03*
X006271Y008336D03*
X006271Y008326D03*
X006271Y008316D03*
X006271Y008306D03*
X006271Y008296D03*
X006271Y008286D03*
X006271Y008276D03*
X006271Y008266D03*
X006271Y008256D03*
X006271Y008246D03*
X006271Y008236D03*
X006271Y008226D03*
X006271Y008216D03*
X006271Y008206D03*
X006271Y008196D03*
X006271Y008186D03*
X006081Y008186D03*
X006081Y008196D03*
X006081Y008206D03*
X006081Y008216D03*
X006081Y008226D03*
X006081Y008236D03*
X006081Y008246D03*
X006081Y008256D03*
X006081Y008266D03*
X006081Y008276D03*
X006081Y008286D03*
X006081Y008296D03*
X006081Y008306D03*
X006081Y008316D03*
X006081Y008326D03*
X006081Y008336D03*
X006081Y008346D03*
X006081Y008356D03*
X006081Y008366D03*
X006081Y008376D03*
X006081Y008386D03*
X006081Y008396D03*
X006081Y008406D03*
X006081Y008416D03*
X006081Y008426D03*
X005941Y008396D03*
X005941Y008386D03*
X005941Y008376D03*
X005941Y008366D03*
X005941Y008356D03*
X005941Y008346D03*
X005941Y008336D03*
X005941Y008326D03*
X005941Y008316D03*
X005931Y008296D03*
X005931Y008286D03*
X005921Y008266D03*
X005931Y008406D03*
X005931Y008416D03*
X005921Y008436D03*
X005721Y008436D03*
X005711Y008416D03*
X005711Y008406D03*
X005701Y008396D03*
X005701Y008386D03*
X005701Y008376D03*
X005701Y008366D03*
X005701Y008356D03*
X005701Y008346D03*
X005701Y008336D03*
X005701Y008326D03*
X005701Y008316D03*
X005701Y008306D03*
X005711Y008296D03*
X005711Y008286D03*
X005721Y008266D03*
X005391Y008426D03*
X005381Y008406D03*
X005381Y008396D03*
X005371Y008386D03*
X005371Y008376D03*
X005371Y008366D03*
X005371Y008356D03*
X005371Y008346D03*
X005371Y008336D03*
X005371Y008326D03*
X005371Y008316D03*
X005381Y008296D03*
X005381Y008286D03*
X005001Y008286D03*
X005001Y008276D03*
X005001Y008266D03*
X005001Y008256D03*
X004851Y008416D03*
X004851Y008426D03*
X004851Y008436D03*
X004851Y008446D03*
X004731Y008396D03*
X004731Y008386D03*
X004731Y008376D03*
X004731Y008366D03*
X004731Y008356D03*
X004731Y008346D03*
X004731Y008336D03*
X004731Y008326D03*
X004731Y008316D03*
X004721Y008306D03*
X004721Y008296D03*
X004721Y008286D03*
X004721Y008406D03*
X004721Y008416D03*
X004611Y008516D03*
X004501Y008516D03*
X004501Y008526D03*
X004501Y008536D03*
X004501Y008546D03*
X004501Y008556D03*
X004501Y008566D03*
X004501Y008576D03*
X004501Y008586D03*
X004501Y008596D03*
X004501Y008606D03*
X004501Y008616D03*
X004501Y008626D03*
X004501Y008636D03*
X004501Y008506D03*
X004501Y008436D03*
X004501Y008426D03*
X004501Y008416D03*
X004501Y008406D03*
X004501Y008396D03*
X004501Y008386D03*
X004501Y008376D03*
X004501Y008366D03*
X004501Y008356D03*
X004501Y008346D03*
X004501Y008336D03*
X004501Y008326D03*
X004501Y008316D03*
X004501Y008306D03*
X004501Y008296D03*
X004501Y008286D03*
X004501Y008276D03*
X004501Y008266D03*
X004361Y008196D03*
X004341Y008286D03*
X004341Y008296D03*
X004341Y008306D03*
X004341Y008316D03*
X004341Y008326D03*
X004341Y008336D03*
X004341Y008346D03*
X004341Y008416D03*
X004331Y008436D03*
X004151Y008326D03*
X004141Y008306D03*
X004141Y008296D03*
X004141Y008286D03*
X004141Y008276D03*
X004141Y008266D03*
X003821Y008266D03*
X003821Y008276D03*
X003821Y008286D03*
X003821Y008296D03*
X003821Y008306D03*
X003821Y008316D03*
X003821Y008326D03*
X003821Y008336D03*
X003821Y008346D03*
X003821Y008356D03*
X003821Y008366D03*
X003821Y008376D03*
X003821Y008386D03*
X003821Y008396D03*
X003821Y008406D03*
X003821Y008416D03*
X003821Y008426D03*
X003821Y008436D03*
X003821Y008446D03*
X003821Y008456D03*
X003821Y008466D03*
X003821Y008476D03*
X003821Y008486D03*
X003821Y008496D03*
X003821Y008506D03*
X003821Y008516D03*
X003821Y008526D03*
X003821Y008536D03*
X003821Y008546D03*
X003821Y008556D03*
X003821Y008566D03*
X003821Y008576D03*
X003821Y008586D03*
X003821Y008596D03*
X003821Y008606D03*
X003821Y008616D03*
X003821Y008626D03*
X003821Y008636D03*
X003641Y008426D03*
X003641Y008416D03*
X003641Y008406D03*
X003641Y008396D03*
X003641Y008386D03*
X003641Y008376D03*
X003641Y008366D03*
X003641Y008356D03*
X003641Y008346D03*
X003641Y008336D03*
X003641Y008326D03*
X003641Y008316D03*
X003641Y008306D03*
X003641Y008296D03*
X003641Y008286D03*
X003641Y008276D03*
X003641Y008266D03*
X003641Y008256D03*
X003641Y008246D03*
X003641Y008236D03*
X003641Y008226D03*
X003641Y008216D03*
X003641Y008206D03*
X003641Y008196D03*
X003641Y008186D03*
X003451Y008186D03*
X003451Y008196D03*
X003451Y008206D03*
X003451Y008216D03*
X003451Y008226D03*
X003451Y008236D03*
X003451Y008246D03*
X003451Y008256D03*
X003451Y008266D03*
X003451Y008276D03*
X003451Y008286D03*
X003451Y008296D03*
X003451Y008306D03*
X003451Y008316D03*
X003451Y008326D03*
X003451Y008336D03*
X003451Y008346D03*
X003451Y008356D03*
X003451Y008366D03*
X003451Y008376D03*
X003451Y008386D03*
X003451Y008396D03*
X003451Y008406D03*
X003451Y008416D03*
X003451Y008426D03*
X003261Y008426D03*
X003261Y008416D03*
X003261Y008406D03*
X003261Y008396D03*
X003261Y008386D03*
X003261Y008376D03*
X003261Y008366D03*
X003261Y008356D03*
X003261Y008346D03*
X003261Y008336D03*
X003261Y008326D03*
X003261Y008316D03*
X003261Y008306D03*
X003261Y008296D03*
X003261Y008286D03*
X003261Y008276D03*
X003261Y008266D03*
X003261Y008256D03*
X003261Y008246D03*
X003261Y008236D03*
X003261Y008226D03*
X003261Y008216D03*
X003261Y008206D03*
X003261Y008196D03*
X003261Y008186D03*
X003101Y008266D03*
X003111Y008286D03*
X003111Y008296D03*
X003121Y008316D03*
X003121Y008326D03*
X003121Y008336D03*
X003121Y008346D03*
X003121Y008356D03*
X003121Y008366D03*
X003121Y008376D03*
X003121Y008386D03*
X003121Y008396D03*
X003111Y008406D03*
X003111Y008416D03*
X003101Y008436D03*
X002901Y008436D03*
X002891Y008416D03*
X002891Y008406D03*
X002881Y008396D03*
X002881Y008386D03*
X002881Y008376D03*
X002881Y008366D03*
X002881Y008356D03*
X002881Y008346D03*
X002881Y008336D03*
X002881Y008326D03*
X002881Y008316D03*
X002881Y008306D03*
X002891Y008296D03*
X002891Y008286D03*
X002901Y008266D03*
X002761Y008316D03*
X002761Y008326D03*
X002761Y008336D03*
X002761Y008346D03*
X002761Y008356D03*
X002761Y008366D03*
X002761Y008376D03*
X002761Y008386D03*
X002761Y008396D03*
X002751Y008406D03*
X002751Y008416D03*
X002741Y008436D03*
X002751Y008296D03*
X002751Y008286D03*
X002741Y008266D03*
X002541Y008266D03*
X002531Y008286D03*
X002531Y008296D03*
X002521Y008306D03*
X002521Y008316D03*
X002521Y008326D03*
X002521Y008336D03*
X002521Y008346D03*
X002521Y008356D03*
X002521Y008366D03*
X002521Y008376D03*
X002521Y008386D03*
X002521Y008396D03*
X002531Y008406D03*
X002531Y008416D03*
X002541Y008436D03*
X002381Y008486D03*
X002381Y008496D03*
X002381Y008506D03*
X002381Y008516D03*
X002381Y008526D03*
X002381Y008536D03*
X002371Y008466D03*
X002161Y008466D03*
X002161Y008476D03*
X002161Y008486D03*
X002161Y008496D03*
X002161Y008506D03*
X002161Y008516D03*
X002161Y008526D03*
X002161Y008536D03*
X002161Y008546D03*
X002161Y008556D03*
X002161Y008566D03*
X002161Y008456D03*
X002161Y008446D03*
X002161Y008366D03*
X002161Y008356D03*
X002161Y008346D03*
X002161Y008336D03*
X002161Y008326D03*
X002161Y008316D03*
X002161Y008306D03*
X002161Y008296D03*
X002161Y008286D03*
X002161Y008276D03*
X002161Y008266D03*
X002161Y008256D03*
X002161Y008246D03*
X002161Y008236D03*
X002161Y008226D03*
X002161Y008216D03*
X002161Y008206D03*
X002161Y008196D03*
X002161Y008186D03*
X001971Y008246D03*
X001971Y008256D03*
X001971Y008266D03*
X001971Y008276D03*
X001971Y008286D03*
X001971Y008296D03*
X001971Y008306D03*
X001971Y008316D03*
X001971Y008326D03*
X001971Y008336D03*
X001971Y008346D03*
X001971Y008356D03*
X001971Y008366D03*
X001971Y008376D03*
X001971Y008386D03*
X001971Y008396D03*
X001971Y008406D03*
X001971Y008416D03*
X001971Y008426D03*
X001971Y008436D03*
X001971Y008446D03*
X001971Y008456D03*
X001971Y008466D03*
X001971Y008476D03*
X001971Y008486D03*
X001971Y008496D03*
X001971Y008506D03*
X001971Y008516D03*
X001971Y008526D03*
X001971Y008536D03*
X001971Y008546D03*
X001971Y008556D03*
X001971Y008566D03*
X001971Y008576D03*
X001971Y008586D03*
X001971Y008596D03*
X001971Y008606D03*
X001971Y008616D03*
X001971Y008626D03*
X001971Y008636D03*
X001781Y008636D03*
X001781Y008626D03*
X001781Y008616D03*
X001781Y008606D03*
X001781Y008596D03*
X001781Y008586D03*
X001781Y008576D03*
X001781Y008566D03*
X001781Y008556D03*
X001781Y008546D03*
X001781Y008536D03*
X001781Y008526D03*
X001781Y008516D03*
X001781Y008506D03*
X001781Y008496D03*
X001781Y008486D03*
X001781Y008476D03*
X001781Y008466D03*
X001781Y008456D03*
X001781Y008446D03*
X001781Y008436D03*
X001781Y008426D03*
X001781Y008416D03*
X001781Y008406D03*
X001781Y008396D03*
X001781Y008386D03*
X001781Y008376D03*
X001781Y008366D03*
X001781Y008356D03*
X001781Y008346D03*
X001781Y008336D03*
X001781Y008326D03*
X001781Y008316D03*
X001781Y008306D03*
X001781Y008296D03*
X001781Y008286D03*
X001781Y008276D03*
X001781Y008266D03*
X001781Y008256D03*
X001781Y008246D03*
X001631Y008196D03*
X001611Y008286D03*
X001611Y008296D03*
X001611Y008306D03*
X001611Y008316D03*
X001611Y008326D03*
X001611Y008336D03*
X001611Y008346D03*
X001611Y008416D03*
X001601Y008436D03*
X001421Y008326D03*
X001411Y008306D03*
X001411Y008296D03*
X001411Y008286D03*
X001411Y008276D03*
X001411Y008266D03*
X001261Y008266D03*
X001261Y008276D03*
X001261Y008286D03*
X001261Y008296D03*
X001261Y008306D03*
X001261Y008316D03*
X001261Y008326D03*
X001261Y008336D03*
X001261Y008346D03*
X001261Y008356D03*
X001261Y008366D03*
X001261Y008376D03*
X001261Y008386D03*
X001261Y008396D03*
X001261Y008406D03*
X001261Y008416D03*
X001261Y008426D03*
X001261Y008256D03*
X001261Y008246D03*
X001261Y008236D03*
X001261Y008226D03*
X001261Y008216D03*
X001261Y008206D03*
X001261Y008196D03*
X001261Y008186D03*
X001071Y008186D03*
X001071Y008196D03*
X001071Y008206D03*
X001071Y008216D03*
X001071Y008226D03*
X001071Y008236D03*
X001071Y008246D03*
X001071Y008256D03*
X001071Y008266D03*
X001071Y008276D03*
X001071Y008286D03*
X001071Y008296D03*
X001071Y008306D03*
X001071Y008316D03*
X001071Y008326D03*
X001071Y008336D03*
X001071Y008346D03*
X001071Y008356D03*
X001071Y008366D03*
X001071Y008376D03*
X001071Y008386D03*
X001071Y008396D03*
X001071Y008406D03*
X001071Y008416D03*
X001071Y008426D03*
X000881Y008426D03*
X000881Y008416D03*
X000881Y008406D03*
X000881Y008396D03*
X000881Y008386D03*
X000881Y008376D03*
X000881Y008366D03*
X000881Y008356D03*
X000881Y008346D03*
X000881Y008336D03*
X000881Y008326D03*
X000881Y008316D03*
X000881Y008306D03*
X000881Y008296D03*
X000881Y008286D03*
X000881Y008276D03*
X000881Y008266D03*
X000881Y008256D03*
X000881Y008246D03*
X000881Y008236D03*
X000881Y008226D03*
X000881Y008216D03*
X000881Y008206D03*
X000881Y008196D03*
X000881Y008186D03*
X000741Y008276D03*
X000741Y008286D03*
X000741Y008296D03*
X000741Y008306D03*
X000741Y008316D03*
X000541Y008516D03*
X000541Y008526D03*
X000541Y008536D03*
X000541Y008546D03*
X003821Y008256D03*
X006461Y008266D03*
X006461Y008276D03*
X006461Y008286D03*
X006461Y008296D03*
X006461Y008306D03*
X006461Y008316D03*
X006461Y008326D03*
X006461Y008336D03*
X006461Y008346D03*
X006461Y008356D03*
X006461Y008366D03*
X006461Y008376D03*
X006461Y008386D03*
X006461Y008396D03*
X006461Y008406D03*
X006461Y008416D03*
X006461Y008426D03*
X006461Y008256D03*
X006461Y008246D03*
X006461Y008236D03*
X006461Y008226D03*
X006461Y008216D03*
X006461Y008206D03*
X006461Y008196D03*
X006461Y008186D03*
X009136Y001446D03*
X010606Y001386D03*
X013346Y001866D03*
X007596Y000606D03*
X007476Y001356D03*
D15*
X008261Y000636D03*
X005916Y008256D03*
X005926Y008276D03*
X005936Y008306D03*
X005926Y008426D03*
X005916Y008446D03*
X005826Y008516D03*
X005726Y008446D03*
X005716Y008426D03*
X005716Y008276D03*
X005726Y008256D03*
X005396Y008266D03*
X005386Y008276D03*
X005376Y008306D03*
X005386Y008416D03*
X005396Y008436D03*
X005406Y008446D03*
X005176Y008246D03*
X005176Y008186D03*
X004986Y008246D03*
X004996Y008296D03*
X004856Y008406D03*
X004856Y008456D03*
X004926Y008516D03*
X004716Y008426D03*
X004706Y008436D03*
X004716Y008276D03*
X004706Y008266D03*
X004606Y008186D03*
X004506Y008256D03*
X004356Y008206D03*
X004336Y008266D03*
X004336Y008276D03*
X004216Y008186D03*
X004156Y008246D03*
X004146Y008256D03*
X004146Y008316D03*
X004156Y008336D03*
X004326Y008446D03*
X004506Y008446D03*
X003636Y008436D03*
X003626Y008446D03*
X003266Y008436D03*
X003106Y008426D03*
X003096Y008446D03*
X003006Y008516D03*
X002906Y008446D03*
X002896Y008426D03*
X002746Y008426D03*
X002736Y008446D03*
X002646Y008516D03*
X002546Y008446D03*
X002536Y008426D03*
X002536Y008276D03*
X002546Y008256D03*
X002426Y008186D03*
X002416Y008196D03*
X002406Y008206D03*
X002406Y008216D03*
X002396Y008226D03*
X002386Y008236D03*
X002386Y008246D03*
X002376Y008256D03*
X002366Y008266D03*
X002366Y008276D03*
X002356Y008286D03*
X002346Y008296D03*
X002346Y008306D03*
X002336Y008316D03*
X002326Y008326D03*
X002326Y008336D03*
X002316Y008346D03*
X002306Y008366D03*
X002366Y008456D03*
X002376Y008476D03*
X002376Y008546D03*
X002366Y008556D03*
X002756Y008306D03*
X002746Y008276D03*
X002736Y008256D03*
X002896Y008276D03*
X002906Y008256D03*
X003096Y008256D03*
X003106Y008276D03*
X003116Y008306D03*
X001996Y008196D03*
X001986Y008216D03*
X001976Y008226D03*
X001976Y008236D03*
X001806Y008196D03*
X001796Y008216D03*
X001786Y008226D03*
X001786Y008236D03*
X001626Y008206D03*
X001606Y008266D03*
X001606Y008276D03*
X001486Y008186D03*
X001426Y008246D03*
X001416Y008256D03*
X001416Y008316D03*
X001426Y008336D03*
X001256Y008436D03*
X001246Y008446D03*
X001596Y008446D03*
X000886Y008436D03*
X000726Y008346D03*
X000736Y008326D03*
X000736Y008266D03*
X000726Y008256D03*
X000556Y008486D03*
X000546Y008496D03*
X000546Y008506D03*
X000546Y008556D03*
X000556Y008566D03*
X006086Y008436D03*
X006446Y008446D03*
X006456Y008436D03*
D16*
X006071Y008496D03*
X006071Y008506D03*
X004511Y008646D03*
X003251Y008506D03*
X003251Y008496D03*
X001981Y008646D03*
X001791Y008646D03*
X001801Y008186D03*
X001991Y008186D03*
X000871Y008496D03*
X000871Y008506D03*
X000711Y008576D03*
X004656Y000656D03*
X012486Y000356D03*
D17*
X011961Y000776D03*
X011471Y000756D03*
X010721Y000896D03*
X010561Y001316D03*
X009961Y001316D03*
X008781Y001036D03*
X008771Y001026D03*
X008281Y000686D03*
X008061Y001276D03*
X006961Y000666D03*
X006961Y000656D03*
X006911Y001106D03*
X006471Y000726D03*
X005441Y000756D03*
X004791Y001566D03*
X006161Y001796D03*
X006161Y001806D03*
X006171Y001826D03*
X003926Y008186D03*
X003926Y008196D03*
X003926Y008206D03*
X003926Y008216D03*
X003926Y008226D03*
X003926Y008236D03*
X003926Y008246D03*
X013301Y000526D03*
X013901Y000866D03*
X014001Y000756D03*
X014491Y000776D03*
X013721Y001496D03*
D18*
X014311Y001546D03*
X014711Y000996D03*
X014711Y000986D03*
X012711Y001846D03*
X012181Y000996D03*
X012181Y000986D03*
X011781Y001546D03*
X006991Y001396D03*
X006091Y001356D03*
X005541Y001506D03*
X006201Y000486D03*
X005506Y008186D03*
X005416Y008246D03*
X005416Y008456D03*
X005176Y008236D03*
X005176Y008226D03*
X005176Y008216D03*
X005176Y008206D03*
X005176Y008196D03*
X004686Y008246D03*
X004686Y008456D03*
X003456Y008446D03*
X002346Y008446D03*
X001996Y008206D03*
X001806Y008206D03*
X001076Y008446D03*
X000716Y008356D03*
X000706Y008366D03*
X006276Y008446D03*
D19*
X005511Y008496D03*
X004921Y008226D03*
X004281Y008396D03*
X004231Y008496D03*
X001551Y008396D03*
X001501Y008496D03*
X000621Y008196D03*
X006196Y001926D03*
X006156Y001726D03*
X006066Y001306D03*
X005566Y001616D03*
X006686Y000916D03*
X006696Y000926D03*
X006926Y000946D03*
X007116Y000846D03*
X007126Y000866D03*
X007136Y000876D03*
X007146Y000896D03*
X007156Y000916D03*
X007166Y000926D03*
X007166Y000936D03*
X007176Y000946D03*
X007186Y000956D03*
X007186Y000966D03*
X007196Y000976D03*
X007206Y000996D03*
X007216Y001006D03*
X007226Y001026D03*
X007106Y000826D03*
X006946Y000576D03*
X007596Y000656D03*
X007536Y001136D03*
X007886Y001096D03*
X007896Y001106D03*
X007896Y001116D03*
X007906Y001126D03*
X007916Y001136D03*
X008126Y001136D03*
X008126Y001126D03*
X008126Y001116D03*
X008126Y001106D03*
X008136Y001026D03*
X008136Y001016D03*
X008136Y001006D03*
X008136Y000996D03*
X008136Y000986D03*
X008136Y000976D03*
X008146Y000956D03*
X008146Y000946D03*
X008146Y000936D03*
X008146Y000926D03*
X008146Y000916D03*
X008156Y000896D03*
X008156Y000886D03*
X008166Y000856D03*
X008266Y000656D03*
X008756Y000746D03*
X008756Y000756D03*
X008756Y000766D03*
X008756Y000776D03*
X008756Y000786D03*
X008756Y000796D03*
X008756Y000806D03*
X008756Y000816D03*
X008756Y000826D03*
X008766Y000736D03*
X008766Y000726D03*
X009296Y000926D03*
X009296Y000936D03*
X009306Y000956D03*
X009306Y000966D03*
X009306Y000976D03*
X009116Y001416D03*
X010016Y000976D03*
X010016Y000966D03*
X010016Y000956D03*
X010016Y000946D03*
X010016Y000936D03*
X010016Y000926D03*
X010016Y000916D03*
X010016Y000906D03*
X010016Y000896D03*
X010066Y000606D03*
X010376Y001106D03*
X010386Y001126D03*
X010396Y001136D03*
X010616Y001126D03*
X010616Y001116D03*
X010616Y001106D03*
X010626Y001086D03*
X010626Y001076D03*
X010626Y001066D03*
X010636Y001036D03*
X011406Y001046D03*
X011416Y001076D03*
X011416Y001086D03*
X011426Y001116D03*
X011816Y001196D03*
X011836Y001226D03*
X011846Y001236D03*
X011856Y001256D03*
X011866Y001286D03*
X011876Y001326D03*
X011876Y001336D03*
X011876Y001346D03*
X012096Y000876D03*
X012086Y000866D03*
X012516Y000956D03*
X012606Y001416D03*
X012616Y001446D03*
X012616Y001456D03*
X012616Y001466D03*
X012626Y001486D03*
X012626Y001496D03*
X012626Y001506D03*
X012636Y001526D03*
X012636Y001536D03*
X012636Y001546D03*
X012646Y001566D03*
X012646Y001576D03*
X012646Y001586D03*
X012646Y001596D03*
X012656Y001606D03*
X012656Y001616D03*
X012656Y001626D03*
X012666Y001646D03*
X012666Y001656D03*
X012666Y001666D03*
X012676Y001696D03*
X012676Y001706D03*
X012686Y001736D03*
X012686Y001746D03*
X012686Y001756D03*
X013266Y001546D03*
X013266Y001536D03*
X013266Y001526D03*
X013266Y001516D03*
X013256Y001506D03*
X013256Y001496D03*
X013256Y001486D03*
X013276Y001566D03*
X013276Y001576D03*
X013276Y001586D03*
X013286Y001606D03*
X013286Y001616D03*
X013286Y001626D03*
X013296Y001646D03*
X013296Y001656D03*
X013306Y001686D03*
X013316Y001716D03*
X013316Y001726D03*
X013326Y001746D03*
X013326Y001756D03*
X013326Y001766D03*
X013956Y001116D03*
X013946Y001086D03*
X013946Y001076D03*
X013936Y001046D03*
X014346Y001196D03*
X014366Y001226D03*
X014376Y001236D03*
X014386Y001256D03*
X014396Y001286D03*
X014406Y001326D03*
X014406Y001336D03*
X014406Y001346D03*
X014626Y000876D03*
X014616Y000866D03*
X012496Y000396D03*
X008076Y001336D03*
X006976Y001336D03*
X006976Y001326D03*
D20*
X006986Y001386D03*
X006086Y001346D03*
X005556Y001526D03*
X009126Y001436D03*
X009926Y001326D03*
X010896Y000696D03*
X012166Y000956D03*
X012706Y001836D03*
X013346Y001846D03*
X013286Y000506D03*
X014696Y000956D03*
X006271Y008456D03*
X004941Y008346D03*
X004901Y008376D03*
X004931Y008506D03*
X004611Y008196D03*
X004221Y008196D03*
X003451Y008456D03*
X001491Y008196D03*
X001071Y008456D03*
X000681Y008386D03*
D21*
X000666Y008396D03*
X000656Y008406D03*
X000606Y008436D03*
X001186Y008496D03*
X002646Y008506D03*
X002636Y008196D03*
X002996Y008196D03*
X003006Y008506D03*
X003566Y008496D03*
X004916Y008366D03*
X004926Y008356D03*
X004916Y008196D03*
X005816Y008196D03*
X005826Y008506D03*
X006386Y008496D03*
X006201Y001946D03*
X006081Y001336D03*
X005561Y001536D03*
X004681Y000636D03*
X006951Y000546D03*
X007591Y000626D03*
X008261Y000646D03*
X007471Y001346D03*
X010591Y001376D03*
X012151Y000936D03*
X012161Y000946D03*
X012491Y000376D03*
X012701Y001826D03*
X013341Y001836D03*
X014681Y000936D03*
X014691Y000946D03*
D22*
X014671Y000926D03*
X013341Y001816D03*
X013341Y001826D03*
X012701Y001806D03*
X012141Y000926D03*
X012491Y000386D03*
X009311Y001076D03*
X009311Y001086D03*
X009121Y001426D03*
X007591Y000636D03*
X006951Y000556D03*
X006981Y001366D03*
X006201Y001936D03*
X005506Y008196D03*
X006386Y008486D03*
X004296Y008406D03*
X004226Y008506D03*
X004216Y008206D03*
X003566Y008486D03*
X001566Y008406D03*
X001496Y008506D03*
X001486Y008206D03*
X001186Y008486D03*
D23*
X000636Y008586D03*
X000636Y008596D03*
X000616Y008206D03*
X002236Y008396D03*
X002646Y008476D03*
X003006Y008476D03*
X005496Y008476D03*
X005506Y008216D03*
X005826Y008476D03*
X006191Y001906D03*
X006151Y001736D03*
X006051Y001266D03*
X006051Y001256D03*
X006051Y001246D03*
X006041Y001236D03*
X006041Y001226D03*
X006041Y001216D03*
X006041Y001206D03*
X006031Y001166D03*
X006031Y001156D03*
X006031Y001146D03*
X006031Y001136D03*
X006021Y001096D03*
X006021Y001086D03*
X006021Y001076D03*
X006021Y001066D03*
X006021Y001056D03*
X006011Y001016D03*
X006011Y001006D03*
X006011Y000996D03*
X006011Y000986D03*
X006011Y000976D03*
X006011Y000966D03*
X006011Y000956D03*
X006011Y000946D03*
X006011Y000936D03*
X006011Y000926D03*
X006011Y000916D03*
X006011Y000906D03*
X006011Y000896D03*
X006011Y000886D03*
X006011Y000876D03*
X006021Y000856D03*
X006021Y000846D03*
X006021Y000836D03*
X006021Y000826D03*
X006021Y000816D03*
X006031Y000786D03*
X006031Y000776D03*
X006201Y000506D03*
X006621Y000846D03*
X006951Y000606D03*
X006951Y000596D03*
X007301Y001126D03*
X007311Y001136D03*
X006971Y001256D03*
X007601Y000676D03*
X008181Y000826D03*
X008271Y000666D03*
X008781Y000696D03*
X009221Y000776D03*
X009231Y000786D03*
X009241Y000806D03*
X009251Y000816D03*
X009261Y000836D03*
X008911Y001196D03*
X008921Y001206D03*
X008891Y001176D03*
X008881Y001166D03*
X008871Y001156D03*
X010031Y001156D03*
X010031Y001166D03*
X010031Y001176D03*
X010031Y001186D03*
X010031Y001196D03*
X010031Y001146D03*
X010031Y001136D03*
X010031Y001126D03*
X010071Y000626D03*
X010671Y000946D03*
X010671Y000956D03*
X010681Y000936D03*
X011421Y000816D03*
X011431Y000796D03*
X011631Y000576D03*
X012041Y000826D03*
X011751Y001126D03*
X011761Y001136D03*
X011771Y001146D03*
X011561Y001356D03*
X011771Y001526D03*
X012461Y000516D03*
X012491Y000416D03*
X013121Y000736D03*
X013121Y000746D03*
X013121Y000756D03*
X013291Y000516D03*
X013711Y000756D03*
X014161Y000576D03*
X014571Y000826D03*
X014281Y001126D03*
X014291Y001136D03*
X014301Y001146D03*
X014091Y001356D03*
X014301Y001526D03*
X005511Y000896D03*
X005511Y000886D03*
X005511Y000876D03*
X005511Y000866D03*
X005511Y000856D03*
X004741Y001396D03*
X004731Y001416D03*
X004731Y001426D03*
X004731Y001466D03*
X004731Y001476D03*
D24*
X005566Y001576D03*
X005566Y001586D03*
X006076Y001326D03*
X006736Y000976D03*
X006916Y000896D03*
X006916Y000886D03*
X006906Y000846D03*
X006906Y000836D03*
X006906Y000826D03*
X007466Y001336D03*
X007546Y001056D03*
X007546Y001046D03*
X007786Y000926D03*
X007796Y000936D03*
X007796Y000946D03*
X007806Y000956D03*
X007816Y000976D03*
X007826Y000996D03*
X007776Y000906D03*
X007756Y000876D03*
X007596Y000646D03*
X008076Y001346D03*
X009316Y001066D03*
X009316Y001056D03*
X009316Y001046D03*
X009316Y001036D03*
X010066Y000596D03*
X010216Y000796D03*
X010226Y000816D03*
X010236Y000836D03*
X010246Y000846D03*
X010246Y000856D03*
X010256Y000866D03*
X010256Y000876D03*
X010266Y000886D03*
X010266Y000896D03*
X010276Y000906D03*
X010276Y000916D03*
X010286Y000926D03*
X010286Y000936D03*
X010296Y000946D03*
X010296Y000956D03*
X010306Y000966D03*
X010306Y000976D03*
X010316Y000996D03*
X010326Y001016D03*
X010336Y001036D03*
X010586Y001366D03*
X011776Y001536D03*
X012136Y000916D03*
X012126Y000906D03*
X012116Y000896D03*
X012696Y001786D03*
X012696Y001796D03*
X013336Y001796D03*
X013336Y001806D03*
X014306Y001536D03*
X014666Y000916D03*
X014656Y000906D03*
X014646Y000896D03*
X005821Y008206D03*
X005821Y008496D03*
X004931Y008496D03*
X004911Y008206D03*
X003001Y008206D03*
X003001Y008496D03*
X002641Y008496D03*
X002641Y008206D03*
D25*
X002641Y008226D03*
X002641Y008236D03*
X003001Y008236D03*
X003001Y008226D03*
X002241Y008616D03*
X001531Y008376D03*
X000631Y008226D03*
X004261Y008376D03*
X004581Y008496D03*
X004581Y008206D03*
X005491Y008226D03*
X005491Y008236D03*
X005491Y008466D03*
X005821Y008236D03*
X005821Y008226D03*
X006196Y001896D03*
X006036Y001196D03*
X006036Y001186D03*
X006036Y001176D03*
X006026Y001126D03*
X006026Y001116D03*
X006026Y001106D03*
X006016Y001046D03*
X006016Y001036D03*
X006016Y001026D03*
X006016Y000866D03*
X006026Y000806D03*
X006026Y000796D03*
X006036Y000766D03*
X006036Y000756D03*
X006046Y000736D03*
X006576Y000806D03*
X006586Y000816D03*
X006596Y000826D03*
X006606Y000836D03*
X006946Y001166D03*
X007466Y001316D03*
X007606Y000686D03*
X008526Y000856D03*
X008846Y001126D03*
X008856Y001136D03*
X008866Y001146D03*
X008936Y001216D03*
X008946Y001226D03*
X009236Y000796D03*
X009216Y000766D03*
X009206Y000756D03*
X009196Y000746D03*
X009526Y001086D03*
X010076Y000636D03*
X010576Y001346D03*
X010906Y000706D03*
X011426Y000806D03*
X011436Y000786D03*
X011686Y001076D03*
X011726Y001106D03*
X011736Y001116D03*
X011566Y001366D03*
X012026Y000816D03*
X012466Y000506D03*
X012496Y000426D03*
X013126Y000726D03*
X013136Y000716D03*
X013136Y000706D03*
X013696Y000746D03*
X014216Y001076D03*
X014256Y001106D03*
X014266Y001116D03*
X014096Y001366D03*
X014556Y000816D03*
X005556Y001636D03*
X005506Y000906D03*
X005506Y000846D03*
X005496Y000836D03*
X005496Y000826D03*
X004846Y000426D03*
X004746Y001376D03*
X004746Y001386D03*
X004736Y001406D03*
X004736Y001486D03*
X004736Y001496D03*
X004746Y001506D03*
D26*
X004701Y000626D03*
X006061Y001286D03*
X006061Y001296D03*
X006661Y000896D03*
X006671Y000906D03*
X006961Y001176D03*
X006981Y001316D03*
X007251Y001066D03*
X007251Y001056D03*
X007241Y001046D03*
X007231Y001036D03*
X007221Y001016D03*
X007201Y000986D03*
X007261Y001076D03*
X007271Y001086D03*
X007471Y001326D03*
X008151Y000906D03*
X008161Y000876D03*
X008161Y000866D03*
X008171Y000846D03*
X008761Y000846D03*
X008761Y000856D03*
X008761Y000836D03*
X008771Y000716D03*
X009281Y000886D03*
X009291Y000906D03*
X009291Y000916D03*
X009301Y000946D03*
X009111Y001406D03*
X010021Y001046D03*
X010021Y001036D03*
X010021Y001026D03*
X010021Y001016D03*
X010021Y001006D03*
X010021Y000996D03*
X010021Y000986D03*
X010071Y000616D03*
X010641Y001006D03*
X010641Y001016D03*
X010641Y001026D03*
X010631Y001046D03*
X010631Y001056D03*
X010621Y001096D03*
X010611Y001136D03*
X010651Y000996D03*
X010581Y001356D03*
X011431Y001146D03*
X011431Y001136D03*
X011431Y001126D03*
X011421Y001106D03*
X011421Y001096D03*
X011411Y001066D03*
X011411Y001056D03*
X011441Y001156D03*
X011441Y001166D03*
X011451Y001186D03*
X011451Y001196D03*
X011461Y001206D03*
X011461Y001216D03*
X011471Y001226D03*
X011471Y001236D03*
X011481Y001246D03*
X011481Y001256D03*
X011491Y001266D03*
X011491Y001276D03*
X011501Y001286D03*
X011521Y001316D03*
X011811Y001186D03*
X011821Y001206D03*
X011831Y001216D03*
X011871Y001356D03*
X012081Y000856D03*
X012481Y000806D03*
X012481Y000796D03*
X012481Y000786D03*
X012481Y000776D03*
X012481Y000766D03*
X012471Y000746D03*
X012471Y000736D03*
X012471Y000726D03*
X012471Y000716D03*
X012461Y000696D03*
X012461Y000686D03*
X012461Y000676D03*
X012461Y000666D03*
X012461Y000656D03*
X012461Y000646D03*
X012461Y000636D03*
X012451Y000626D03*
X012451Y000616D03*
X012451Y000606D03*
X012451Y000596D03*
X012451Y000586D03*
X012451Y000576D03*
X012451Y000566D03*
X012451Y000556D03*
X012451Y000546D03*
X012491Y000816D03*
X012491Y000826D03*
X012491Y000836D03*
X012491Y000846D03*
X012491Y000856D03*
X012501Y000866D03*
X012501Y000876D03*
X012501Y000886D03*
X012501Y000896D03*
X012501Y000906D03*
X012511Y000916D03*
X012511Y000926D03*
X012511Y000936D03*
X012511Y000946D03*
X012521Y000966D03*
X012521Y000976D03*
X012521Y000986D03*
X012521Y000996D03*
X012531Y001006D03*
X012531Y001016D03*
X012531Y001026D03*
X012531Y001036D03*
X012531Y001046D03*
X012541Y001056D03*
X012541Y001066D03*
X012541Y001076D03*
X012541Y001086D03*
X012541Y001096D03*
X012551Y001116D03*
X012551Y001126D03*
X012551Y001136D03*
X012601Y001386D03*
X012601Y001396D03*
X012601Y001406D03*
X012611Y001426D03*
X012611Y001436D03*
X012661Y001636D03*
X012671Y001676D03*
X012671Y001686D03*
X012681Y001716D03*
X012681Y001726D03*
X013271Y001556D03*
X013281Y001596D03*
X013291Y001636D03*
X013301Y001666D03*
X013301Y001676D03*
X013311Y001696D03*
X013311Y001706D03*
X013321Y001736D03*
X013251Y001476D03*
X013191Y001226D03*
X013191Y001216D03*
X013191Y001206D03*
X013181Y001196D03*
X013181Y001186D03*
X013181Y001176D03*
X013181Y001166D03*
X013171Y001156D03*
X013171Y001146D03*
X013171Y001136D03*
X013171Y001126D03*
X013161Y001106D03*
X013161Y001096D03*
X013161Y001086D03*
X013151Y001066D03*
X013151Y001056D03*
X013151Y001046D03*
X013141Y001016D03*
X013141Y001006D03*
X013141Y000996D03*
X013131Y000956D03*
X013131Y000946D03*
X013121Y000876D03*
X013941Y001056D03*
X013941Y001066D03*
X013951Y001096D03*
X013951Y001106D03*
X013961Y001126D03*
X013961Y001136D03*
X013961Y001146D03*
X013971Y001156D03*
X013971Y001166D03*
X013981Y001186D03*
X013981Y001196D03*
X013991Y001206D03*
X013991Y001216D03*
X014001Y001226D03*
X014001Y001236D03*
X014011Y001246D03*
X014011Y001256D03*
X014021Y001266D03*
X014021Y001276D03*
X014031Y001286D03*
X014051Y001316D03*
X014341Y001186D03*
X014351Y001206D03*
X014361Y001216D03*
X014401Y001356D03*
X014611Y000856D03*
X006951Y000586D03*
X005506Y008206D03*
X005826Y008486D03*
X004926Y008236D03*
X004916Y008216D03*
X004246Y008476D03*
X004236Y008486D03*
X003006Y008486D03*
X002646Y008486D03*
X001516Y008476D03*
X001506Y008486D03*
D27*
X001526Y008366D03*
X000966Y008486D03*
X000636Y008236D03*
X000626Y008216D03*
X002246Y008406D03*
X002646Y008466D03*
X003006Y008466D03*
X003346Y008486D03*
X004256Y008366D03*
X004586Y008486D03*
X004586Y008216D03*
X005826Y008466D03*
X006166Y008486D03*
X006191Y001886D03*
X006151Y001746D03*
X006561Y000796D03*
X006551Y000786D03*
X006951Y000616D03*
X006941Y001156D03*
X007461Y001306D03*
X008071Y001316D03*
X008511Y000846D03*
X008821Y001096D03*
X008831Y001106D03*
X008841Y001116D03*
X008951Y001236D03*
X009181Y000736D03*
X010571Y001336D03*
X010691Y000926D03*
X011651Y001046D03*
X011661Y001056D03*
X011671Y001066D03*
X011701Y001086D03*
X011711Y001096D03*
X012011Y000806D03*
X012471Y000496D03*
X012481Y000486D03*
X012481Y000476D03*
X012491Y000446D03*
X012491Y000436D03*
X013681Y000736D03*
X014181Y001046D03*
X014191Y001056D03*
X014201Y001066D03*
X014231Y001086D03*
X014241Y001096D03*
X014541Y000806D03*
X006051Y000726D03*
X006051Y000716D03*
X006041Y000746D03*
X005491Y000816D03*
X005481Y000806D03*
X005501Y000916D03*
X004751Y001366D03*
X004751Y001516D03*
D28*
X004771Y001546D03*
X004771Y001336D03*
X004781Y001326D03*
X005491Y000926D03*
X006151Y001756D03*
X006151Y001766D03*
X006181Y001856D03*
X006181Y001866D03*
X006921Y001126D03*
X006931Y001136D03*
X007461Y001296D03*
X007611Y000716D03*
X007611Y000706D03*
X008071Y001296D03*
X008481Y000826D03*
X008791Y001056D03*
X008801Y001066D03*
X009161Y000716D03*
X010081Y000656D03*
X010711Y000906D03*
X011461Y000766D03*
X011761Y001516D03*
X013151Y000686D03*
X013921Y000886D03*
X013941Y000896D03*
X013961Y000906D03*
X013991Y000766D03*
X014291Y001516D03*
X006511Y000756D03*
X006501Y000746D03*
X004596Y008236D03*
X004596Y008466D03*
X004256Y008226D03*
X004256Y008216D03*
X002256Y008426D03*
X002256Y008596D03*
X001526Y008226D03*
X001526Y008216D03*
D29*
X001541Y008386D03*
X001521Y008466D03*
X002231Y008386D03*
X002231Y008376D03*
X002231Y008626D03*
X002641Y008216D03*
X003001Y008216D03*
X004251Y008466D03*
X004271Y008386D03*
X005511Y008486D03*
X005821Y008216D03*
X000651Y008616D03*
X000641Y008606D03*
X006196Y001916D03*
X006056Y001276D03*
X005566Y001626D03*
X004726Y001456D03*
X004726Y001446D03*
X004726Y001436D03*
X006626Y000856D03*
X006636Y000866D03*
X006646Y000876D03*
X006656Y000886D03*
X006966Y001186D03*
X006966Y001196D03*
X006966Y001206D03*
X006966Y001216D03*
X006966Y001226D03*
X006966Y001236D03*
X006966Y001246D03*
X006976Y001266D03*
X006976Y001276D03*
X006976Y001286D03*
X006976Y001296D03*
X006976Y001306D03*
X007276Y001096D03*
X007286Y001106D03*
X007296Y001116D03*
X007596Y000666D03*
X008176Y000836D03*
X008076Y001326D03*
X008776Y000706D03*
X008886Y000536D03*
X009256Y000826D03*
X009266Y000846D03*
X009266Y000856D03*
X009276Y000866D03*
X009276Y000876D03*
X009286Y000896D03*
X008906Y001186D03*
X010026Y001116D03*
X010026Y001106D03*
X010026Y001096D03*
X010026Y001086D03*
X010026Y001076D03*
X010026Y001066D03*
X010026Y001056D03*
X010036Y001206D03*
X010656Y000986D03*
X010656Y000976D03*
X010666Y000966D03*
X011416Y000826D03*
X011446Y001176D03*
X011506Y001296D03*
X011516Y001306D03*
X011526Y001326D03*
X011536Y001336D03*
X011546Y001346D03*
X011776Y001156D03*
X011786Y001166D03*
X011796Y001176D03*
X011866Y001366D03*
X012066Y000846D03*
X012056Y000836D03*
X012476Y000756D03*
X012466Y000706D03*
X012456Y000536D03*
X012456Y000526D03*
X012496Y000406D03*
X012546Y001106D03*
X012556Y001146D03*
X013146Y001036D03*
X013146Y001026D03*
X013136Y000986D03*
X013136Y000976D03*
X013136Y000966D03*
X013126Y000936D03*
X013126Y000926D03*
X013126Y000916D03*
X013126Y000906D03*
X013126Y000896D03*
X013126Y000886D03*
X013116Y000866D03*
X013116Y000856D03*
X013116Y000846D03*
X013116Y000836D03*
X013116Y000826D03*
X013116Y000816D03*
X013116Y000806D03*
X013116Y000796D03*
X013116Y000786D03*
X013116Y000776D03*
X013116Y000766D03*
X013156Y001076D03*
X013166Y001116D03*
X013726Y000766D03*
X013976Y001176D03*
X014036Y001296D03*
X014046Y001306D03*
X014056Y001326D03*
X014066Y001336D03*
X014076Y001346D03*
X014306Y001156D03*
X014316Y001166D03*
X014326Y001176D03*
X014396Y001366D03*
X014596Y000846D03*
X014586Y000836D03*
X013746Y001506D03*
D30*
X013666Y000726D03*
X013646Y000716D03*
X013146Y000696D03*
X012486Y000466D03*
X012486Y000456D03*
X011996Y000796D03*
X011446Y000776D03*
X010696Y000916D03*
X010566Y001326D03*
X010076Y000646D03*
X009176Y000726D03*
X008896Y000546D03*
X008496Y000836D03*
X008276Y000676D03*
X008806Y001076D03*
X008816Y001086D03*
X008966Y001246D03*
X008066Y001306D03*
X007606Y000696D03*
X006956Y000636D03*
X006956Y000626D03*
X006936Y001146D03*
X006536Y000776D03*
X006526Y000766D03*
X006056Y000706D03*
X005476Y000796D03*
X005466Y000786D03*
X004766Y001346D03*
X004756Y001356D03*
X004756Y001526D03*
X004766Y001536D03*
X005546Y001646D03*
X006186Y001876D03*
X004591Y008226D03*
X004591Y008476D03*
X004251Y008356D03*
X002251Y008416D03*
X002251Y008606D03*
X001521Y008356D03*
X014526Y000796D03*
D31*
X014506Y000786D03*
X013966Y000916D03*
X013906Y000876D03*
X013626Y000706D03*
X011976Y000786D03*
X010086Y000666D03*
X009146Y000706D03*
X008786Y001046D03*
X008066Y001286D03*
X007616Y000726D03*
X006956Y000646D03*
X006916Y001116D03*
X006486Y000736D03*
X006206Y000516D03*
X005456Y000776D03*
X005446Y000766D03*
X005476Y000936D03*
X004786Y001316D03*
X004786Y001556D03*
X006156Y001776D03*
X006156Y001786D03*
X006166Y001816D03*
X006176Y001836D03*
X006176Y001846D03*
X004251Y008236D03*
X002261Y008436D03*
X002261Y008576D03*
X002261Y008586D03*
X001521Y008236D03*
D32*
X001591Y008246D03*
X001441Y008346D03*
X001001Y008506D03*
X000901Y008456D03*
X000581Y008456D03*
X000571Y008466D03*
X002351Y008566D03*
X003281Y008456D03*
X003381Y008506D03*
X004171Y008346D03*
X004321Y008246D03*
X004881Y008386D03*
X004971Y008326D03*
X006101Y008456D03*
X006201Y008506D03*
X008076Y001366D03*
X007596Y000616D03*
X006946Y000536D03*
X004836Y000416D03*
X009506Y001076D03*
X010066Y000576D03*
X012176Y000976D03*
X012486Y000366D03*
X013786Y001526D03*
X013346Y001856D03*
X014706Y000976D03*
D33*
X005586Y008256D03*
X004986Y008456D03*
X004846Y008256D03*
X000726Y008566D03*
X000536Y008266D03*
D34*
X000536Y008276D03*
X000736Y008556D03*
X001426Y008446D03*
X004156Y008446D03*
X004996Y008446D03*
X005586Y008436D03*
X005586Y008266D03*
D35*
X004956Y008336D03*
X004616Y008506D03*
X003566Y008506D03*
X001186Y008506D03*
X000696Y008376D03*
X000596Y008446D03*
X006386Y008506D03*
X005551Y001516D03*
X008871Y000526D03*
X011631Y000566D03*
X012171Y000966D03*
X014161Y000566D03*
X014701Y000966D03*
D36*
X005581Y008446D03*
X004531Y008656D03*
X002001Y008656D03*
X001811Y008656D03*
D37*
X001431Y008456D03*
X004161Y008456D03*
X012196Y001026D03*
X014726Y001026D03*
D38*
X014271Y001436D03*
X011741Y001436D03*
X011341Y000906D03*
X010921Y000746D03*
X009141Y001336D03*
X008931Y000606D03*
X006221Y000576D03*
X005361Y001006D03*
X004941Y001216D03*
X006266Y008466D03*
X003446Y008466D03*
X001066Y008466D03*
D39*
X002216Y008636D03*
X004916Y008476D03*
X004916Y008466D03*
X004926Y008486D03*
X005571Y001606D03*
X005571Y001596D03*
X006071Y001316D03*
X006701Y000936D03*
X006711Y000946D03*
X006721Y000956D03*
X006731Y000966D03*
X006921Y000936D03*
X006921Y000926D03*
X006921Y000916D03*
X006921Y000906D03*
X006911Y000876D03*
X006911Y000866D03*
X006911Y000856D03*
X006931Y000956D03*
X006931Y000966D03*
X006931Y000976D03*
X007121Y000856D03*
X007111Y000836D03*
X007141Y000886D03*
X007151Y000906D03*
X006951Y000566D03*
X007551Y000876D03*
X007551Y000886D03*
X007551Y000896D03*
X007551Y000906D03*
X007551Y000916D03*
X007551Y000926D03*
X007551Y000936D03*
X007551Y000946D03*
X007551Y000956D03*
X007551Y000966D03*
X007551Y000976D03*
X007551Y000986D03*
X007551Y000996D03*
X007551Y001006D03*
X007551Y001016D03*
X007551Y001026D03*
X007551Y001036D03*
X007541Y001066D03*
X007541Y001076D03*
X007541Y001086D03*
X007541Y001096D03*
X007541Y001106D03*
X007541Y001116D03*
X007541Y001126D03*
X007821Y000986D03*
X007831Y001006D03*
X007841Y001016D03*
X007841Y001026D03*
X007851Y001036D03*
X007851Y001046D03*
X007861Y001056D03*
X007871Y001066D03*
X007871Y001076D03*
X007881Y001086D03*
X007811Y000966D03*
X007781Y000916D03*
X007771Y000896D03*
X007761Y000886D03*
X008141Y000966D03*
X008131Y001036D03*
X008131Y001046D03*
X008131Y001056D03*
X008131Y001066D03*
X008131Y001076D03*
X008131Y001086D03*
X008131Y001096D03*
X006981Y001346D03*
X006981Y001356D03*
X006201Y000496D03*
X009311Y000986D03*
X009311Y000996D03*
X009311Y001006D03*
X009311Y001016D03*
X009311Y001026D03*
X010011Y000886D03*
X010011Y000876D03*
X010011Y000866D03*
X010011Y000856D03*
X010011Y000846D03*
X010011Y000836D03*
X010011Y000826D03*
X010011Y000816D03*
X010011Y000806D03*
X010011Y000796D03*
X010011Y000786D03*
X010211Y000786D03*
X010221Y000806D03*
X010231Y000826D03*
X010311Y000986D03*
X010321Y001006D03*
X010331Y001026D03*
X010341Y001046D03*
X010351Y001056D03*
X010351Y001066D03*
X010361Y001076D03*
X010361Y001086D03*
X010371Y001096D03*
X010381Y001116D03*
X011851Y001246D03*
X011861Y001266D03*
X011861Y001276D03*
X011871Y001296D03*
X011871Y001306D03*
X011871Y001316D03*
X012111Y000886D03*
X012621Y001476D03*
X012631Y001516D03*
X012641Y001556D03*
X012691Y001766D03*
X012691Y001776D03*
X013331Y001776D03*
X013331Y001786D03*
X014401Y001316D03*
X014401Y001306D03*
X014401Y001296D03*
X014391Y001276D03*
X014391Y001266D03*
X014381Y001246D03*
X014641Y000886D03*
D40*
X014056Y001026D03*
X014046Y001016D03*
X013866Y000786D03*
X011526Y001026D03*
X011516Y001016D03*
X008646Y000866D03*
X005266Y000646D03*
X006261Y008476D03*
X003441Y008476D03*
X001061Y008476D03*
D41*
X004816Y001586D03*
X005456Y000956D03*
X005406Y000726D03*
X004856Y000436D03*
X006206Y000526D03*
X006886Y001056D03*
X006976Y000716D03*
X006976Y000706D03*
X007626Y000766D03*
X007626Y000776D03*
X007456Y001266D03*
X008056Y001256D03*
X008286Y000696D03*
X008736Y000976D03*
X008746Y000986D03*
X010546Y001276D03*
X010546Y001286D03*
X010746Y000886D03*
X011936Y000766D03*
X013986Y000936D03*
X014466Y000766D03*
D42*
X014176Y000606D03*
X013876Y000806D03*
X014276Y001466D03*
X011746Y001466D03*
X011446Y000956D03*
X011426Y000946D03*
X011646Y000606D03*
X009136Y001356D03*
X008926Y000586D03*
X008306Y000736D03*
X008026Y001156D03*
X007436Y001196D03*
X006216Y000556D03*
X005306Y000666D03*
X004866Y000446D03*
X004906Y001636D03*
X005296Y001836D03*
D43*
X004876Y000456D03*
X008316Y000766D03*
X009906Y001276D03*
X011536Y001036D03*
X011736Y001426D03*
X013316Y000566D03*
X014066Y001036D03*
X014266Y001426D03*
D44*
X014251Y001386D03*
X011721Y001386D03*
X011271Y000886D03*
X009491Y001106D03*
X009141Y001306D03*
X008951Y000636D03*
X008331Y000806D03*
X005321Y001026D03*
X005201Y000626D03*
X004881Y000466D03*
D45*
X004886Y000476D03*
X006236Y000636D03*
X011666Y000656D03*
X012436Y001186D03*
X013336Y000606D03*
X014196Y000656D03*
D46*
X009536Y001146D03*
X005186Y001096D03*
X005166Y001106D03*
X005146Y001116D03*
X004896Y000486D03*
D47*
X004906Y000496D03*
X006256Y000686D03*
X009556Y001176D03*
D48*
X009561Y001186D03*
X013361Y000656D03*
X004911Y000506D03*
D49*
X004916Y000516D03*
X005266Y001776D03*
X012496Y001206D03*
X013376Y000676D03*
D50*
X013476Y001436D03*
X013486Y001446D03*
X013496Y001456D03*
X004926Y000526D03*
D51*
X004936Y000536D03*
D52*
X005376Y000706D03*
X005436Y000966D03*
X004846Y001266D03*
X004846Y001606D03*
X006206Y000536D03*
X006426Y000706D03*
X006866Y001026D03*
X006876Y001036D03*
X006986Y000746D03*
X007636Y000796D03*
X007636Y000806D03*
X007446Y001246D03*
X008046Y001226D03*
X008286Y000706D03*
X008726Y000966D03*
X008906Y000566D03*
X010096Y000726D03*
X010536Y001256D03*
X013306Y000536D03*
X013886Y000836D03*
D53*
X013446Y001426D03*
X005256Y001756D03*
X004946Y000546D03*
D54*
X005341Y000686D03*
X005421Y000976D03*
X004861Y001256D03*
X004881Y001626D03*
X006211Y000546D03*
X006841Y000986D03*
X006851Y000996D03*
X007001Y000806D03*
X007001Y000796D03*
X007441Y001216D03*
X007441Y001226D03*
X007641Y000836D03*
X010521Y001206D03*
X010521Y001216D03*
X011751Y001476D03*
X013881Y000816D03*
X014281Y001476D03*
D55*
X014016Y000976D03*
X013306Y000546D03*
X010516Y001196D03*
X010106Y000776D03*
X009936Y001296D03*
X009136Y001366D03*
X008696Y000926D03*
X008686Y000916D03*
X008916Y000576D03*
X008296Y000726D03*
X008036Y001186D03*
X007646Y000856D03*
X007646Y000846D03*
X007436Y001206D03*
X007006Y000816D03*
X005326Y000676D03*
D56*
X004956Y000556D03*
X012536Y001216D03*
D57*
X013891Y000846D03*
X010911Y000716D03*
X010551Y001296D03*
X010091Y000696D03*
X009121Y000696D03*
X008901Y000556D03*
X008751Y000996D03*
X007621Y000756D03*
X007451Y001276D03*
X006901Y001086D03*
X006891Y001066D03*
X006971Y000696D03*
X006451Y000716D03*
X005411Y000736D03*
X004821Y001286D03*
D58*
X005286Y000656D03*
X006216Y000566D03*
X007426Y001166D03*
X008306Y000746D03*
X008666Y000886D03*
X009926Y001286D03*
X010506Y001146D03*
X011386Y000926D03*
X011506Y001006D03*
X011746Y001456D03*
X013316Y000556D03*
X014036Y001006D03*
X014276Y001456D03*
D59*
X013411Y001416D03*
X005251Y001746D03*
X004971Y000566D03*
D60*
X004976Y000576D03*
D61*
X004971Y001656D03*
X009141Y001316D03*
X010931Y000756D03*
X011731Y001406D03*
X012421Y001166D03*
X013321Y000576D03*
X014261Y001406D03*
D62*
X004996Y000596D03*
X004986Y000586D03*
D63*
X005241Y000636D03*
X004961Y001206D03*
X005291Y001826D03*
X006221Y000586D03*
X008321Y000776D03*
X008941Y000616D03*
X009471Y001096D03*
X009141Y001326D03*
X011731Y001416D03*
X012431Y001156D03*
X011651Y000626D03*
X014181Y000626D03*
X014261Y001416D03*
D64*
X014286Y001506D03*
X013976Y000926D03*
X013896Y000856D03*
X013606Y000696D03*
X014166Y000586D03*
X011756Y001506D03*
X011636Y000586D03*
X010556Y001306D03*
X010086Y000686D03*
X010086Y000676D03*
X009136Y001396D03*
X008766Y001016D03*
X008756Y001006D03*
X008056Y001266D03*
X007456Y001286D03*
X007616Y000746D03*
X007616Y000736D03*
X006966Y000686D03*
X006966Y000676D03*
X006896Y001076D03*
X006906Y001096D03*
X005466Y000946D03*
X005426Y000746D03*
X004806Y001296D03*
X004796Y001306D03*
X004806Y001576D03*
X005296Y001846D03*
X005526Y001656D03*
D65*
X005286Y001816D03*
X005006Y001186D03*
X010936Y000766D03*
X011716Y001376D03*
X013326Y000586D03*
X014246Y001376D03*
D66*
X013866Y000776D03*
X011306Y000896D03*
X008326Y000786D03*
X006226Y000596D03*
X005336Y001016D03*
D67*
X005381Y000996D03*
X004921Y001226D03*
X004931Y001646D03*
X007421Y001156D03*
X007421Y001146D03*
X008311Y000756D03*
X008651Y000876D03*
X008931Y000596D03*
X009141Y001346D03*
X011361Y000916D03*
X011651Y000616D03*
X011741Y001446D03*
X013651Y001476D03*
X014271Y001446D03*
X014181Y000616D03*
D68*
X014171Y000596D03*
X013881Y000826D03*
X014001Y000956D03*
X013571Y000686D03*
X011641Y000596D03*
X010531Y001236D03*
X010531Y001246D03*
X010101Y000746D03*
X010101Y000736D03*
X008721Y000956D03*
X008711Y000946D03*
X008041Y001216D03*
X007641Y000816D03*
X006991Y000766D03*
X006991Y000756D03*
X006861Y001016D03*
X005361Y000696D03*
X004861Y001616D03*
D69*
X005026Y001176D03*
X006236Y000626D03*
X009506Y001116D03*
X009866Y001266D03*
X013336Y000596D03*
D70*
X013376Y001406D03*
X005006Y000606D03*
D71*
X004986Y001196D03*
X006226Y000606D03*
X008326Y000796D03*
X008946Y000626D03*
X011656Y000636D03*
X011726Y001396D03*
X012416Y001176D03*
X014186Y000636D03*
X014256Y001396D03*
D72*
X005011Y000616D03*
D73*
X005301Y001036D03*
X006231Y000616D03*
X008341Y000816D03*
X008951Y000646D03*
X009141Y001296D03*
X011661Y000646D03*
X014191Y000646D03*
D74*
X014201Y000666D03*
X013341Y000616D03*
X011671Y000666D03*
X008971Y000686D03*
X006241Y000656D03*
X005221Y001076D03*
X005201Y001086D03*
X005131Y001126D03*
X005111Y001136D03*
X005091Y001146D03*
D75*
X006251Y000666D03*
X010951Y000796D03*
X011671Y000676D03*
X013351Y000626D03*
X014201Y000676D03*
D76*
X014211Y000686D03*
X013351Y000636D03*
X011681Y000686D03*
X010951Y000806D03*
X009551Y001166D03*
D77*
X009521Y001126D03*
X009141Y001276D03*
X008961Y000666D03*
X006241Y000646D03*
X005241Y001066D03*
X005071Y001156D03*
X005281Y001806D03*
D78*
X005271Y001786D03*
X006261Y000696D03*
X011681Y000696D03*
X013361Y000646D03*
X014211Y000696D03*
D79*
X010941Y000776D03*
X009141Y001286D03*
X008961Y000656D03*
X005281Y001046D03*
X005261Y001056D03*
X005051Y001166D03*
D80*
X009561Y001196D03*
X011691Y000716D03*
X013371Y000666D03*
X014221Y000716D03*
D81*
X012466Y001196D03*
X009546Y001156D03*
X006256Y000676D03*
X005276Y001796D03*
D82*
X008966Y000676D03*
X009146Y001266D03*
X009526Y001136D03*
X010946Y000786D03*
D83*
X010541Y001266D03*
X009951Y001306D03*
X010091Y000716D03*
X010091Y000706D03*
X009141Y001386D03*
X008051Y001246D03*
X008051Y001236D03*
X007451Y001256D03*
X007631Y000786D03*
X006981Y000736D03*
X006981Y000726D03*
X006881Y001046D03*
X005391Y000716D03*
X004831Y001276D03*
X004831Y001596D03*
X011761Y001496D03*
X013991Y000946D03*
X014291Y001496D03*
D84*
X014216Y000706D03*
X011686Y000706D03*
X010956Y000826D03*
D85*
X010916Y000726D03*
X010526Y001226D03*
X010106Y000766D03*
X010106Y000756D03*
X009136Y001376D03*
X008706Y000936D03*
X008296Y000716D03*
X008036Y001196D03*
X008036Y001206D03*
X007636Y000826D03*
X007446Y001236D03*
X006856Y001006D03*
X006996Y000786D03*
X006996Y000776D03*
X011756Y001486D03*
X011906Y000756D03*
X013686Y001486D03*
X014286Y001486D03*
X014006Y000966D03*
X014436Y000756D03*
D86*
X014221Y000726D03*
X013501Y001466D03*
X011691Y000726D03*
X009561Y001206D03*
D87*
X008671Y000896D03*
X008021Y001146D03*
X007431Y001176D03*
X007431Y001186D03*
X004901Y001236D03*
X010511Y001166D03*
X010511Y001156D03*
X010921Y000736D03*
X011411Y000936D03*
X011501Y000996D03*
X013871Y000796D03*
X014031Y000996D03*
D88*
X014231Y000736D03*
X011701Y000736D03*
X005261Y001766D03*
D89*
X011701Y000746D03*
X014231Y000746D03*
D90*
X010956Y000816D03*
D91*
X011061Y000846D03*
X011071Y000836D03*
X005221Y001686D03*
D92*
X011056Y000866D03*
X011056Y000856D03*
D93*
X011461Y000966D03*
X011481Y000976D03*
X011491Y000986D03*
X010511Y001176D03*
X010511Y001186D03*
X008681Y000906D03*
X008031Y001166D03*
X008031Y001176D03*
X007651Y000866D03*
X005401Y000986D03*
X004881Y001246D03*
X014021Y000986D03*
D94*
X011051Y000876D03*
X005211Y001676D03*
D95*
X009671Y001216D03*
D96*
X009666Y001226D03*
D97*
X012581Y001226D03*
D98*
X009656Y001236D03*
D99*
X012716Y001246D03*
X012716Y001236D03*
D100*
X009646Y001246D03*
D101*
X009496Y001256D03*
X012796Y001306D03*
D102*
X012721Y001266D03*
X012721Y001256D03*
D103*
X012726Y001276D03*
D104*
X012741Y001286D03*
X013091Y001366D03*
D105*
X012766Y001296D03*
D106*
X012821Y001316D03*
D107*
X012856Y001326D03*
D108*
X012891Y001336D03*
D109*
X012926Y001346D03*
D110*
X013021Y001356D03*
D111*
X013106Y001376D03*
D112*
X013271Y001386D03*
D113*
X013331Y001396D03*
X005221Y001696D03*
D114*
X005206Y001666D03*
D115*
X005226Y001706D03*
D116*
X005236Y001716D03*
D117*
X005241Y001726D03*
D118*
X005241Y001736D03*
D119*
X000131Y001111D02*
X000131Y018111D01*
X000133Y018171D01*
X000138Y018232D01*
X000147Y018291D01*
X000160Y018350D01*
X000176Y018409D01*
X000196Y018466D01*
X000219Y018521D01*
X000246Y018576D01*
X000275Y018628D01*
X000308Y018679D01*
X000344Y018728D01*
X000382Y018774D01*
X000424Y018818D01*
X000468Y018860D01*
X000514Y018898D01*
X000563Y018934D01*
X000614Y018967D01*
X000666Y018996D01*
X000721Y019023D01*
X000776Y019046D01*
X000833Y019066D01*
X000892Y019082D01*
X000951Y019095D01*
X001010Y019104D01*
X001071Y019109D01*
X001131Y019111D01*
X018131Y019111D01*
X018191Y019109D01*
X018252Y019104D01*
X018311Y019095D01*
X018370Y019082D01*
X018429Y019066D01*
X018486Y019046D01*
X018541Y019023D01*
X018596Y018996D01*
X018648Y018967D01*
X018699Y018934D01*
X018748Y018898D01*
X018794Y018860D01*
X018838Y018818D01*
X018880Y018774D01*
X018918Y018728D01*
X018954Y018679D01*
X018987Y018628D01*
X019016Y018576D01*
X019043Y018521D01*
X019066Y018466D01*
X019086Y018409D01*
X019102Y018350D01*
X019115Y018291D01*
X019124Y018232D01*
X019129Y018171D01*
X019131Y018111D01*
X019131Y001111D01*
X019129Y001051D01*
X019124Y000990D01*
X019115Y000931D01*
X019102Y000872D01*
X019086Y000813D01*
X019066Y000756D01*
X019043Y000701D01*
X019016Y000646D01*
X018987Y000594D01*
X018954Y000543D01*
X018918Y000494D01*
X018880Y000448D01*
X018838Y000404D01*
X018794Y000362D01*
X018748Y000324D01*
X018699Y000288D01*
X018648Y000255D01*
X018596Y000226D01*
X018541Y000199D01*
X018486Y000176D01*
X018429Y000156D01*
X018370Y000140D01*
X018311Y000127D01*
X018252Y000118D01*
X018191Y000113D01*
X018131Y000111D01*
X001131Y000111D01*
X001071Y000113D01*
X001010Y000118D01*
X000951Y000127D01*
X000892Y000140D01*
X000833Y000156D01*
X000776Y000176D01*
X000721Y000199D01*
X000666Y000226D01*
X000614Y000255D01*
X000563Y000288D01*
X000514Y000324D01*
X000468Y000362D01*
X000424Y000404D01*
X000382Y000448D01*
X000344Y000494D01*
X000308Y000543D01*
X000275Y000594D01*
X000246Y000646D01*
X000219Y000701D01*
X000196Y000756D01*
X000176Y000813D01*
X000160Y000872D01*
X000147Y000931D01*
X000138Y000990D01*
X000133Y001051D01*
X000131Y001111D01*
X003101Y007893D02*
X003155Y007821D01*
X003154Y007822D02*
X003101Y007779D01*
X003050Y007734D01*
X003002Y007685D01*
X002957Y007634D01*
X002914Y007580D01*
X002875Y007524D01*
X002839Y007466D01*
X002806Y007406D01*
X002777Y007345D01*
X002752Y007281D01*
X002730Y007217D01*
X002711Y007151D01*
X002697Y007084D01*
X002686Y007017D01*
X002679Y006949D01*
X002676Y006881D01*
X002677Y006812D01*
X002682Y006744D01*
X002690Y006676D01*
X002703Y006609D01*
X002719Y006543D01*
X002739Y006478D01*
X002762Y006413D01*
X002789Y006351D01*
X002820Y006290D01*
X002854Y006231D01*
X002891Y006173D01*
X002932Y006118D01*
X002976Y006066D01*
X003022Y006016D01*
X003071Y005969D01*
X003123Y005924D01*
X003177Y005883D01*
X003234Y005844D01*
X003293Y005809D01*
X003353Y005778D01*
X003415Y005750D01*
X003479Y005725D01*
X003544Y005704D01*
X003610Y005687D01*
X003677Y005673D01*
X003745Y005664D01*
X003813Y005658D01*
X003881Y005656D01*
X003949Y005658D01*
X004017Y005664D01*
X004085Y005673D01*
X004152Y005687D01*
X004218Y005704D01*
X004283Y005725D01*
X004347Y005750D01*
X004409Y005778D01*
X004469Y005809D01*
X004528Y005844D01*
X004585Y005883D01*
X004639Y005924D01*
X004691Y005969D01*
X004740Y006016D01*
X004786Y006066D01*
X004830Y006118D01*
X004871Y006173D01*
X004908Y006231D01*
X004942Y006290D01*
X004973Y006351D01*
X005000Y006413D01*
X005023Y006478D01*
X005043Y006543D01*
X005059Y006609D01*
X005072Y006676D01*
X005080Y006744D01*
X005085Y006812D01*
X005086Y006881D01*
X005083Y006949D01*
X005076Y007017D01*
X005065Y007084D01*
X005051Y007151D01*
X005032Y007217D01*
X005010Y007281D01*
X004985Y007345D01*
X004956Y007406D01*
X004923Y007466D01*
X004887Y007524D01*
X004848Y007580D01*
X004805Y007634D01*
X004760Y007685D01*
X004712Y007734D01*
X004661Y007779D01*
X004608Y007822D01*
X004661Y007893D01*
X004662Y007894D01*
X004717Y007850D01*
X004770Y007802D01*
X004821Y007752D01*
X004868Y007699D01*
X004912Y007644D01*
X004954Y007586D01*
X004992Y007526D01*
X005027Y007465D01*
X005058Y007401D01*
X005086Y007336D01*
X005110Y007269D01*
X005131Y007201D01*
X005147Y007132D01*
X005160Y007062D01*
X005169Y006992D01*
X005175Y006921D01*
X005176Y006850D01*
X005173Y006779D01*
X005167Y006708D01*
X005157Y006638D01*
X005143Y006569D01*
X005125Y006500D01*
X005103Y006432D01*
X005078Y006366D01*
X005049Y006301D01*
X005016Y006238D01*
X004980Y006177D01*
X004941Y006118D01*
X004899Y006061D01*
X004854Y006006D01*
X004805Y005954D01*
X004754Y005905D01*
X004701Y005858D01*
X004644Y005815D01*
X004586Y005775D01*
X004525Y005738D01*
X004463Y005704D01*
X004399Y005674D01*
X004333Y005647D01*
X004266Y005624D01*
X004197Y005605D01*
X004128Y005590D01*
X004058Y005578D01*
X003987Y005570D01*
X003916Y005566D01*
X003846Y005566D01*
X003775Y005570D01*
X003704Y005578D01*
X003634Y005590D01*
X003565Y005605D01*
X003496Y005624D01*
X003429Y005647D01*
X003363Y005674D01*
X003299Y005704D01*
X003237Y005738D01*
X003176Y005775D01*
X003118Y005815D01*
X003061Y005858D01*
X003008Y005905D01*
X002957Y005954D01*
X002908Y006006D01*
X002863Y006061D01*
X002821Y006118D01*
X002782Y006177D01*
X002746Y006238D01*
X002713Y006301D01*
X002684Y006366D01*
X002659Y006432D01*
X002637Y006500D01*
X002619Y006569D01*
X002605Y006638D01*
X002595Y006708D01*
X002589Y006779D01*
X002586Y006850D01*
X002587Y006921D01*
X002593Y006992D01*
X002602Y007062D01*
X002615Y007132D01*
X002631Y007201D01*
X002652Y007269D01*
X002676Y007336D01*
X002704Y007401D01*
X002735Y007465D01*
X002770Y007526D01*
X002808Y007586D01*
X002850Y007644D01*
X002894Y007699D01*
X002941Y007752D01*
X002992Y007802D01*
X003045Y007850D01*
X003100Y007894D01*
X003105Y007887D01*
X003050Y007842D01*
X002997Y007795D01*
X002946Y007744D01*
X002899Y007691D01*
X002854Y007635D01*
X002813Y007577D01*
X002775Y007517D01*
X002740Y007455D01*
X002709Y007391D01*
X002682Y007325D01*
X002658Y007258D01*
X002638Y007189D01*
X002621Y007120D01*
X002609Y007050D01*
X002600Y006979D01*
X002596Y006908D01*
X002595Y006837D01*
X002599Y006766D01*
X002606Y006695D01*
X002617Y006624D01*
X002632Y006555D01*
X002651Y006486D01*
X002674Y006418D01*
X002700Y006352D01*
X002730Y006287D01*
X002764Y006225D01*
X002800Y006164D01*
X002841Y006105D01*
X002884Y006048D01*
X002931Y005994D01*
X002980Y005943D01*
X003033Y005895D01*
X003087Y005849D01*
X003145Y005807D01*
X003204Y005768D01*
X003266Y005732D01*
X003329Y005699D01*
X003394Y005671D01*
X003461Y005645D01*
X003529Y005624D01*
X003598Y005606D01*
X003668Y005593D01*
X003739Y005583D01*
X003810Y005577D01*
X003881Y005575D01*
X003952Y005577D01*
X004023Y005583D01*
X004094Y005593D01*
X004164Y005606D01*
X004233Y005624D01*
X004301Y005645D01*
X004368Y005671D01*
X004433Y005699D01*
X004496Y005732D01*
X004558Y005768D01*
X004617Y005807D01*
X004675Y005849D01*
X004729Y005895D01*
X004782Y005943D01*
X004831Y005994D01*
X004878Y006048D01*
X004921Y006105D01*
X004962Y006164D01*
X004998Y006225D01*
X005032Y006287D01*
X005062Y006352D01*
X005088Y006418D01*
X005111Y006486D01*
X005130Y006555D01*
X005145Y006624D01*
X005156Y006695D01*
X005163Y006766D01*
X005167Y006837D01*
X005166Y006908D01*
X005162Y006979D01*
X005153Y007050D01*
X005141Y007120D01*
X005124Y007189D01*
X005104Y007258D01*
X005080Y007325D01*
X005053Y007391D01*
X005022Y007455D01*
X004987Y007517D01*
X004949Y007577D01*
X004908Y007635D01*
X004863Y007691D01*
X004816Y007744D01*
X004765Y007795D01*
X004712Y007842D01*
X004657Y007887D01*
X004651Y007880D01*
X004706Y007835D01*
X004759Y007788D01*
X004809Y007738D01*
X004856Y007685D01*
X004900Y007630D01*
X004942Y007572D01*
X004979Y007513D01*
X005014Y007451D01*
X005045Y007387D01*
X005072Y007322D01*
X005096Y007255D01*
X005116Y007187D01*
X005132Y007118D01*
X005144Y007049D01*
X005153Y006978D01*
X005157Y006908D01*
X005158Y006837D01*
X005154Y006766D01*
X005147Y006696D01*
X005136Y006626D01*
X005121Y006557D01*
X005102Y006489D01*
X005080Y006421D01*
X005054Y006356D01*
X005024Y006291D01*
X004991Y006229D01*
X004954Y006169D01*
X004914Y006110D01*
X004871Y006054D01*
X004825Y006000D01*
X004775Y005950D01*
X004724Y005901D01*
X004669Y005856D01*
X004612Y005814D01*
X004553Y005775D01*
X004492Y005740D01*
X004429Y005707D01*
X004364Y005679D01*
X004298Y005654D01*
X004230Y005633D01*
X004162Y005615D01*
X004092Y005602D01*
X004022Y005592D01*
X003952Y005586D01*
X003881Y005584D01*
X003810Y005586D01*
X003740Y005592D01*
X003670Y005602D01*
X003600Y005615D01*
X003532Y005633D01*
X003464Y005654D01*
X003398Y005679D01*
X003333Y005707D01*
X003270Y005740D01*
X003209Y005775D01*
X003150Y005814D01*
X003093Y005856D01*
X003038Y005901D01*
X002987Y005950D01*
X002937Y006000D01*
X002891Y006054D01*
X002848Y006110D01*
X002808Y006169D01*
X002771Y006229D01*
X002738Y006291D01*
X002708Y006356D01*
X002682Y006421D01*
X002660Y006489D01*
X002641Y006557D01*
X002626Y006626D01*
X002615Y006696D01*
X002608Y006766D01*
X002604Y006837D01*
X002605Y006908D01*
X002609Y006978D01*
X002618Y007049D01*
X002630Y007118D01*
X002646Y007187D01*
X002666Y007255D01*
X002690Y007322D01*
X002717Y007387D01*
X002748Y007451D01*
X002783Y007513D01*
X002820Y007572D01*
X002862Y007630D01*
X002906Y007685D01*
X002953Y007738D01*
X003003Y007788D01*
X003056Y007835D01*
X003111Y007880D01*
X003116Y007872D01*
X003061Y007828D01*
X003008Y007780D01*
X002958Y007730D01*
X002910Y007677D01*
X002866Y007621D01*
X002825Y007563D01*
X002788Y007503D01*
X002753Y007441D01*
X002723Y007377D01*
X002696Y007311D01*
X002672Y007244D01*
X002653Y007176D01*
X002637Y007106D01*
X002625Y007036D01*
X002617Y006966D01*
X002613Y006895D01*
X002614Y006824D01*
X002618Y006753D01*
X002626Y006682D01*
X002638Y006612D01*
X002654Y006543D01*
X002673Y006475D01*
X002697Y006407D01*
X002724Y006342D01*
X002755Y006278D01*
X002789Y006216D01*
X002827Y006156D01*
X002869Y006098D01*
X002913Y006042D01*
X002960Y005989D01*
X003011Y005939D01*
X003064Y005892D01*
X003119Y005847D01*
X003177Y005806D01*
X003237Y005769D01*
X003300Y005734D01*
X003364Y005703D01*
X003429Y005676D01*
X003496Y005653D01*
X003565Y005633D01*
X003634Y005617D01*
X003704Y005605D01*
X003775Y005597D01*
X003845Y005593D01*
X003917Y005593D01*
X003987Y005597D01*
X004058Y005605D01*
X004128Y005617D01*
X004197Y005633D01*
X004266Y005653D01*
X004333Y005676D01*
X004398Y005703D01*
X004462Y005734D01*
X004525Y005769D01*
X004585Y005806D01*
X004643Y005847D01*
X004698Y005892D01*
X004751Y005939D01*
X004802Y005989D01*
X004849Y006042D01*
X004893Y006098D01*
X004935Y006156D01*
X004973Y006216D01*
X005007Y006278D01*
X005038Y006342D01*
X005065Y006407D01*
X005089Y006475D01*
X005108Y006543D01*
X005124Y006612D01*
X005136Y006682D01*
X005144Y006753D01*
X005148Y006824D01*
X005149Y006895D01*
X005145Y006966D01*
X005137Y007036D01*
X005125Y007106D01*
X005109Y007176D01*
X005090Y007244D01*
X005066Y007311D01*
X005039Y007377D01*
X005009Y007441D01*
X004974Y007503D01*
X004937Y007563D01*
X004896Y007621D01*
X004852Y007677D01*
X004804Y007730D01*
X004754Y007780D01*
X004701Y007828D01*
X004646Y007872D01*
X004640Y007865D01*
X004695Y007821D01*
X004748Y007774D01*
X004798Y007724D01*
X004845Y007671D01*
X004889Y007616D01*
X004929Y007558D01*
X004967Y007499D01*
X005001Y007437D01*
X005031Y007373D01*
X005058Y007308D01*
X005081Y007241D01*
X005101Y007173D01*
X005116Y007105D01*
X005128Y007035D01*
X005136Y006965D01*
X005140Y006894D01*
X005139Y006824D01*
X005135Y006753D01*
X005127Y006683D01*
X005115Y006614D01*
X005100Y006545D01*
X005080Y006477D01*
X005057Y006411D01*
X005030Y006346D01*
X004999Y006282D01*
X004965Y006220D01*
X004927Y006161D01*
X004886Y006103D01*
X004842Y006048D01*
X004795Y005995D01*
X004745Y005946D01*
X004693Y005899D01*
X004637Y005855D01*
X004580Y005814D01*
X004520Y005776D01*
X004458Y005742D01*
X004395Y005712D01*
X004330Y005685D01*
X004263Y005661D01*
X004195Y005642D01*
X004126Y005626D01*
X004057Y005614D01*
X003987Y005606D01*
X003916Y005602D01*
X003846Y005602D01*
X003775Y005606D01*
X003705Y005614D01*
X003636Y005626D01*
X003567Y005642D01*
X003499Y005661D01*
X003432Y005685D01*
X003367Y005712D01*
X003304Y005742D01*
X003242Y005776D01*
X003182Y005814D01*
X003125Y005855D01*
X003069Y005899D01*
X003017Y005946D01*
X002967Y005995D01*
X002920Y006048D01*
X002876Y006103D01*
X002835Y006161D01*
X002797Y006220D01*
X002763Y006282D01*
X002732Y006346D01*
X002705Y006411D01*
X002682Y006477D01*
X002662Y006545D01*
X002647Y006614D01*
X002635Y006683D01*
X002627Y006753D01*
X002623Y006824D01*
X002622Y006894D01*
X002626Y006965D01*
X002634Y007035D01*
X002646Y007105D01*
X002661Y007173D01*
X002681Y007241D01*
X002704Y007308D01*
X002731Y007373D01*
X002761Y007437D01*
X002795Y007499D01*
X002833Y007558D01*
X002873Y007616D01*
X002917Y007671D01*
X002964Y007724D01*
X003014Y007774D01*
X003067Y007821D01*
X003122Y007865D01*
X003127Y007858D01*
X003072Y007814D01*
X003020Y007767D01*
X002971Y007718D01*
X002924Y007665D01*
X002881Y007611D01*
X002840Y007553D01*
X002803Y007494D01*
X002769Y007433D01*
X002739Y007369D01*
X002712Y007305D01*
X002689Y007238D01*
X002670Y007171D01*
X002655Y007103D01*
X002643Y007034D01*
X002635Y006964D01*
X002631Y006894D01*
X002632Y006824D01*
X002636Y006754D01*
X002644Y006685D01*
X002655Y006616D01*
X002671Y006547D01*
X002690Y006480D01*
X002714Y006414D01*
X002741Y006349D01*
X002771Y006286D01*
X002805Y006225D01*
X002842Y006166D01*
X002883Y006108D01*
X002927Y006054D01*
X002973Y006002D01*
X003023Y005952D01*
X003075Y005905D01*
X003130Y005862D01*
X003187Y005821D01*
X003246Y005784D01*
X003308Y005750D01*
X003371Y005720D01*
X003436Y005693D01*
X003502Y005670D01*
X003569Y005651D01*
X003637Y005635D01*
X003706Y005623D01*
X003776Y005615D01*
X003846Y005611D01*
X003916Y005611D01*
X003986Y005615D01*
X004056Y005623D01*
X004125Y005635D01*
X004193Y005651D01*
X004260Y005670D01*
X004326Y005693D01*
X004391Y005720D01*
X004454Y005750D01*
X004516Y005784D01*
X004575Y005821D01*
X004632Y005862D01*
X004687Y005905D01*
X004739Y005952D01*
X004789Y006002D01*
X004835Y006054D01*
X004879Y006108D01*
X004920Y006166D01*
X004957Y006225D01*
X004991Y006286D01*
X005021Y006349D01*
X005048Y006414D01*
X005072Y006480D01*
X005091Y006547D01*
X005107Y006616D01*
X005118Y006685D01*
X005126Y006754D01*
X005130Y006824D01*
X005131Y006894D01*
X005127Y006964D01*
X005119Y007034D01*
X005107Y007103D01*
X005092Y007171D01*
X005073Y007238D01*
X005050Y007305D01*
X005023Y007369D01*
X004993Y007433D01*
X004959Y007494D01*
X004922Y007553D01*
X004881Y007611D01*
X004838Y007665D01*
X004791Y007718D01*
X004742Y007767D01*
X004690Y007814D01*
X004635Y007858D01*
X004630Y007851D01*
X004684Y007807D01*
X004736Y007761D01*
X004785Y007712D01*
X004831Y007660D01*
X004874Y007605D01*
X004914Y007548D01*
X004951Y007489D01*
X004985Y007428D01*
X005015Y007366D01*
X005041Y007301D01*
X005064Y007236D01*
X005083Y007169D01*
X005099Y007101D01*
X005110Y007032D01*
X005118Y006963D01*
X005122Y006894D01*
X005121Y006824D01*
X005117Y006755D01*
X005110Y006686D01*
X005098Y006617D01*
X005082Y006550D01*
X005063Y006483D01*
X005040Y006417D01*
X005013Y006353D01*
X004983Y006290D01*
X004949Y006229D01*
X004912Y006171D01*
X004872Y006114D01*
X004829Y006060D01*
X004782Y006008D01*
X004733Y005959D01*
X004681Y005912D01*
X004627Y005869D01*
X004570Y005829D01*
X004511Y005792D01*
X004450Y005758D01*
X004387Y005728D01*
X004323Y005701D01*
X004258Y005678D01*
X004191Y005659D01*
X004123Y005644D01*
X004054Y005632D01*
X003985Y005624D01*
X003916Y005620D01*
X003846Y005620D01*
X003777Y005624D01*
X003708Y005632D01*
X003639Y005644D01*
X003571Y005659D01*
X003504Y005678D01*
X003439Y005701D01*
X003375Y005728D01*
X003312Y005758D01*
X003251Y005792D01*
X003192Y005829D01*
X003135Y005869D01*
X003081Y005912D01*
X003029Y005959D01*
X002980Y006008D01*
X002933Y006060D01*
X002890Y006114D01*
X002850Y006171D01*
X002813Y006229D01*
X002779Y006290D01*
X002749Y006353D01*
X002722Y006417D01*
X002699Y006483D01*
X002680Y006550D01*
X002664Y006617D01*
X002652Y006686D01*
X002645Y006755D01*
X002641Y006824D01*
X002640Y006894D01*
X002644Y006963D01*
X002652Y007032D01*
X002663Y007101D01*
X002679Y007169D01*
X002698Y007236D01*
X002721Y007301D01*
X002747Y007366D01*
X002777Y007428D01*
X002811Y007489D01*
X002848Y007548D01*
X002888Y007605D01*
X002931Y007660D01*
X002977Y007712D01*
X003026Y007761D01*
X003078Y007807D01*
X003132Y007851D01*
X003138Y007844D01*
X003084Y007800D01*
X003033Y007754D01*
X002984Y007705D01*
X002938Y007654D01*
X002895Y007600D01*
X002855Y007543D01*
X002819Y007485D01*
X002785Y007424D01*
X002755Y007362D01*
X002729Y007298D01*
X002707Y007233D01*
X002688Y007167D01*
X002672Y007099D01*
X002661Y007031D01*
X002653Y006963D01*
X002649Y006894D01*
X002650Y006825D01*
X002654Y006756D01*
X002661Y006687D01*
X002673Y006619D01*
X002688Y006552D01*
X002708Y006485D01*
X002731Y006420D01*
X002757Y006357D01*
X002787Y006294D01*
X002820Y006234D01*
X002857Y006176D01*
X002897Y006119D01*
X002940Y006065D01*
X002986Y006014D01*
X003035Y005965D01*
X003087Y005919D01*
X003141Y005876D01*
X003197Y005836D01*
X003256Y005800D01*
X003316Y005766D01*
X003378Y005736D01*
X003442Y005710D01*
X003507Y005687D01*
X003574Y005668D01*
X003641Y005653D01*
X003709Y005641D01*
X003778Y005633D01*
X003846Y005629D01*
X003916Y005629D01*
X003984Y005633D01*
X004053Y005641D01*
X004121Y005653D01*
X004188Y005668D01*
X004255Y005687D01*
X004320Y005710D01*
X004384Y005736D01*
X004446Y005766D01*
X004506Y005800D01*
X004565Y005836D01*
X004621Y005876D01*
X004675Y005919D01*
X004727Y005965D01*
X004776Y006014D01*
X004822Y006065D01*
X004865Y006119D01*
X004905Y006176D01*
X004942Y006234D01*
X004975Y006294D01*
X005005Y006357D01*
X005031Y006420D01*
X005054Y006485D01*
X005074Y006552D01*
X005089Y006619D01*
X005101Y006687D01*
X005108Y006756D01*
X005112Y006825D01*
X005113Y006894D01*
X005109Y006963D01*
X005101Y007031D01*
X005090Y007099D01*
X005074Y007167D01*
X005055Y007233D01*
X005033Y007298D01*
X005007Y007362D01*
X004977Y007424D01*
X004943Y007485D01*
X004907Y007543D01*
X004867Y007600D01*
X004824Y007654D01*
X004778Y007705D01*
X004729Y007754D01*
X004678Y007800D01*
X004624Y007844D01*
X004619Y007836D01*
X004673Y007793D01*
X004724Y007747D01*
X004773Y007697D01*
X004819Y007646D01*
X004862Y007591D01*
X004902Y007534D01*
X004938Y007476D01*
X004972Y007415D01*
X005001Y007352D01*
X005027Y007288D01*
X005049Y007222D01*
X005068Y007155D01*
X005083Y007088D01*
X005094Y007019D01*
X005101Y006950D01*
X005104Y006881D01*
X005103Y006812D01*
X005098Y006742D01*
X005090Y006674D01*
X005077Y006606D01*
X005061Y006538D01*
X005040Y006472D01*
X005017Y006407D01*
X004989Y006343D01*
X004958Y006281D01*
X004923Y006221D01*
X004885Y006163D01*
X004844Y006107D01*
X004800Y006054D01*
X004753Y006003D01*
X004703Y005955D01*
X004650Y005910D01*
X004595Y005868D01*
X004538Y005829D01*
X004478Y005794D01*
X004417Y005762D01*
X004354Y005733D01*
X004289Y005708D01*
X004223Y005687D01*
X004156Y005669D01*
X004088Y005656D01*
X004019Y005646D01*
X003950Y005640D01*
X003881Y005638D01*
X003812Y005640D01*
X003743Y005646D01*
X003674Y005656D01*
X003606Y005669D01*
X003539Y005687D01*
X003473Y005708D01*
X003408Y005733D01*
X003345Y005762D01*
X003284Y005794D01*
X003224Y005829D01*
X003167Y005868D01*
X003112Y005910D01*
X003059Y005955D01*
X003009Y006003D01*
X002962Y006054D01*
X002918Y006107D01*
X002877Y006163D01*
X002839Y006221D01*
X002804Y006281D01*
X002773Y006343D01*
X002745Y006407D01*
X002722Y006472D01*
X002701Y006538D01*
X002685Y006606D01*
X002672Y006674D01*
X002664Y006742D01*
X002659Y006812D01*
X002658Y006881D01*
X002661Y006950D01*
X002668Y007019D01*
X002679Y007088D01*
X002694Y007155D01*
X002713Y007222D01*
X002735Y007288D01*
X002761Y007352D01*
X002790Y007415D01*
X002824Y007476D01*
X002860Y007534D01*
X002900Y007591D01*
X002943Y007646D01*
X002989Y007697D01*
X003038Y007747D01*
X003089Y007793D01*
X003143Y007836D01*
X003149Y007829D01*
X003095Y007786D01*
X003044Y007740D01*
X002995Y007691D01*
X002950Y007640D01*
X002907Y007586D01*
X002868Y007529D01*
X002831Y007471D01*
X002798Y007411D01*
X002769Y007348D01*
X002743Y007285D01*
X002721Y007219D01*
X002703Y007153D01*
X002688Y007086D01*
X002677Y007018D01*
X002670Y006949D01*
X002667Y006881D01*
X002668Y006812D01*
X002673Y006743D01*
X002681Y006675D01*
X002694Y006607D01*
X002710Y006541D01*
X002730Y006475D01*
X002754Y006410D01*
X002781Y006347D01*
X002812Y006286D01*
X002846Y006226D01*
X002884Y006168D01*
X002925Y006113D01*
X002969Y006060D01*
X003016Y006010D01*
X003065Y005962D01*
X003117Y005917D01*
X003172Y005875D01*
X003229Y005837D01*
X003288Y005802D01*
X003349Y005770D01*
X003412Y005741D01*
X003476Y005717D01*
X003542Y005695D01*
X003608Y005678D01*
X003676Y005665D01*
X003744Y005655D01*
X003812Y005649D01*
X003881Y005647D01*
X003950Y005649D01*
X004018Y005655D01*
X004086Y005665D01*
X004154Y005678D01*
X004220Y005695D01*
X004286Y005717D01*
X004350Y005741D01*
X004413Y005770D01*
X004474Y005802D01*
X004533Y005837D01*
X004590Y005875D01*
X004645Y005917D01*
X004697Y005962D01*
X004746Y006010D01*
X004793Y006060D01*
X004837Y006113D01*
X004878Y006168D01*
X004916Y006226D01*
X004950Y006286D01*
X004981Y006347D01*
X005008Y006410D01*
X005032Y006475D01*
X005052Y006541D01*
X005068Y006607D01*
X005081Y006675D01*
X005089Y006743D01*
X005094Y006812D01*
X005095Y006881D01*
X005092Y006949D01*
X005085Y007018D01*
X005074Y007086D01*
X005059Y007153D01*
X005041Y007219D01*
X005019Y007285D01*
X004993Y007348D01*
X004964Y007411D01*
X004931Y007471D01*
X004894Y007529D01*
X004855Y007586D01*
X004812Y007640D01*
X004767Y007691D01*
X004718Y007740D01*
X004667Y007786D01*
X004613Y007829D01*
X003101Y013393D02*
X003155Y013321D01*
X003154Y013322D02*
X003101Y013279D01*
X003050Y013234D01*
X003002Y013185D01*
X002957Y013134D01*
X002914Y013080D01*
X002875Y013024D01*
X002839Y012966D01*
X002806Y012906D01*
X002777Y012845D01*
X002752Y012781D01*
X002730Y012717D01*
X002711Y012651D01*
X002697Y012584D01*
X002686Y012517D01*
X002679Y012449D01*
X002676Y012381D01*
X002677Y012312D01*
X002682Y012244D01*
X002690Y012176D01*
X002703Y012109D01*
X002719Y012043D01*
X002739Y011978D01*
X002762Y011913D01*
X002789Y011851D01*
X002820Y011790D01*
X002854Y011731D01*
X002891Y011673D01*
X002932Y011618D01*
X002976Y011566D01*
X003022Y011516D01*
X003071Y011469D01*
X003123Y011424D01*
X003177Y011383D01*
X003234Y011344D01*
X003293Y011309D01*
X003353Y011278D01*
X003415Y011250D01*
X003479Y011225D01*
X003544Y011204D01*
X003610Y011187D01*
X003677Y011173D01*
X003745Y011164D01*
X003813Y011158D01*
X003881Y011156D01*
X003949Y011158D01*
X004017Y011164D01*
X004085Y011173D01*
X004152Y011187D01*
X004218Y011204D01*
X004283Y011225D01*
X004347Y011250D01*
X004409Y011278D01*
X004469Y011309D01*
X004528Y011344D01*
X004585Y011383D01*
X004639Y011424D01*
X004691Y011469D01*
X004740Y011516D01*
X004786Y011566D01*
X004830Y011618D01*
X004871Y011673D01*
X004908Y011731D01*
X004942Y011790D01*
X004973Y011851D01*
X005000Y011913D01*
X005023Y011978D01*
X005043Y012043D01*
X005059Y012109D01*
X005072Y012176D01*
X005080Y012244D01*
X005085Y012312D01*
X005086Y012381D01*
X005083Y012449D01*
X005076Y012517D01*
X005065Y012584D01*
X005051Y012651D01*
X005032Y012717D01*
X005010Y012781D01*
X004985Y012845D01*
X004956Y012906D01*
X004923Y012966D01*
X004887Y013024D01*
X004848Y013080D01*
X004805Y013134D01*
X004760Y013185D01*
X004712Y013234D01*
X004661Y013279D01*
X004608Y013322D01*
X004661Y013393D01*
X004662Y013394D01*
X004717Y013350D01*
X004770Y013302D01*
X004821Y013252D01*
X004868Y013199D01*
X004912Y013144D01*
X004954Y013086D01*
X004992Y013026D01*
X005027Y012965D01*
X005058Y012901D01*
X005086Y012836D01*
X005110Y012769D01*
X005131Y012701D01*
X005147Y012632D01*
X005160Y012562D01*
X005169Y012492D01*
X005175Y012421D01*
X005176Y012350D01*
X005173Y012279D01*
X005167Y012208D01*
X005157Y012138D01*
X005143Y012069D01*
X005125Y012000D01*
X005103Y011932D01*
X005078Y011866D01*
X005049Y011801D01*
X005016Y011738D01*
X004980Y011677D01*
X004941Y011618D01*
X004899Y011561D01*
X004854Y011506D01*
X004805Y011454D01*
X004754Y011405D01*
X004701Y011358D01*
X004644Y011315D01*
X004586Y011275D01*
X004525Y011238D01*
X004463Y011204D01*
X004399Y011174D01*
X004333Y011147D01*
X004266Y011124D01*
X004197Y011105D01*
X004128Y011090D01*
X004058Y011078D01*
X003987Y011070D01*
X003916Y011066D01*
X003846Y011066D01*
X003775Y011070D01*
X003704Y011078D01*
X003634Y011090D01*
X003565Y011105D01*
X003496Y011124D01*
X003429Y011147D01*
X003363Y011174D01*
X003299Y011204D01*
X003237Y011238D01*
X003176Y011275D01*
X003118Y011315D01*
X003061Y011358D01*
X003008Y011405D01*
X002957Y011454D01*
X002908Y011506D01*
X002863Y011561D01*
X002821Y011618D01*
X002782Y011677D01*
X002746Y011738D01*
X002713Y011801D01*
X002684Y011866D01*
X002659Y011932D01*
X002637Y012000D01*
X002619Y012069D01*
X002605Y012138D01*
X002595Y012208D01*
X002589Y012279D01*
X002586Y012350D01*
X002587Y012421D01*
X002593Y012492D01*
X002602Y012562D01*
X002615Y012632D01*
X002631Y012701D01*
X002652Y012769D01*
X002676Y012836D01*
X002704Y012901D01*
X002735Y012965D01*
X002770Y013026D01*
X002808Y013086D01*
X002850Y013144D01*
X002894Y013199D01*
X002941Y013252D01*
X002992Y013302D01*
X003045Y013350D01*
X003100Y013394D01*
X003105Y013387D01*
X003050Y013342D01*
X002997Y013295D01*
X002946Y013244D01*
X002899Y013191D01*
X002854Y013135D01*
X002813Y013077D01*
X002775Y013017D01*
X002740Y012955D01*
X002709Y012891D01*
X002682Y012825D01*
X002658Y012758D01*
X002638Y012689D01*
X002621Y012620D01*
X002609Y012550D01*
X002600Y012479D01*
X002596Y012408D01*
X002595Y012337D01*
X002599Y012266D01*
X002606Y012195D01*
X002617Y012124D01*
X002632Y012055D01*
X002651Y011986D01*
X002674Y011918D01*
X002700Y011852D01*
X002730Y011787D01*
X002764Y011725D01*
X002800Y011664D01*
X002841Y011605D01*
X002884Y011548D01*
X002931Y011494D01*
X002980Y011443D01*
X003033Y011395D01*
X003087Y011349D01*
X003145Y011307D01*
X003204Y011268D01*
X003266Y011232D01*
X003329Y011199D01*
X003394Y011171D01*
X003461Y011145D01*
X003529Y011124D01*
X003598Y011106D01*
X003668Y011093D01*
X003739Y011083D01*
X003810Y011077D01*
X003881Y011075D01*
X003952Y011077D01*
X004023Y011083D01*
X004094Y011093D01*
X004164Y011106D01*
X004233Y011124D01*
X004301Y011145D01*
X004368Y011171D01*
X004433Y011199D01*
X004496Y011232D01*
X004558Y011268D01*
X004617Y011307D01*
X004675Y011349D01*
X004729Y011395D01*
X004782Y011443D01*
X004831Y011494D01*
X004878Y011548D01*
X004921Y011605D01*
X004962Y011664D01*
X004998Y011725D01*
X005032Y011787D01*
X005062Y011852D01*
X005088Y011918D01*
X005111Y011986D01*
X005130Y012055D01*
X005145Y012124D01*
X005156Y012195D01*
X005163Y012266D01*
X005167Y012337D01*
X005166Y012408D01*
X005162Y012479D01*
X005153Y012550D01*
X005141Y012620D01*
X005124Y012689D01*
X005104Y012758D01*
X005080Y012825D01*
X005053Y012891D01*
X005022Y012955D01*
X004987Y013017D01*
X004949Y013077D01*
X004908Y013135D01*
X004863Y013191D01*
X004816Y013244D01*
X004765Y013295D01*
X004712Y013342D01*
X004657Y013387D01*
X004651Y013380D01*
X004706Y013335D01*
X004759Y013288D01*
X004809Y013238D01*
X004856Y013185D01*
X004900Y013130D01*
X004942Y013072D01*
X004979Y013013D01*
X005014Y012951D01*
X005045Y012887D01*
X005072Y012822D01*
X005096Y012755D01*
X005116Y012687D01*
X005132Y012618D01*
X005144Y012549D01*
X005153Y012478D01*
X005157Y012408D01*
X005158Y012337D01*
X005154Y012266D01*
X005147Y012196D01*
X005136Y012126D01*
X005121Y012057D01*
X005102Y011989D01*
X005080Y011921D01*
X005054Y011856D01*
X005024Y011791D01*
X004991Y011729D01*
X004954Y011669D01*
X004914Y011610D01*
X004871Y011554D01*
X004825Y011500D01*
X004775Y011450D01*
X004724Y011401D01*
X004669Y011356D01*
X004612Y011314D01*
X004553Y011275D01*
X004492Y011240D01*
X004429Y011207D01*
X004364Y011179D01*
X004298Y011154D01*
X004230Y011133D01*
X004162Y011115D01*
X004092Y011102D01*
X004022Y011092D01*
X003952Y011086D01*
X003881Y011084D01*
X003810Y011086D01*
X003740Y011092D01*
X003670Y011102D01*
X003600Y011115D01*
X003532Y011133D01*
X003464Y011154D01*
X003398Y011179D01*
X003333Y011207D01*
X003270Y011240D01*
X003209Y011275D01*
X003150Y011314D01*
X003093Y011356D01*
X003038Y011401D01*
X002987Y011450D01*
X002937Y011500D01*
X002891Y011554D01*
X002848Y011610D01*
X002808Y011669D01*
X002771Y011729D01*
X002738Y011791D01*
X002708Y011856D01*
X002682Y011921D01*
X002660Y011989D01*
X002641Y012057D01*
X002626Y012126D01*
X002615Y012196D01*
X002608Y012266D01*
X002604Y012337D01*
X002605Y012408D01*
X002609Y012478D01*
X002618Y012549D01*
X002630Y012618D01*
X002646Y012687D01*
X002666Y012755D01*
X002690Y012822D01*
X002717Y012887D01*
X002748Y012951D01*
X002783Y013013D01*
X002820Y013072D01*
X002862Y013130D01*
X002906Y013185D01*
X002953Y013238D01*
X003003Y013288D01*
X003056Y013335D01*
X003111Y013380D01*
X003116Y013372D01*
X003061Y013328D01*
X003008Y013280D01*
X002958Y013230D01*
X002910Y013177D01*
X002866Y013121D01*
X002825Y013063D01*
X002788Y013003D01*
X002753Y012941D01*
X002723Y012877D01*
X002696Y012811D01*
X002672Y012744D01*
X002653Y012676D01*
X002637Y012606D01*
X002625Y012536D01*
X002617Y012466D01*
X002613Y012395D01*
X002614Y012324D01*
X002618Y012253D01*
X002626Y012182D01*
X002638Y012112D01*
X002654Y012043D01*
X002673Y011975D01*
X002697Y011907D01*
X002724Y011842D01*
X002755Y011778D01*
X002789Y011716D01*
X002827Y011656D01*
X002869Y011598D01*
X002913Y011542D01*
X002960Y011489D01*
X003011Y011439D01*
X003064Y011392D01*
X003119Y011347D01*
X003177Y011306D01*
X003237Y011269D01*
X003300Y011234D01*
X003364Y011203D01*
X003429Y011176D01*
X003496Y011153D01*
X003565Y011133D01*
X003634Y011117D01*
X003704Y011105D01*
X003775Y011097D01*
X003845Y011093D01*
X003917Y011093D01*
X003987Y011097D01*
X004058Y011105D01*
X004128Y011117D01*
X004197Y011133D01*
X004266Y011153D01*
X004333Y011176D01*
X004398Y011203D01*
X004462Y011234D01*
X004525Y011269D01*
X004585Y011306D01*
X004643Y011347D01*
X004698Y011392D01*
X004751Y011439D01*
X004802Y011489D01*
X004849Y011542D01*
X004893Y011598D01*
X004935Y011656D01*
X004973Y011716D01*
X005007Y011778D01*
X005038Y011842D01*
X005065Y011907D01*
X005089Y011975D01*
X005108Y012043D01*
X005124Y012112D01*
X005136Y012182D01*
X005144Y012253D01*
X005148Y012324D01*
X005149Y012395D01*
X005145Y012466D01*
X005137Y012536D01*
X005125Y012606D01*
X005109Y012676D01*
X005090Y012744D01*
X005066Y012811D01*
X005039Y012877D01*
X005009Y012941D01*
X004974Y013003D01*
X004937Y013063D01*
X004896Y013121D01*
X004852Y013177D01*
X004804Y013230D01*
X004754Y013280D01*
X004701Y013328D01*
X004646Y013372D01*
X004640Y013365D01*
X004695Y013321D01*
X004748Y013274D01*
X004798Y013224D01*
X004845Y013171D01*
X004889Y013116D01*
X004929Y013058D01*
X004967Y012999D01*
X005001Y012937D01*
X005031Y012873D01*
X005058Y012808D01*
X005081Y012741D01*
X005101Y012673D01*
X005116Y012605D01*
X005128Y012535D01*
X005136Y012465D01*
X005140Y012394D01*
X005139Y012324D01*
X005135Y012253D01*
X005127Y012183D01*
X005115Y012114D01*
X005100Y012045D01*
X005080Y011977D01*
X005057Y011911D01*
X005030Y011846D01*
X004999Y011782D01*
X004965Y011720D01*
X004927Y011661D01*
X004886Y011603D01*
X004842Y011548D01*
X004795Y011495D01*
X004745Y011446D01*
X004693Y011399D01*
X004637Y011355D01*
X004580Y011314D01*
X004520Y011276D01*
X004458Y011242D01*
X004395Y011212D01*
X004330Y011185D01*
X004263Y011161D01*
X004195Y011142D01*
X004126Y011126D01*
X004057Y011114D01*
X003987Y011106D01*
X003916Y011102D01*
X003846Y011102D01*
X003775Y011106D01*
X003705Y011114D01*
X003636Y011126D01*
X003567Y011142D01*
X003499Y011161D01*
X003432Y011185D01*
X003367Y011212D01*
X003304Y011242D01*
X003242Y011276D01*
X003182Y011314D01*
X003125Y011355D01*
X003069Y011399D01*
X003017Y011446D01*
X002967Y011495D01*
X002920Y011548D01*
X002876Y011603D01*
X002835Y011661D01*
X002797Y011720D01*
X002763Y011782D01*
X002732Y011846D01*
X002705Y011911D01*
X002682Y011977D01*
X002662Y012045D01*
X002647Y012114D01*
X002635Y012183D01*
X002627Y012253D01*
X002623Y012324D01*
X002622Y012394D01*
X002626Y012465D01*
X002634Y012535D01*
X002646Y012605D01*
X002661Y012673D01*
X002681Y012741D01*
X002704Y012808D01*
X002731Y012873D01*
X002761Y012937D01*
X002795Y012999D01*
X002833Y013058D01*
X002873Y013116D01*
X002917Y013171D01*
X002964Y013224D01*
X003014Y013274D01*
X003067Y013321D01*
X003122Y013365D01*
X003127Y013358D01*
X003072Y013314D01*
X003020Y013267D01*
X002971Y013218D01*
X002924Y013165D01*
X002881Y013111D01*
X002840Y013053D01*
X002803Y012994D01*
X002769Y012933D01*
X002739Y012869D01*
X002712Y012805D01*
X002689Y012738D01*
X002670Y012671D01*
X002655Y012603D01*
X002643Y012534D01*
X002635Y012464D01*
X002631Y012394D01*
X002632Y012324D01*
X002636Y012254D01*
X002644Y012185D01*
X002655Y012116D01*
X002671Y012047D01*
X002690Y011980D01*
X002714Y011914D01*
X002741Y011849D01*
X002771Y011786D01*
X002805Y011725D01*
X002842Y011666D01*
X002883Y011608D01*
X002927Y011554D01*
X002973Y011502D01*
X003023Y011452D01*
X003075Y011405D01*
X003130Y011362D01*
X003187Y011321D01*
X003246Y011284D01*
X003308Y011250D01*
X003371Y011220D01*
X003436Y011193D01*
X003502Y011170D01*
X003569Y011151D01*
X003637Y011135D01*
X003706Y011123D01*
X003776Y011115D01*
X003846Y011111D01*
X003916Y011111D01*
X003986Y011115D01*
X004056Y011123D01*
X004125Y011135D01*
X004193Y011151D01*
X004260Y011170D01*
X004326Y011193D01*
X004391Y011220D01*
X004454Y011250D01*
X004516Y011284D01*
X004575Y011321D01*
X004632Y011362D01*
X004687Y011405D01*
X004739Y011452D01*
X004789Y011502D01*
X004835Y011554D01*
X004879Y011608D01*
X004920Y011666D01*
X004957Y011725D01*
X004991Y011786D01*
X005021Y011849D01*
X005048Y011914D01*
X005072Y011980D01*
X005091Y012047D01*
X005107Y012116D01*
X005118Y012185D01*
X005126Y012254D01*
X005130Y012324D01*
X005131Y012394D01*
X005127Y012464D01*
X005119Y012534D01*
X005107Y012603D01*
X005092Y012671D01*
X005073Y012738D01*
X005050Y012805D01*
X005023Y012869D01*
X004993Y012933D01*
X004959Y012994D01*
X004922Y013053D01*
X004881Y013111D01*
X004838Y013165D01*
X004791Y013218D01*
X004742Y013267D01*
X004690Y013314D01*
X004635Y013358D01*
X004630Y013351D01*
X004684Y013307D01*
X004736Y013261D01*
X004785Y013212D01*
X004831Y013160D01*
X004874Y013105D01*
X004914Y013048D01*
X004951Y012989D01*
X004985Y012928D01*
X005015Y012866D01*
X005041Y012801D01*
X005064Y012736D01*
X005083Y012669D01*
X005099Y012601D01*
X005110Y012532D01*
X005118Y012463D01*
X005122Y012394D01*
X005121Y012324D01*
X005117Y012255D01*
X005110Y012186D01*
X005098Y012117D01*
X005082Y012050D01*
X005063Y011983D01*
X005040Y011917D01*
X005013Y011853D01*
X004983Y011790D01*
X004949Y011729D01*
X004912Y011671D01*
X004872Y011614D01*
X004829Y011560D01*
X004782Y011508D01*
X004733Y011459D01*
X004681Y011412D01*
X004627Y011369D01*
X004570Y011329D01*
X004511Y011292D01*
X004450Y011258D01*
X004387Y011228D01*
X004323Y011201D01*
X004258Y011178D01*
X004191Y011159D01*
X004123Y011144D01*
X004054Y011132D01*
X003985Y011124D01*
X003916Y011120D01*
X003846Y011120D01*
X003777Y011124D01*
X003708Y011132D01*
X003639Y011144D01*
X003571Y011159D01*
X003504Y011178D01*
X003439Y011201D01*
X003375Y011228D01*
X003312Y011258D01*
X003251Y011292D01*
X003192Y011329D01*
X003135Y011369D01*
X003081Y011412D01*
X003029Y011459D01*
X002980Y011508D01*
X002933Y011560D01*
X002890Y011614D01*
X002850Y011671D01*
X002813Y011729D01*
X002779Y011790D01*
X002749Y011853D01*
X002722Y011917D01*
X002699Y011983D01*
X002680Y012050D01*
X002664Y012117D01*
X002652Y012186D01*
X002645Y012255D01*
X002641Y012324D01*
X002640Y012394D01*
X002644Y012463D01*
X002652Y012532D01*
X002663Y012601D01*
X002679Y012669D01*
X002698Y012736D01*
X002721Y012801D01*
X002747Y012866D01*
X002777Y012928D01*
X002811Y012989D01*
X002848Y013048D01*
X002888Y013105D01*
X002931Y013160D01*
X002977Y013212D01*
X003026Y013261D01*
X003078Y013307D01*
X003132Y013351D01*
X003138Y013344D01*
X003084Y013300D01*
X003033Y013254D01*
X002984Y013205D01*
X002938Y013154D01*
X002895Y013100D01*
X002855Y013043D01*
X002819Y012985D01*
X002785Y012924D01*
X002755Y012862D01*
X002729Y012798D01*
X002707Y012733D01*
X002688Y012667D01*
X002672Y012599D01*
X002661Y012531D01*
X002653Y012463D01*
X002649Y012394D01*
X002650Y012325D01*
X002654Y012256D01*
X002661Y012187D01*
X002673Y012119D01*
X002688Y012052D01*
X002708Y011985D01*
X002731Y011920D01*
X002757Y011857D01*
X002787Y011794D01*
X002820Y011734D01*
X002857Y011676D01*
X002897Y011619D01*
X002940Y011565D01*
X002986Y011514D01*
X003035Y011465D01*
X003087Y011419D01*
X003141Y011376D01*
X003197Y011336D01*
X003256Y011300D01*
X003316Y011266D01*
X003378Y011236D01*
X003442Y011210D01*
X003507Y011187D01*
X003574Y011168D01*
X003641Y011153D01*
X003709Y011141D01*
X003778Y011133D01*
X003846Y011129D01*
X003916Y011129D01*
X003984Y011133D01*
X004053Y011141D01*
X004121Y011153D01*
X004188Y011168D01*
X004255Y011187D01*
X004320Y011210D01*
X004384Y011236D01*
X004446Y011266D01*
X004506Y011300D01*
X004565Y011336D01*
X004621Y011376D01*
X004675Y011419D01*
X004727Y011465D01*
X004776Y011514D01*
X004822Y011565D01*
X004865Y011619D01*
X004905Y011676D01*
X004942Y011734D01*
X004975Y011794D01*
X005005Y011857D01*
X005031Y011920D01*
X005054Y011985D01*
X005074Y012052D01*
X005089Y012119D01*
X005101Y012187D01*
X005108Y012256D01*
X005112Y012325D01*
X005113Y012394D01*
X005109Y012463D01*
X005101Y012531D01*
X005090Y012599D01*
X005074Y012667D01*
X005055Y012733D01*
X005033Y012798D01*
X005007Y012862D01*
X004977Y012924D01*
X004943Y012985D01*
X004907Y013043D01*
X004867Y013100D01*
X004824Y013154D01*
X004778Y013205D01*
X004729Y013254D01*
X004678Y013300D01*
X004624Y013344D01*
X004619Y013336D01*
X004673Y013293D01*
X004724Y013247D01*
X004773Y013197D01*
X004819Y013146D01*
X004862Y013091D01*
X004902Y013034D01*
X004938Y012976D01*
X004972Y012915D01*
X005001Y012852D01*
X005027Y012788D01*
X005049Y012722D01*
X005068Y012655D01*
X005083Y012588D01*
X005094Y012519D01*
X005101Y012450D01*
X005104Y012381D01*
X005103Y012312D01*
X005098Y012242D01*
X005090Y012174D01*
X005077Y012106D01*
X005061Y012038D01*
X005040Y011972D01*
X005017Y011907D01*
X004989Y011843D01*
X004958Y011781D01*
X004923Y011721D01*
X004885Y011663D01*
X004844Y011607D01*
X004800Y011554D01*
X004753Y011503D01*
X004703Y011455D01*
X004650Y011410D01*
X004595Y011368D01*
X004538Y011329D01*
X004478Y011294D01*
X004417Y011262D01*
X004354Y011233D01*
X004289Y011208D01*
X004223Y011187D01*
X004156Y011169D01*
X004088Y011156D01*
X004019Y011146D01*
X003950Y011140D01*
X003881Y011138D01*
X003812Y011140D01*
X003743Y011146D01*
X003674Y011156D01*
X003606Y011169D01*
X003539Y011187D01*
X003473Y011208D01*
X003408Y011233D01*
X003345Y011262D01*
X003284Y011294D01*
X003224Y011329D01*
X003167Y011368D01*
X003112Y011410D01*
X003059Y011455D01*
X003009Y011503D01*
X002962Y011554D01*
X002918Y011607D01*
X002877Y011663D01*
X002839Y011721D01*
X002804Y011781D01*
X002773Y011843D01*
X002745Y011907D01*
X002722Y011972D01*
X002701Y012038D01*
X002685Y012106D01*
X002672Y012174D01*
X002664Y012242D01*
X002659Y012312D01*
X002658Y012381D01*
X002661Y012450D01*
X002668Y012519D01*
X002679Y012588D01*
X002694Y012655D01*
X002713Y012722D01*
X002735Y012788D01*
X002761Y012852D01*
X002790Y012915D01*
X002824Y012976D01*
X002860Y013034D01*
X002900Y013091D01*
X002943Y013146D01*
X002989Y013197D01*
X003038Y013247D01*
X003089Y013293D01*
X003143Y013336D01*
X003149Y013329D01*
X003095Y013286D01*
X003044Y013240D01*
X002995Y013191D01*
X002950Y013140D01*
X002907Y013086D01*
X002868Y013029D01*
X002831Y012971D01*
X002798Y012911D01*
X002769Y012848D01*
X002743Y012785D01*
X002721Y012719D01*
X002703Y012653D01*
X002688Y012586D01*
X002677Y012518D01*
X002670Y012449D01*
X002667Y012381D01*
X002668Y012312D01*
X002673Y012243D01*
X002681Y012175D01*
X002694Y012107D01*
X002710Y012041D01*
X002730Y011975D01*
X002754Y011910D01*
X002781Y011847D01*
X002812Y011786D01*
X002846Y011726D01*
X002884Y011668D01*
X002925Y011613D01*
X002969Y011560D01*
X003016Y011510D01*
X003065Y011462D01*
X003117Y011417D01*
X003172Y011375D01*
X003229Y011337D01*
X003288Y011302D01*
X003349Y011270D01*
X003412Y011241D01*
X003476Y011217D01*
X003542Y011195D01*
X003608Y011178D01*
X003676Y011165D01*
X003744Y011155D01*
X003812Y011149D01*
X003881Y011147D01*
X003950Y011149D01*
X004018Y011155D01*
X004086Y011165D01*
X004154Y011178D01*
X004220Y011195D01*
X004286Y011217D01*
X004350Y011241D01*
X004413Y011270D01*
X004474Y011302D01*
X004533Y011337D01*
X004590Y011375D01*
X004645Y011417D01*
X004697Y011462D01*
X004746Y011510D01*
X004793Y011560D01*
X004837Y011613D01*
X004878Y011668D01*
X004916Y011726D01*
X004950Y011786D01*
X004981Y011847D01*
X005008Y011910D01*
X005032Y011975D01*
X005052Y012041D01*
X005068Y012107D01*
X005081Y012175D01*
X005089Y012243D01*
X005094Y012312D01*
X005095Y012381D01*
X005092Y012449D01*
X005085Y012518D01*
X005074Y012586D01*
X005059Y012653D01*
X005041Y012719D01*
X005019Y012785D01*
X004993Y012848D01*
X004964Y012911D01*
X004931Y012971D01*
X004894Y013029D01*
X004855Y013086D01*
X004812Y013140D01*
X004767Y013191D01*
X004718Y013240D01*
X004667Y013286D01*
X004613Y013329D01*
X014601Y013393D02*
X014655Y013321D01*
X014654Y013322D02*
X014601Y013279D01*
X014550Y013234D01*
X014502Y013185D01*
X014457Y013134D01*
X014414Y013080D01*
X014375Y013024D01*
X014339Y012966D01*
X014306Y012906D01*
X014277Y012845D01*
X014252Y012781D01*
X014230Y012717D01*
X014211Y012651D01*
X014197Y012584D01*
X014186Y012517D01*
X014179Y012449D01*
X014176Y012381D01*
X014177Y012312D01*
X014182Y012244D01*
X014190Y012176D01*
X014203Y012109D01*
X014219Y012043D01*
X014239Y011978D01*
X014262Y011913D01*
X014289Y011851D01*
X014320Y011790D01*
X014354Y011731D01*
X014391Y011673D01*
X014432Y011618D01*
X014476Y011566D01*
X014522Y011516D01*
X014571Y011469D01*
X014623Y011424D01*
X014677Y011383D01*
X014734Y011344D01*
X014793Y011309D01*
X014853Y011278D01*
X014915Y011250D01*
X014979Y011225D01*
X015044Y011204D01*
X015110Y011187D01*
X015177Y011173D01*
X015245Y011164D01*
X015313Y011158D01*
X015381Y011156D01*
X015449Y011158D01*
X015517Y011164D01*
X015585Y011173D01*
X015652Y011187D01*
X015718Y011204D01*
X015783Y011225D01*
X015847Y011250D01*
X015909Y011278D01*
X015969Y011309D01*
X016028Y011344D01*
X016085Y011383D01*
X016139Y011424D01*
X016191Y011469D01*
X016240Y011516D01*
X016286Y011566D01*
X016330Y011618D01*
X016371Y011673D01*
X016408Y011731D01*
X016442Y011790D01*
X016473Y011851D01*
X016500Y011913D01*
X016523Y011978D01*
X016543Y012043D01*
X016559Y012109D01*
X016572Y012176D01*
X016580Y012244D01*
X016585Y012312D01*
X016586Y012381D01*
X016583Y012449D01*
X016576Y012517D01*
X016565Y012584D01*
X016551Y012651D01*
X016532Y012717D01*
X016510Y012781D01*
X016485Y012845D01*
X016456Y012906D01*
X016423Y012966D01*
X016387Y013024D01*
X016348Y013080D01*
X016305Y013134D01*
X016260Y013185D01*
X016212Y013234D01*
X016161Y013279D01*
X016108Y013322D01*
X016161Y013393D01*
X016162Y013394D01*
X016217Y013350D01*
X016270Y013302D01*
X016321Y013252D01*
X016368Y013199D01*
X016412Y013144D01*
X016454Y013086D01*
X016492Y013026D01*
X016527Y012965D01*
X016558Y012901D01*
X016586Y012836D01*
X016610Y012769D01*
X016631Y012701D01*
X016647Y012632D01*
X016660Y012562D01*
X016669Y012492D01*
X016675Y012421D01*
X016676Y012350D01*
X016673Y012279D01*
X016667Y012208D01*
X016657Y012138D01*
X016643Y012069D01*
X016625Y012000D01*
X016603Y011932D01*
X016578Y011866D01*
X016549Y011801D01*
X016516Y011738D01*
X016480Y011677D01*
X016441Y011618D01*
X016399Y011561D01*
X016354Y011506D01*
X016305Y011454D01*
X016254Y011405D01*
X016201Y011358D01*
X016144Y011315D01*
X016086Y011275D01*
X016025Y011238D01*
X015963Y011204D01*
X015899Y011174D01*
X015833Y011147D01*
X015766Y011124D01*
X015697Y011105D01*
X015628Y011090D01*
X015558Y011078D01*
X015487Y011070D01*
X015416Y011066D01*
X015346Y011066D01*
X015275Y011070D01*
X015204Y011078D01*
X015134Y011090D01*
X015065Y011105D01*
X014996Y011124D01*
X014929Y011147D01*
X014863Y011174D01*
X014799Y011204D01*
X014737Y011238D01*
X014676Y011275D01*
X014618Y011315D01*
X014561Y011358D01*
X014508Y011405D01*
X014457Y011454D01*
X014408Y011506D01*
X014363Y011561D01*
X014321Y011618D01*
X014282Y011677D01*
X014246Y011738D01*
X014213Y011801D01*
X014184Y011866D01*
X014159Y011932D01*
X014137Y012000D01*
X014119Y012069D01*
X014105Y012138D01*
X014095Y012208D01*
X014089Y012279D01*
X014086Y012350D01*
X014087Y012421D01*
X014093Y012492D01*
X014102Y012562D01*
X014115Y012632D01*
X014131Y012701D01*
X014152Y012769D01*
X014176Y012836D01*
X014204Y012901D01*
X014235Y012965D01*
X014270Y013026D01*
X014308Y013086D01*
X014350Y013144D01*
X014394Y013199D01*
X014441Y013252D01*
X014492Y013302D01*
X014545Y013350D01*
X014600Y013394D01*
X014605Y013387D01*
X014550Y013342D01*
X014497Y013295D01*
X014446Y013244D01*
X014399Y013191D01*
X014354Y013135D01*
X014313Y013077D01*
X014275Y013017D01*
X014240Y012955D01*
X014209Y012891D01*
X014182Y012825D01*
X014158Y012758D01*
X014138Y012689D01*
X014121Y012620D01*
X014109Y012550D01*
X014100Y012479D01*
X014096Y012408D01*
X014095Y012337D01*
X014099Y012266D01*
X014106Y012195D01*
X014117Y012124D01*
X014132Y012055D01*
X014151Y011986D01*
X014174Y011918D01*
X014200Y011852D01*
X014230Y011787D01*
X014264Y011725D01*
X014300Y011664D01*
X014341Y011605D01*
X014384Y011548D01*
X014431Y011494D01*
X014480Y011443D01*
X014533Y011395D01*
X014587Y011349D01*
X014645Y011307D01*
X014704Y011268D01*
X014766Y011232D01*
X014829Y011199D01*
X014894Y011171D01*
X014961Y011145D01*
X015029Y011124D01*
X015098Y011106D01*
X015168Y011093D01*
X015239Y011083D01*
X015310Y011077D01*
X015381Y011075D01*
X015452Y011077D01*
X015523Y011083D01*
X015594Y011093D01*
X015664Y011106D01*
X015733Y011124D01*
X015801Y011145D01*
X015868Y011171D01*
X015933Y011199D01*
X015996Y011232D01*
X016058Y011268D01*
X016117Y011307D01*
X016175Y011349D01*
X016229Y011395D01*
X016282Y011443D01*
X016331Y011494D01*
X016378Y011548D01*
X016421Y011605D01*
X016462Y011664D01*
X016498Y011725D01*
X016532Y011787D01*
X016562Y011852D01*
X016588Y011918D01*
X016611Y011986D01*
X016630Y012055D01*
X016645Y012124D01*
X016656Y012195D01*
X016663Y012266D01*
X016667Y012337D01*
X016666Y012408D01*
X016662Y012479D01*
X016653Y012550D01*
X016641Y012620D01*
X016624Y012689D01*
X016604Y012758D01*
X016580Y012825D01*
X016553Y012891D01*
X016522Y012955D01*
X016487Y013017D01*
X016449Y013077D01*
X016408Y013135D01*
X016363Y013191D01*
X016316Y013244D01*
X016265Y013295D01*
X016212Y013342D01*
X016157Y013387D01*
X016151Y013380D01*
X016206Y013335D01*
X016259Y013288D01*
X016309Y013238D01*
X016356Y013185D01*
X016400Y013130D01*
X016442Y013072D01*
X016479Y013013D01*
X016514Y012951D01*
X016545Y012887D01*
X016572Y012822D01*
X016596Y012755D01*
X016616Y012687D01*
X016632Y012618D01*
X016644Y012549D01*
X016653Y012478D01*
X016657Y012408D01*
X016658Y012337D01*
X016654Y012266D01*
X016647Y012196D01*
X016636Y012126D01*
X016621Y012057D01*
X016602Y011989D01*
X016580Y011921D01*
X016554Y011856D01*
X016524Y011791D01*
X016491Y011729D01*
X016454Y011669D01*
X016414Y011610D01*
X016371Y011554D01*
X016325Y011500D01*
X016275Y011450D01*
X016224Y011401D01*
X016169Y011356D01*
X016112Y011314D01*
X016053Y011275D01*
X015992Y011240D01*
X015929Y011207D01*
X015864Y011179D01*
X015798Y011154D01*
X015730Y011133D01*
X015662Y011115D01*
X015592Y011102D01*
X015522Y011092D01*
X015452Y011086D01*
X015381Y011084D01*
X015310Y011086D01*
X015240Y011092D01*
X015170Y011102D01*
X015100Y011115D01*
X015032Y011133D01*
X014964Y011154D01*
X014898Y011179D01*
X014833Y011207D01*
X014770Y011240D01*
X014709Y011275D01*
X014650Y011314D01*
X014593Y011356D01*
X014538Y011401D01*
X014487Y011450D01*
X014437Y011500D01*
X014391Y011554D01*
X014348Y011610D01*
X014308Y011669D01*
X014271Y011729D01*
X014238Y011791D01*
X014208Y011856D01*
X014182Y011921D01*
X014160Y011989D01*
X014141Y012057D01*
X014126Y012126D01*
X014115Y012196D01*
X014108Y012266D01*
X014104Y012337D01*
X014105Y012408D01*
X014109Y012478D01*
X014118Y012549D01*
X014130Y012618D01*
X014146Y012687D01*
X014166Y012755D01*
X014190Y012822D01*
X014217Y012887D01*
X014248Y012951D01*
X014283Y013013D01*
X014320Y013072D01*
X014362Y013130D01*
X014406Y013185D01*
X014453Y013238D01*
X014503Y013288D01*
X014556Y013335D01*
X014611Y013380D01*
X014616Y013372D01*
X014561Y013328D01*
X014508Y013280D01*
X014458Y013230D01*
X014410Y013177D01*
X014366Y013121D01*
X014325Y013063D01*
X014288Y013003D01*
X014253Y012941D01*
X014223Y012877D01*
X014196Y012811D01*
X014172Y012744D01*
X014153Y012676D01*
X014137Y012606D01*
X014125Y012536D01*
X014117Y012466D01*
X014113Y012395D01*
X014114Y012324D01*
X014118Y012253D01*
X014126Y012182D01*
X014138Y012112D01*
X014154Y012043D01*
X014173Y011975D01*
X014197Y011907D01*
X014224Y011842D01*
X014255Y011778D01*
X014289Y011716D01*
X014327Y011656D01*
X014369Y011598D01*
X014413Y011542D01*
X014460Y011489D01*
X014511Y011439D01*
X014564Y011392D01*
X014619Y011347D01*
X014677Y011306D01*
X014737Y011269D01*
X014800Y011234D01*
X014864Y011203D01*
X014929Y011176D01*
X014996Y011153D01*
X015065Y011133D01*
X015134Y011117D01*
X015204Y011105D01*
X015275Y011097D01*
X015345Y011093D01*
X015417Y011093D01*
X015487Y011097D01*
X015558Y011105D01*
X015628Y011117D01*
X015697Y011133D01*
X015766Y011153D01*
X015833Y011176D01*
X015898Y011203D01*
X015962Y011234D01*
X016025Y011269D01*
X016085Y011306D01*
X016143Y011347D01*
X016198Y011392D01*
X016251Y011439D01*
X016302Y011489D01*
X016349Y011542D01*
X016393Y011598D01*
X016435Y011656D01*
X016473Y011716D01*
X016507Y011778D01*
X016538Y011842D01*
X016565Y011907D01*
X016589Y011975D01*
X016608Y012043D01*
X016624Y012112D01*
X016636Y012182D01*
X016644Y012253D01*
X016648Y012324D01*
X016649Y012395D01*
X016645Y012466D01*
X016637Y012536D01*
X016625Y012606D01*
X016609Y012676D01*
X016590Y012744D01*
X016566Y012811D01*
X016539Y012877D01*
X016509Y012941D01*
X016474Y013003D01*
X016437Y013063D01*
X016396Y013121D01*
X016352Y013177D01*
X016304Y013230D01*
X016254Y013280D01*
X016201Y013328D01*
X016146Y013372D01*
X016140Y013365D01*
X016195Y013321D01*
X016248Y013274D01*
X016298Y013224D01*
X016345Y013171D01*
X016389Y013116D01*
X016429Y013058D01*
X016467Y012999D01*
X016501Y012937D01*
X016531Y012873D01*
X016558Y012808D01*
X016581Y012741D01*
X016601Y012673D01*
X016616Y012605D01*
X016628Y012535D01*
X016636Y012465D01*
X016640Y012394D01*
X016639Y012324D01*
X016635Y012253D01*
X016627Y012183D01*
X016615Y012114D01*
X016600Y012045D01*
X016580Y011977D01*
X016557Y011911D01*
X016530Y011846D01*
X016499Y011782D01*
X016465Y011720D01*
X016427Y011661D01*
X016386Y011603D01*
X016342Y011548D01*
X016295Y011495D01*
X016245Y011446D01*
X016193Y011399D01*
X016137Y011355D01*
X016080Y011314D01*
X016020Y011276D01*
X015958Y011242D01*
X015895Y011212D01*
X015830Y011185D01*
X015763Y011161D01*
X015695Y011142D01*
X015626Y011126D01*
X015557Y011114D01*
X015487Y011106D01*
X015416Y011102D01*
X015346Y011102D01*
X015275Y011106D01*
X015205Y011114D01*
X015136Y011126D01*
X015067Y011142D01*
X014999Y011161D01*
X014932Y011185D01*
X014867Y011212D01*
X014804Y011242D01*
X014742Y011276D01*
X014682Y011314D01*
X014625Y011355D01*
X014569Y011399D01*
X014517Y011446D01*
X014467Y011495D01*
X014420Y011548D01*
X014376Y011603D01*
X014335Y011661D01*
X014297Y011720D01*
X014263Y011782D01*
X014232Y011846D01*
X014205Y011911D01*
X014182Y011977D01*
X014162Y012045D01*
X014147Y012114D01*
X014135Y012183D01*
X014127Y012253D01*
X014123Y012324D01*
X014122Y012394D01*
X014126Y012465D01*
X014134Y012535D01*
X014146Y012605D01*
X014161Y012673D01*
X014181Y012741D01*
X014204Y012808D01*
X014231Y012873D01*
X014261Y012937D01*
X014295Y012999D01*
X014333Y013058D01*
X014373Y013116D01*
X014417Y013171D01*
X014464Y013224D01*
X014514Y013274D01*
X014567Y013321D01*
X014622Y013365D01*
X014627Y013358D01*
X014572Y013314D01*
X014520Y013267D01*
X014471Y013218D01*
X014424Y013165D01*
X014381Y013111D01*
X014340Y013053D01*
X014303Y012994D01*
X014269Y012933D01*
X014239Y012869D01*
X014212Y012805D01*
X014189Y012738D01*
X014170Y012671D01*
X014155Y012603D01*
X014143Y012534D01*
X014135Y012464D01*
X014131Y012394D01*
X014132Y012324D01*
X014136Y012254D01*
X014144Y012185D01*
X014155Y012116D01*
X014171Y012047D01*
X014190Y011980D01*
X014214Y011914D01*
X014241Y011849D01*
X014271Y011786D01*
X014305Y011725D01*
X014342Y011666D01*
X014383Y011608D01*
X014427Y011554D01*
X014473Y011502D01*
X014523Y011452D01*
X014575Y011405D01*
X014630Y011362D01*
X014687Y011321D01*
X014746Y011284D01*
X014808Y011250D01*
X014871Y011220D01*
X014936Y011193D01*
X015002Y011170D01*
X015069Y011151D01*
X015137Y011135D01*
X015206Y011123D01*
X015276Y011115D01*
X015346Y011111D01*
X015416Y011111D01*
X015486Y011115D01*
X015556Y011123D01*
X015625Y011135D01*
X015693Y011151D01*
X015760Y011170D01*
X015826Y011193D01*
X015891Y011220D01*
X015954Y011250D01*
X016016Y011284D01*
X016075Y011321D01*
X016132Y011362D01*
X016187Y011405D01*
X016239Y011452D01*
X016289Y011502D01*
X016335Y011554D01*
X016379Y011608D01*
X016420Y011666D01*
X016457Y011725D01*
X016491Y011786D01*
X016521Y011849D01*
X016548Y011914D01*
X016572Y011980D01*
X016591Y012047D01*
X016607Y012116D01*
X016618Y012185D01*
X016626Y012254D01*
X016630Y012324D01*
X016631Y012394D01*
X016627Y012464D01*
X016619Y012534D01*
X016607Y012603D01*
X016592Y012671D01*
X016573Y012738D01*
X016550Y012805D01*
X016523Y012869D01*
X016493Y012933D01*
X016459Y012994D01*
X016422Y013053D01*
X016381Y013111D01*
X016338Y013165D01*
X016291Y013218D01*
X016242Y013267D01*
X016190Y013314D01*
X016135Y013358D01*
X016130Y013351D01*
X016184Y013307D01*
X016236Y013261D01*
X016285Y013212D01*
X016331Y013160D01*
X016374Y013105D01*
X016414Y013048D01*
X016451Y012989D01*
X016485Y012928D01*
X016515Y012866D01*
X016541Y012801D01*
X016564Y012736D01*
X016583Y012669D01*
X016599Y012601D01*
X016610Y012532D01*
X016618Y012463D01*
X016622Y012394D01*
X016621Y012324D01*
X016617Y012255D01*
X016610Y012186D01*
X016598Y012117D01*
X016582Y012050D01*
X016563Y011983D01*
X016540Y011917D01*
X016513Y011853D01*
X016483Y011790D01*
X016449Y011729D01*
X016412Y011671D01*
X016372Y011614D01*
X016329Y011560D01*
X016282Y011508D01*
X016233Y011459D01*
X016181Y011412D01*
X016127Y011369D01*
X016070Y011329D01*
X016011Y011292D01*
X015950Y011258D01*
X015887Y011228D01*
X015823Y011201D01*
X015758Y011178D01*
X015691Y011159D01*
X015623Y011144D01*
X015554Y011132D01*
X015485Y011124D01*
X015416Y011120D01*
X015346Y011120D01*
X015277Y011124D01*
X015208Y011132D01*
X015139Y011144D01*
X015071Y011159D01*
X015004Y011178D01*
X014939Y011201D01*
X014875Y011228D01*
X014812Y011258D01*
X014751Y011292D01*
X014692Y011329D01*
X014635Y011369D01*
X014581Y011412D01*
X014529Y011459D01*
X014480Y011508D01*
X014433Y011560D01*
X014390Y011614D01*
X014350Y011671D01*
X014313Y011729D01*
X014279Y011790D01*
X014249Y011853D01*
X014222Y011917D01*
X014199Y011983D01*
X014180Y012050D01*
X014164Y012117D01*
X014152Y012186D01*
X014145Y012255D01*
X014141Y012324D01*
X014140Y012394D01*
X014144Y012463D01*
X014152Y012532D01*
X014163Y012601D01*
X014179Y012669D01*
X014198Y012736D01*
X014221Y012801D01*
X014247Y012866D01*
X014277Y012928D01*
X014311Y012989D01*
X014348Y013048D01*
X014388Y013105D01*
X014431Y013160D01*
X014477Y013212D01*
X014526Y013261D01*
X014578Y013307D01*
X014632Y013351D01*
X014638Y013344D01*
X014584Y013300D01*
X014533Y013254D01*
X014484Y013205D01*
X014438Y013154D01*
X014395Y013100D01*
X014355Y013043D01*
X014319Y012985D01*
X014285Y012924D01*
X014255Y012862D01*
X014229Y012798D01*
X014207Y012733D01*
X014188Y012667D01*
X014172Y012599D01*
X014161Y012531D01*
X014153Y012463D01*
X014149Y012394D01*
X014150Y012325D01*
X014154Y012256D01*
X014161Y012187D01*
X014173Y012119D01*
X014188Y012052D01*
X014208Y011985D01*
X014231Y011920D01*
X014257Y011857D01*
X014287Y011794D01*
X014320Y011734D01*
X014357Y011676D01*
X014397Y011619D01*
X014440Y011565D01*
X014486Y011514D01*
X014535Y011465D01*
X014587Y011419D01*
X014641Y011376D01*
X014697Y011336D01*
X014756Y011300D01*
X014816Y011266D01*
X014878Y011236D01*
X014942Y011210D01*
X015007Y011187D01*
X015074Y011168D01*
X015141Y011153D01*
X015209Y011141D01*
X015278Y011133D01*
X015346Y011129D01*
X015416Y011129D01*
X015484Y011133D01*
X015553Y011141D01*
X015621Y011153D01*
X015688Y011168D01*
X015755Y011187D01*
X015820Y011210D01*
X015884Y011236D01*
X015946Y011266D01*
X016006Y011300D01*
X016065Y011336D01*
X016121Y011376D01*
X016175Y011419D01*
X016227Y011465D01*
X016276Y011514D01*
X016322Y011565D01*
X016365Y011619D01*
X016405Y011676D01*
X016442Y011734D01*
X016475Y011794D01*
X016505Y011857D01*
X016531Y011920D01*
X016554Y011985D01*
X016574Y012052D01*
X016589Y012119D01*
X016601Y012187D01*
X016608Y012256D01*
X016612Y012325D01*
X016613Y012394D01*
X016609Y012463D01*
X016601Y012531D01*
X016590Y012599D01*
X016574Y012667D01*
X016555Y012733D01*
X016533Y012798D01*
X016507Y012862D01*
X016477Y012924D01*
X016443Y012985D01*
X016407Y013043D01*
X016367Y013100D01*
X016324Y013154D01*
X016278Y013205D01*
X016229Y013254D01*
X016178Y013300D01*
X016124Y013344D01*
X016119Y013336D01*
X016173Y013293D01*
X016224Y013247D01*
X016273Y013197D01*
X016319Y013146D01*
X016362Y013091D01*
X016402Y013034D01*
X016438Y012976D01*
X016472Y012915D01*
X016501Y012852D01*
X016527Y012788D01*
X016549Y012722D01*
X016568Y012655D01*
X016583Y012588D01*
X016594Y012519D01*
X016601Y012450D01*
X016604Y012381D01*
X016603Y012312D01*
X016598Y012242D01*
X016590Y012174D01*
X016577Y012106D01*
X016561Y012038D01*
X016540Y011972D01*
X016517Y011907D01*
X016489Y011843D01*
X016458Y011781D01*
X016423Y011721D01*
X016385Y011663D01*
X016344Y011607D01*
X016300Y011554D01*
X016253Y011503D01*
X016203Y011455D01*
X016150Y011410D01*
X016095Y011368D01*
X016038Y011329D01*
X015978Y011294D01*
X015917Y011262D01*
X015854Y011233D01*
X015789Y011208D01*
X015723Y011187D01*
X015656Y011169D01*
X015588Y011156D01*
X015519Y011146D01*
X015450Y011140D01*
X015381Y011138D01*
X015312Y011140D01*
X015243Y011146D01*
X015174Y011156D01*
X015106Y011169D01*
X015039Y011187D01*
X014973Y011208D01*
X014908Y011233D01*
X014845Y011262D01*
X014784Y011294D01*
X014724Y011329D01*
X014667Y011368D01*
X014612Y011410D01*
X014559Y011455D01*
X014509Y011503D01*
X014462Y011554D01*
X014418Y011607D01*
X014377Y011663D01*
X014339Y011721D01*
X014304Y011781D01*
X014273Y011843D01*
X014245Y011907D01*
X014222Y011972D01*
X014201Y012038D01*
X014185Y012106D01*
X014172Y012174D01*
X014164Y012242D01*
X014159Y012312D01*
X014158Y012381D01*
X014161Y012450D01*
X014168Y012519D01*
X014179Y012588D01*
X014194Y012655D01*
X014213Y012722D01*
X014235Y012788D01*
X014261Y012852D01*
X014290Y012915D01*
X014324Y012976D01*
X014360Y013034D01*
X014400Y013091D01*
X014443Y013146D01*
X014489Y013197D01*
X014538Y013247D01*
X014589Y013293D01*
X014643Y013336D01*
X014649Y013329D01*
X014595Y013286D01*
X014544Y013240D01*
X014495Y013191D01*
X014450Y013140D01*
X014407Y013086D01*
X014368Y013029D01*
X014331Y012971D01*
X014298Y012911D01*
X014269Y012848D01*
X014243Y012785D01*
X014221Y012719D01*
X014203Y012653D01*
X014188Y012586D01*
X014177Y012518D01*
X014170Y012449D01*
X014167Y012381D01*
X014168Y012312D01*
X014173Y012243D01*
X014181Y012175D01*
X014194Y012107D01*
X014210Y012041D01*
X014230Y011975D01*
X014254Y011910D01*
X014281Y011847D01*
X014312Y011786D01*
X014346Y011726D01*
X014384Y011668D01*
X014425Y011613D01*
X014469Y011560D01*
X014516Y011510D01*
X014565Y011462D01*
X014617Y011417D01*
X014672Y011375D01*
X014729Y011337D01*
X014788Y011302D01*
X014849Y011270D01*
X014912Y011241D01*
X014976Y011217D01*
X015042Y011195D01*
X015108Y011178D01*
X015176Y011165D01*
X015244Y011155D01*
X015312Y011149D01*
X015381Y011147D01*
X015450Y011149D01*
X015518Y011155D01*
X015586Y011165D01*
X015654Y011178D01*
X015720Y011195D01*
X015786Y011217D01*
X015850Y011241D01*
X015913Y011270D01*
X015974Y011302D01*
X016033Y011337D01*
X016090Y011375D01*
X016145Y011417D01*
X016197Y011462D01*
X016246Y011510D01*
X016293Y011560D01*
X016337Y011613D01*
X016378Y011668D01*
X016416Y011726D01*
X016450Y011786D01*
X016481Y011847D01*
X016508Y011910D01*
X016532Y011975D01*
X016552Y012041D01*
X016568Y012107D01*
X016581Y012175D01*
X016589Y012243D01*
X016594Y012312D01*
X016595Y012381D01*
X016592Y012449D01*
X016585Y012518D01*
X016574Y012586D01*
X016559Y012653D01*
X016541Y012719D01*
X016519Y012785D01*
X016493Y012848D01*
X016464Y012911D01*
X016431Y012971D01*
X016394Y013029D01*
X016355Y013086D01*
X016312Y013140D01*
X016267Y013191D01*
X016218Y013240D01*
X016167Y013286D01*
X016113Y013329D01*
X014601Y007893D02*
X014655Y007821D01*
X014654Y007822D02*
X014601Y007779D01*
X014550Y007734D01*
X014502Y007685D01*
X014457Y007634D01*
X014414Y007580D01*
X014375Y007524D01*
X014339Y007466D01*
X014306Y007406D01*
X014277Y007345D01*
X014252Y007281D01*
X014230Y007217D01*
X014211Y007151D01*
X014197Y007084D01*
X014186Y007017D01*
X014179Y006949D01*
X014176Y006881D01*
X014177Y006812D01*
X014182Y006744D01*
X014190Y006676D01*
X014203Y006609D01*
X014219Y006543D01*
X014239Y006478D01*
X014262Y006413D01*
X014289Y006351D01*
X014320Y006290D01*
X014354Y006231D01*
X014391Y006173D01*
X014432Y006118D01*
X014476Y006066D01*
X014522Y006016D01*
X014571Y005969D01*
X014623Y005924D01*
X014677Y005883D01*
X014734Y005844D01*
X014793Y005809D01*
X014853Y005778D01*
X014915Y005750D01*
X014979Y005725D01*
X015044Y005704D01*
X015110Y005687D01*
X015177Y005673D01*
X015245Y005664D01*
X015313Y005658D01*
X015381Y005656D01*
X015449Y005658D01*
X015517Y005664D01*
X015585Y005673D01*
X015652Y005687D01*
X015718Y005704D01*
X015783Y005725D01*
X015847Y005750D01*
X015909Y005778D01*
X015969Y005809D01*
X016028Y005844D01*
X016085Y005883D01*
X016139Y005924D01*
X016191Y005969D01*
X016240Y006016D01*
X016286Y006066D01*
X016330Y006118D01*
X016371Y006173D01*
X016408Y006231D01*
X016442Y006290D01*
X016473Y006351D01*
X016500Y006413D01*
X016523Y006478D01*
X016543Y006543D01*
X016559Y006609D01*
X016572Y006676D01*
X016580Y006744D01*
X016585Y006812D01*
X016586Y006881D01*
X016583Y006949D01*
X016576Y007017D01*
X016565Y007084D01*
X016551Y007151D01*
X016532Y007217D01*
X016510Y007281D01*
X016485Y007345D01*
X016456Y007406D01*
X016423Y007466D01*
X016387Y007524D01*
X016348Y007580D01*
X016305Y007634D01*
X016260Y007685D01*
X016212Y007734D01*
X016161Y007779D01*
X016108Y007822D01*
X016161Y007893D01*
X016162Y007894D01*
X016217Y007850D01*
X016270Y007802D01*
X016321Y007752D01*
X016368Y007699D01*
X016412Y007644D01*
X016454Y007586D01*
X016492Y007526D01*
X016527Y007465D01*
X016558Y007401D01*
X016586Y007336D01*
X016610Y007269D01*
X016631Y007201D01*
X016647Y007132D01*
X016660Y007062D01*
X016669Y006992D01*
X016675Y006921D01*
X016676Y006850D01*
X016673Y006779D01*
X016667Y006708D01*
X016657Y006638D01*
X016643Y006569D01*
X016625Y006500D01*
X016603Y006432D01*
X016578Y006366D01*
X016549Y006301D01*
X016516Y006238D01*
X016480Y006177D01*
X016441Y006118D01*
X016399Y006061D01*
X016354Y006006D01*
X016305Y005954D01*
X016254Y005905D01*
X016201Y005858D01*
X016144Y005815D01*
X016086Y005775D01*
X016025Y005738D01*
X015963Y005704D01*
X015899Y005674D01*
X015833Y005647D01*
X015766Y005624D01*
X015697Y005605D01*
X015628Y005590D01*
X015558Y005578D01*
X015487Y005570D01*
X015416Y005566D01*
X015346Y005566D01*
X015275Y005570D01*
X015204Y005578D01*
X015134Y005590D01*
X015065Y005605D01*
X014996Y005624D01*
X014929Y005647D01*
X014863Y005674D01*
X014799Y005704D01*
X014737Y005738D01*
X014676Y005775D01*
X014618Y005815D01*
X014561Y005858D01*
X014508Y005905D01*
X014457Y005954D01*
X014408Y006006D01*
X014363Y006061D01*
X014321Y006118D01*
X014282Y006177D01*
X014246Y006238D01*
X014213Y006301D01*
X014184Y006366D01*
X014159Y006432D01*
X014137Y006500D01*
X014119Y006569D01*
X014105Y006638D01*
X014095Y006708D01*
X014089Y006779D01*
X014086Y006850D01*
X014087Y006921D01*
X014093Y006992D01*
X014102Y007062D01*
X014115Y007132D01*
X014131Y007201D01*
X014152Y007269D01*
X014176Y007336D01*
X014204Y007401D01*
X014235Y007465D01*
X014270Y007526D01*
X014308Y007586D01*
X014350Y007644D01*
X014394Y007699D01*
X014441Y007752D01*
X014492Y007802D01*
X014545Y007850D01*
X014600Y007894D01*
X014605Y007887D01*
X014550Y007842D01*
X014497Y007795D01*
X014446Y007744D01*
X014399Y007691D01*
X014354Y007635D01*
X014313Y007577D01*
X014275Y007517D01*
X014240Y007455D01*
X014209Y007391D01*
X014182Y007325D01*
X014158Y007258D01*
X014138Y007189D01*
X014121Y007120D01*
X014109Y007050D01*
X014100Y006979D01*
X014096Y006908D01*
X014095Y006837D01*
X014099Y006766D01*
X014106Y006695D01*
X014117Y006624D01*
X014132Y006555D01*
X014151Y006486D01*
X014174Y006418D01*
X014200Y006352D01*
X014230Y006287D01*
X014264Y006225D01*
X014300Y006164D01*
X014341Y006105D01*
X014384Y006048D01*
X014431Y005994D01*
X014480Y005943D01*
X014533Y005895D01*
X014587Y005849D01*
X014645Y005807D01*
X014704Y005768D01*
X014766Y005732D01*
X014829Y005699D01*
X014894Y005671D01*
X014961Y005645D01*
X015029Y005624D01*
X015098Y005606D01*
X015168Y005593D01*
X015239Y005583D01*
X015310Y005577D01*
X015381Y005575D01*
X015452Y005577D01*
X015523Y005583D01*
X015594Y005593D01*
X015664Y005606D01*
X015733Y005624D01*
X015801Y005645D01*
X015868Y005671D01*
X015933Y005699D01*
X015996Y005732D01*
X016058Y005768D01*
X016117Y005807D01*
X016175Y005849D01*
X016229Y005895D01*
X016282Y005943D01*
X016331Y005994D01*
X016378Y006048D01*
X016421Y006105D01*
X016462Y006164D01*
X016498Y006225D01*
X016532Y006287D01*
X016562Y006352D01*
X016588Y006418D01*
X016611Y006486D01*
X016630Y006555D01*
X016645Y006624D01*
X016656Y006695D01*
X016663Y006766D01*
X016667Y006837D01*
X016666Y006908D01*
X016662Y006979D01*
X016653Y007050D01*
X016641Y007120D01*
X016624Y007189D01*
X016604Y007258D01*
X016580Y007325D01*
X016553Y007391D01*
X016522Y007455D01*
X016487Y007517D01*
X016449Y007577D01*
X016408Y007635D01*
X016363Y007691D01*
X016316Y007744D01*
X016265Y007795D01*
X016212Y007842D01*
X016157Y007887D01*
X016151Y007880D01*
X016206Y007835D01*
X016259Y007788D01*
X016309Y007738D01*
X016356Y007685D01*
X016400Y007630D01*
X016442Y007572D01*
X016479Y007513D01*
X016514Y007451D01*
X016545Y007387D01*
X016572Y007322D01*
X016596Y007255D01*
X016616Y007187D01*
X016632Y007118D01*
X016644Y007049D01*
X016653Y006978D01*
X016657Y006908D01*
X016658Y006837D01*
X016654Y006766D01*
X016647Y006696D01*
X016636Y006626D01*
X016621Y006557D01*
X016602Y006489D01*
X016580Y006421D01*
X016554Y006356D01*
X016524Y006291D01*
X016491Y006229D01*
X016454Y006169D01*
X016414Y006110D01*
X016371Y006054D01*
X016325Y006000D01*
X016275Y005950D01*
X016224Y005901D01*
X016169Y005856D01*
X016112Y005814D01*
X016053Y005775D01*
X015992Y005740D01*
X015929Y005707D01*
X015864Y005679D01*
X015798Y005654D01*
X015730Y005633D01*
X015662Y005615D01*
X015592Y005602D01*
X015522Y005592D01*
X015452Y005586D01*
X015381Y005584D01*
X015310Y005586D01*
X015240Y005592D01*
X015170Y005602D01*
X015100Y005615D01*
X015032Y005633D01*
X014964Y005654D01*
X014898Y005679D01*
X014833Y005707D01*
X014770Y005740D01*
X014709Y005775D01*
X014650Y005814D01*
X014593Y005856D01*
X014538Y005901D01*
X014487Y005950D01*
X014437Y006000D01*
X014391Y006054D01*
X014348Y006110D01*
X014308Y006169D01*
X014271Y006229D01*
X014238Y006291D01*
X014208Y006356D01*
X014182Y006421D01*
X014160Y006489D01*
X014141Y006557D01*
X014126Y006626D01*
X014115Y006696D01*
X014108Y006766D01*
X014104Y006837D01*
X014105Y006908D01*
X014109Y006978D01*
X014118Y007049D01*
X014130Y007118D01*
X014146Y007187D01*
X014166Y007255D01*
X014190Y007322D01*
X014217Y007387D01*
X014248Y007451D01*
X014283Y007513D01*
X014320Y007572D01*
X014362Y007630D01*
X014406Y007685D01*
X014453Y007738D01*
X014503Y007788D01*
X014556Y007835D01*
X014611Y007880D01*
X014616Y007872D01*
X014561Y007828D01*
X014508Y007780D01*
X014458Y007730D01*
X014410Y007677D01*
X014366Y007621D01*
X014325Y007563D01*
X014288Y007503D01*
X014253Y007441D01*
X014223Y007377D01*
X014196Y007311D01*
X014172Y007244D01*
X014153Y007176D01*
X014137Y007106D01*
X014125Y007036D01*
X014117Y006966D01*
X014113Y006895D01*
X014114Y006824D01*
X014118Y006753D01*
X014126Y006682D01*
X014138Y006612D01*
X014154Y006543D01*
X014173Y006475D01*
X014197Y006407D01*
X014224Y006342D01*
X014255Y006278D01*
X014289Y006216D01*
X014327Y006156D01*
X014369Y006098D01*
X014413Y006042D01*
X014460Y005989D01*
X014511Y005939D01*
X014564Y005892D01*
X014619Y005847D01*
X014677Y005806D01*
X014737Y005769D01*
X014800Y005734D01*
X014864Y005703D01*
X014929Y005676D01*
X014996Y005653D01*
X015065Y005633D01*
X015134Y005617D01*
X015204Y005605D01*
X015275Y005597D01*
X015345Y005593D01*
X015417Y005593D01*
X015487Y005597D01*
X015558Y005605D01*
X015628Y005617D01*
X015697Y005633D01*
X015766Y005653D01*
X015833Y005676D01*
X015898Y005703D01*
X015962Y005734D01*
X016025Y005769D01*
X016085Y005806D01*
X016143Y005847D01*
X016198Y005892D01*
X016251Y005939D01*
X016302Y005989D01*
X016349Y006042D01*
X016393Y006098D01*
X016435Y006156D01*
X016473Y006216D01*
X016507Y006278D01*
X016538Y006342D01*
X016565Y006407D01*
X016589Y006475D01*
X016608Y006543D01*
X016624Y006612D01*
X016636Y006682D01*
X016644Y006753D01*
X016648Y006824D01*
X016649Y006895D01*
X016645Y006966D01*
X016637Y007036D01*
X016625Y007106D01*
X016609Y007176D01*
X016590Y007244D01*
X016566Y007311D01*
X016539Y007377D01*
X016509Y007441D01*
X016474Y007503D01*
X016437Y007563D01*
X016396Y007621D01*
X016352Y007677D01*
X016304Y007730D01*
X016254Y007780D01*
X016201Y007828D01*
X016146Y007872D01*
X016140Y007865D01*
X016195Y007821D01*
X016248Y007774D01*
X016298Y007724D01*
X016345Y007671D01*
X016389Y007616D01*
X016429Y007558D01*
X016467Y007499D01*
X016501Y007437D01*
X016531Y007373D01*
X016558Y007308D01*
X016581Y007241D01*
X016601Y007173D01*
X016616Y007105D01*
X016628Y007035D01*
X016636Y006965D01*
X016640Y006894D01*
X016639Y006824D01*
X016635Y006753D01*
X016627Y006683D01*
X016615Y006614D01*
X016600Y006545D01*
X016580Y006477D01*
X016557Y006411D01*
X016530Y006346D01*
X016499Y006282D01*
X016465Y006220D01*
X016427Y006161D01*
X016386Y006103D01*
X016342Y006048D01*
X016295Y005995D01*
X016245Y005946D01*
X016193Y005899D01*
X016137Y005855D01*
X016080Y005814D01*
X016020Y005776D01*
X015958Y005742D01*
X015895Y005712D01*
X015830Y005685D01*
X015763Y005661D01*
X015695Y005642D01*
X015626Y005626D01*
X015557Y005614D01*
X015487Y005606D01*
X015416Y005602D01*
X015346Y005602D01*
X015275Y005606D01*
X015205Y005614D01*
X015136Y005626D01*
X015067Y005642D01*
X014999Y005661D01*
X014932Y005685D01*
X014867Y005712D01*
X014804Y005742D01*
X014742Y005776D01*
X014682Y005814D01*
X014625Y005855D01*
X014569Y005899D01*
X014517Y005946D01*
X014467Y005995D01*
X014420Y006048D01*
X014376Y006103D01*
X014335Y006161D01*
X014297Y006220D01*
X014263Y006282D01*
X014232Y006346D01*
X014205Y006411D01*
X014182Y006477D01*
X014162Y006545D01*
X014147Y006614D01*
X014135Y006683D01*
X014127Y006753D01*
X014123Y006824D01*
X014122Y006894D01*
X014126Y006965D01*
X014134Y007035D01*
X014146Y007105D01*
X014161Y007173D01*
X014181Y007241D01*
X014204Y007308D01*
X014231Y007373D01*
X014261Y007437D01*
X014295Y007499D01*
X014333Y007558D01*
X014373Y007616D01*
X014417Y007671D01*
X014464Y007724D01*
X014514Y007774D01*
X014567Y007821D01*
X014622Y007865D01*
X014627Y007858D01*
X014572Y007814D01*
X014520Y007767D01*
X014471Y007718D01*
X014424Y007665D01*
X014381Y007611D01*
X014340Y007553D01*
X014303Y007494D01*
X014269Y007433D01*
X014239Y007369D01*
X014212Y007305D01*
X014189Y007238D01*
X014170Y007171D01*
X014155Y007103D01*
X014143Y007034D01*
X014135Y006964D01*
X014131Y006894D01*
X014132Y006824D01*
X014136Y006754D01*
X014144Y006685D01*
X014155Y006616D01*
X014171Y006547D01*
X014190Y006480D01*
X014214Y006414D01*
X014241Y006349D01*
X014271Y006286D01*
X014305Y006225D01*
X014342Y006166D01*
X014383Y006108D01*
X014427Y006054D01*
X014473Y006002D01*
X014523Y005952D01*
X014575Y005905D01*
X014630Y005862D01*
X014687Y005821D01*
X014746Y005784D01*
X014808Y005750D01*
X014871Y005720D01*
X014936Y005693D01*
X015002Y005670D01*
X015069Y005651D01*
X015137Y005635D01*
X015206Y005623D01*
X015276Y005615D01*
X015346Y005611D01*
X015416Y005611D01*
X015486Y005615D01*
X015556Y005623D01*
X015625Y005635D01*
X015693Y005651D01*
X015760Y005670D01*
X015826Y005693D01*
X015891Y005720D01*
X015954Y005750D01*
X016016Y005784D01*
X016075Y005821D01*
X016132Y005862D01*
X016187Y005905D01*
X016239Y005952D01*
X016289Y006002D01*
X016335Y006054D01*
X016379Y006108D01*
X016420Y006166D01*
X016457Y006225D01*
X016491Y006286D01*
X016521Y006349D01*
X016548Y006414D01*
X016572Y006480D01*
X016591Y006547D01*
X016607Y006616D01*
X016618Y006685D01*
X016626Y006754D01*
X016630Y006824D01*
X016631Y006894D01*
X016627Y006964D01*
X016619Y007034D01*
X016607Y007103D01*
X016592Y007171D01*
X016573Y007238D01*
X016550Y007305D01*
X016523Y007369D01*
X016493Y007433D01*
X016459Y007494D01*
X016422Y007553D01*
X016381Y007611D01*
X016338Y007665D01*
X016291Y007718D01*
X016242Y007767D01*
X016190Y007814D01*
X016135Y007858D01*
X016130Y007851D01*
X016184Y007807D01*
X016236Y007761D01*
X016285Y007712D01*
X016331Y007660D01*
X016374Y007605D01*
X016414Y007548D01*
X016451Y007489D01*
X016485Y007428D01*
X016515Y007366D01*
X016541Y007301D01*
X016564Y007236D01*
X016583Y007169D01*
X016599Y007101D01*
X016610Y007032D01*
X016618Y006963D01*
X016622Y006894D01*
X016621Y006824D01*
X016617Y006755D01*
X016610Y006686D01*
X016598Y006617D01*
X016582Y006550D01*
X016563Y006483D01*
X016540Y006417D01*
X016513Y006353D01*
X016483Y006290D01*
X016449Y006229D01*
X016412Y006171D01*
X016372Y006114D01*
X016329Y006060D01*
X016282Y006008D01*
X016233Y005959D01*
X016181Y005912D01*
X016127Y005869D01*
X016070Y005829D01*
X016011Y005792D01*
X015950Y005758D01*
X015887Y005728D01*
X015823Y005701D01*
X015758Y005678D01*
X015691Y005659D01*
X015623Y005644D01*
X015554Y005632D01*
X015485Y005624D01*
X015416Y005620D01*
X015346Y005620D01*
X015277Y005624D01*
X015208Y005632D01*
X015139Y005644D01*
X015071Y005659D01*
X015004Y005678D01*
X014939Y005701D01*
X014875Y005728D01*
X014812Y005758D01*
X014751Y005792D01*
X014692Y005829D01*
X014635Y005869D01*
X014581Y005912D01*
X014529Y005959D01*
X014480Y006008D01*
X014433Y006060D01*
X014390Y006114D01*
X014350Y006171D01*
X014313Y006229D01*
X014279Y006290D01*
X014249Y006353D01*
X014222Y006417D01*
X014199Y006483D01*
X014180Y006550D01*
X014164Y006617D01*
X014152Y006686D01*
X014145Y006755D01*
X014141Y006824D01*
X014140Y006894D01*
X014144Y006963D01*
X014152Y007032D01*
X014163Y007101D01*
X014179Y007169D01*
X014198Y007236D01*
X014221Y007301D01*
X014247Y007366D01*
X014277Y007428D01*
X014311Y007489D01*
X014348Y007548D01*
X014388Y007605D01*
X014431Y007660D01*
X014477Y007712D01*
X014526Y007761D01*
X014578Y007807D01*
X014632Y007851D01*
X014638Y007844D01*
X014584Y007800D01*
X014533Y007754D01*
X014484Y007705D01*
X014438Y007654D01*
X014395Y007600D01*
X014355Y007543D01*
X014319Y007485D01*
X014285Y007424D01*
X014255Y007362D01*
X014229Y007298D01*
X014207Y007233D01*
X014188Y007167D01*
X014172Y007099D01*
X014161Y007031D01*
X014153Y006963D01*
X014149Y006894D01*
X014150Y006825D01*
X014154Y006756D01*
X014161Y006687D01*
X014173Y006619D01*
X014188Y006552D01*
X014208Y006485D01*
X014231Y006420D01*
X014257Y006357D01*
X014287Y006294D01*
X014320Y006234D01*
X014357Y006176D01*
X014397Y006119D01*
X014440Y006065D01*
X014486Y006014D01*
X014535Y005965D01*
X014587Y005919D01*
X014641Y005876D01*
X014697Y005836D01*
X014756Y005800D01*
X014816Y005766D01*
X014878Y005736D01*
X014942Y005710D01*
X015007Y005687D01*
X015074Y005668D01*
X015141Y005653D01*
X015209Y005641D01*
X015278Y005633D01*
X015346Y005629D01*
X015416Y005629D01*
X015484Y005633D01*
X015553Y005641D01*
X015621Y005653D01*
X015688Y005668D01*
X015755Y005687D01*
X015820Y005710D01*
X015884Y005736D01*
X015946Y005766D01*
X016006Y005800D01*
X016065Y005836D01*
X016121Y005876D01*
X016175Y005919D01*
X016227Y005965D01*
X016276Y006014D01*
X016322Y006065D01*
X016365Y006119D01*
X016405Y006176D01*
X016442Y006234D01*
X016475Y006294D01*
X016505Y006357D01*
X016531Y006420D01*
X016554Y006485D01*
X016574Y006552D01*
X016589Y006619D01*
X016601Y006687D01*
X016608Y006756D01*
X016612Y006825D01*
X016613Y006894D01*
X016609Y006963D01*
X016601Y007031D01*
X016590Y007099D01*
X016574Y007167D01*
X016555Y007233D01*
X016533Y007298D01*
X016507Y007362D01*
X016477Y007424D01*
X016443Y007485D01*
X016407Y007543D01*
X016367Y007600D01*
X016324Y007654D01*
X016278Y007705D01*
X016229Y007754D01*
X016178Y007800D01*
X016124Y007844D01*
X016119Y007836D01*
X016173Y007793D01*
X016224Y007747D01*
X016273Y007697D01*
X016319Y007646D01*
X016362Y007591D01*
X016402Y007534D01*
X016438Y007476D01*
X016472Y007415D01*
X016501Y007352D01*
X016527Y007288D01*
X016549Y007222D01*
X016568Y007155D01*
X016583Y007088D01*
X016594Y007019D01*
X016601Y006950D01*
X016604Y006881D01*
X016603Y006812D01*
X016598Y006742D01*
X016590Y006674D01*
X016577Y006606D01*
X016561Y006538D01*
X016540Y006472D01*
X016517Y006407D01*
X016489Y006343D01*
X016458Y006281D01*
X016423Y006221D01*
X016385Y006163D01*
X016344Y006107D01*
X016300Y006054D01*
X016253Y006003D01*
X016203Y005955D01*
X016150Y005910D01*
X016095Y005868D01*
X016038Y005829D01*
X015978Y005794D01*
X015917Y005762D01*
X015854Y005733D01*
X015789Y005708D01*
X015723Y005687D01*
X015656Y005669D01*
X015588Y005656D01*
X015519Y005646D01*
X015450Y005640D01*
X015381Y005638D01*
X015312Y005640D01*
X015243Y005646D01*
X015174Y005656D01*
X015106Y005669D01*
X015039Y005687D01*
X014973Y005708D01*
X014908Y005733D01*
X014845Y005762D01*
X014784Y005794D01*
X014724Y005829D01*
X014667Y005868D01*
X014612Y005910D01*
X014559Y005955D01*
X014509Y006003D01*
X014462Y006054D01*
X014418Y006107D01*
X014377Y006163D01*
X014339Y006221D01*
X014304Y006281D01*
X014273Y006343D01*
X014245Y006407D01*
X014222Y006472D01*
X014201Y006538D01*
X014185Y006606D01*
X014172Y006674D01*
X014164Y006742D01*
X014159Y006812D01*
X014158Y006881D01*
X014161Y006950D01*
X014168Y007019D01*
X014179Y007088D01*
X014194Y007155D01*
X014213Y007222D01*
X014235Y007288D01*
X014261Y007352D01*
X014290Y007415D01*
X014324Y007476D01*
X014360Y007534D01*
X014400Y007591D01*
X014443Y007646D01*
X014489Y007697D01*
X014538Y007747D01*
X014589Y007793D01*
X014643Y007836D01*
X014649Y007829D01*
X014595Y007786D01*
X014544Y007740D01*
X014495Y007691D01*
X014450Y007640D01*
X014407Y007586D01*
X014368Y007529D01*
X014331Y007471D01*
X014298Y007411D01*
X014269Y007348D01*
X014243Y007285D01*
X014221Y007219D01*
X014203Y007153D01*
X014188Y007086D01*
X014177Y007018D01*
X014170Y006949D01*
X014167Y006881D01*
X014168Y006812D01*
X014173Y006743D01*
X014181Y006675D01*
X014194Y006607D01*
X014210Y006541D01*
X014230Y006475D01*
X014254Y006410D01*
X014281Y006347D01*
X014312Y006286D01*
X014346Y006226D01*
X014384Y006168D01*
X014425Y006113D01*
X014469Y006060D01*
X014516Y006010D01*
X014565Y005962D01*
X014617Y005917D01*
X014672Y005875D01*
X014729Y005837D01*
X014788Y005802D01*
X014849Y005770D01*
X014912Y005741D01*
X014976Y005717D01*
X015042Y005695D01*
X015108Y005678D01*
X015176Y005665D01*
X015244Y005655D01*
X015312Y005649D01*
X015381Y005647D01*
X015450Y005649D01*
X015518Y005655D01*
X015586Y005665D01*
X015654Y005678D01*
X015720Y005695D01*
X015786Y005717D01*
X015850Y005741D01*
X015913Y005770D01*
X015974Y005802D01*
X016033Y005837D01*
X016090Y005875D01*
X016145Y005917D01*
X016197Y005962D01*
X016246Y006010D01*
X016293Y006060D01*
X016337Y006113D01*
X016378Y006168D01*
X016416Y006226D01*
X016450Y006286D01*
X016481Y006347D01*
X016508Y006410D01*
X016532Y006475D01*
X016552Y006541D01*
X016568Y006607D01*
X016581Y006675D01*
X016589Y006743D01*
X016594Y006812D01*
X016595Y006881D01*
X016592Y006949D01*
X016585Y007018D01*
X016574Y007086D01*
X016559Y007153D01*
X016541Y007219D01*
X016519Y007285D01*
X016493Y007348D01*
X016464Y007411D01*
X016431Y007471D01*
X016394Y007529D01*
X016355Y007586D01*
X016312Y007640D01*
X016267Y007691D01*
X016218Y007740D01*
X016167Y007786D01*
X016113Y007829D01*
D120*
X016139Y008563D02*
X016077Y008625D01*
X016139Y008563D02*
X016262Y008563D01*
X016324Y008625D01*
X016324Y008687D01*
X016262Y008749D01*
X016139Y008749D01*
X016077Y008810D01*
X016077Y008872D01*
X016139Y008934D01*
X016262Y008934D01*
X016324Y008872D01*
X016445Y008934D02*
X016445Y008563D01*
X016445Y008749D02*
X016692Y008749D01*
X016692Y008934D02*
X016692Y008563D01*
X016813Y008563D02*
X016937Y008687D01*
X017060Y008563D01*
X017060Y008934D01*
X016813Y008934D02*
X016813Y008563D01*
X015955Y008625D02*
X015955Y008872D01*
X015894Y008934D01*
X015770Y008934D01*
X015709Y008872D01*
X015709Y008625D01*
X015770Y008563D01*
X015894Y008563D01*
X015955Y008625D01*
X011879Y010741D02*
X011633Y010741D01*
X011756Y010741D02*
X011756Y011111D01*
X011633Y010988D01*
X011511Y011049D02*
X011449Y011111D01*
X011264Y011111D01*
X011264Y010741D01*
X011264Y010864D02*
X011449Y010864D01*
X011511Y010926D01*
X011511Y011049D01*
X011143Y011049D02*
X011081Y011111D01*
X010958Y011111D01*
X010896Y011049D01*
X010896Y010988D01*
X010958Y010926D01*
X011081Y010926D01*
X011143Y010864D01*
X011143Y010803D01*
X011081Y010741D01*
X010958Y010741D01*
X010896Y010803D01*
X010432Y010361D02*
X010493Y010299D01*
X010493Y010053D01*
X010432Y009991D01*
X010308Y009991D01*
X010246Y010053D01*
X010246Y010299D01*
X010308Y010361D01*
X010432Y010361D01*
X010125Y010361D02*
X010125Y010299D01*
X009878Y010053D01*
X009878Y009991D01*
X010125Y009991D01*
X009757Y009991D02*
X009510Y009991D01*
X009510Y010361D01*
X009757Y010361D01*
X009878Y010361D02*
X010125Y010361D01*
X009633Y010176D02*
X009510Y010176D01*
X009388Y009991D02*
X009264Y009991D01*
X009326Y009991D02*
X009326Y010361D01*
X009264Y010361D02*
X009388Y010361D01*
X009143Y010299D02*
X009143Y010176D01*
X009081Y010114D01*
X008896Y010114D01*
X008896Y009991D02*
X008896Y010361D01*
X009081Y010361D01*
X009143Y010299D01*
X009133Y009611D02*
X009133Y009241D01*
X009379Y009241D01*
X009501Y009241D02*
X009501Y009488D01*
X009624Y009611D01*
X009748Y009488D01*
X009748Y009241D01*
X009869Y009241D02*
X009869Y009611D01*
X009931Y009426D02*
X010116Y009241D01*
X010238Y009241D02*
X010484Y009241D01*
X010606Y009241D02*
X010606Y009611D01*
X010791Y009611D01*
X010853Y009549D01*
X010853Y009426D01*
X010791Y009364D01*
X010606Y009364D01*
X010729Y009364D02*
X010853Y009241D01*
X010484Y009611D02*
X010238Y009611D01*
X010238Y009241D01*
X010238Y009426D02*
X010361Y009426D01*
X010116Y009611D02*
X009869Y009364D01*
X009748Y009426D02*
X009501Y009426D01*
X009379Y009611D02*
X009133Y009611D01*
X009011Y009549D02*
X009011Y009426D01*
X008949Y009364D01*
X008764Y009364D01*
X008643Y009364D02*
X008643Y009303D01*
X008581Y009241D01*
X008458Y009241D01*
X008396Y009303D01*
X008458Y009426D02*
X008581Y009426D01*
X008643Y009364D01*
X008764Y009241D02*
X008764Y009611D01*
X008949Y009611D01*
X009011Y009549D01*
X009133Y009426D02*
X009256Y009426D01*
X008643Y009549D02*
X008581Y009611D01*
X008458Y009611D01*
X008396Y009549D01*
X008396Y009488D01*
X008458Y009426D01*
D121*
X008174Y011838D02*
X005497Y013492D01*
X005497Y014358D01*
X004631Y013361D02*
X003131Y013361D01*
X002781Y015661D02*
X001976Y015661D01*
X001181Y016011D02*
X001181Y017711D01*
X001988Y018061D02*
X002781Y018061D01*
X003581Y017711D02*
X003581Y016011D01*
X001681Y016861D02*
X001683Y016913D01*
X001689Y016965D01*
X001699Y017017D01*
X001712Y017067D01*
X001729Y017117D01*
X001750Y017165D01*
X001775Y017211D01*
X001803Y017255D01*
X001834Y017297D01*
X001868Y017337D01*
X001905Y017374D01*
X001945Y017408D01*
X001987Y017439D01*
X002031Y017467D01*
X002077Y017492D01*
X002125Y017513D01*
X002175Y017530D01*
X002225Y017543D01*
X002277Y017553D01*
X002329Y017559D01*
X002381Y017561D01*
X002433Y017559D01*
X002485Y017553D01*
X002537Y017543D01*
X002587Y017530D01*
X002637Y017513D01*
X002685Y017492D01*
X002731Y017467D01*
X002775Y017439D01*
X002817Y017408D01*
X002857Y017374D01*
X002894Y017337D01*
X002928Y017297D01*
X002959Y017255D01*
X002987Y017211D01*
X003012Y017165D01*
X003033Y017117D01*
X003050Y017067D01*
X003063Y017017D01*
X003073Y016965D01*
X003079Y016913D01*
X003081Y016861D01*
X003079Y016809D01*
X003073Y016757D01*
X003063Y016705D01*
X003050Y016655D01*
X003033Y016605D01*
X003012Y016557D01*
X002987Y016511D01*
X002959Y016467D01*
X002928Y016425D01*
X002894Y016385D01*
X002857Y016348D01*
X002817Y016314D01*
X002775Y016283D01*
X002731Y016255D01*
X002685Y016230D01*
X002637Y016209D01*
X002587Y016192D01*
X002537Y016179D01*
X002485Y016169D01*
X002433Y016163D01*
X002381Y016161D01*
X002329Y016163D01*
X002277Y016169D01*
X002225Y016179D01*
X002175Y016192D01*
X002125Y016209D01*
X002077Y016230D01*
X002031Y016255D01*
X001987Y016283D01*
X001945Y016314D01*
X001905Y016348D01*
X001868Y016385D01*
X001834Y016425D01*
X001803Y016467D01*
X001775Y016511D01*
X001750Y016557D01*
X001729Y016605D01*
X001712Y016655D01*
X001699Y016705D01*
X001689Y016757D01*
X001683Y016809D01*
X001681Y016861D01*
X005497Y017114D02*
X005497Y017822D01*
X005498Y017823D02*
X005499Y017890D01*
X005504Y017958D01*
X005513Y018025D01*
X005525Y018092D01*
X005542Y018157D01*
X005562Y018222D01*
X005586Y018285D01*
X005614Y018347D01*
X005645Y018407D01*
X005680Y018466D01*
X005718Y018522D01*
X005759Y018576D01*
X005803Y018627D01*
X005850Y018676D01*
X005900Y018722D01*
X005952Y018765D01*
X006007Y018804D01*
X006064Y018841D01*
X006123Y018874D01*
X006184Y018904D01*
X006247Y018930D01*
X006311Y018953D01*
X006376Y018971D01*
X006442Y018986D01*
X006509Y018997D01*
X006576Y019005D01*
X006644Y019008D01*
X006712Y019007D01*
X006779Y019003D01*
X006846Y018994D01*
X006913Y018982D01*
X006979Y018965D01*
X007044Y018945D01*
X007107Y018922D01*
X007169Y018894D01*
X007229Y018863D01*
X007288Y018829D01*
X007344Y018791D01*
X007398Y018750D01*
X007450Y018706D01*
X007498Y018659D01*
X007545Y018610D01*
X007544Y018611D02*
X007642Y018512D01*
X007745Y018419D01*
X007852Y018330D01*
X007964Y018247D01*
X008079Y018169D01*
X008197Y018097D01*
X008320Y018031D01*
X008445Y017970D01*
X008573Y017916D01*
X008703Y017868D01*
X008836Y017826D01*
X008970Y017791D01*
X009106Y017762D01*
X009243Y017740D01*
X009381Y017725D01*
X009520Y017716D01*
X009659Y017714D01*
X009798Y017719D01*
X009936Y017730D01*
X010074Y017748D01*
X010211Y017773D01*
X010346Y017804D01*
X010480Y017842D01*
X010612Y017886D01*
X010741Y017936D01*
X010868Y017993D01*
X010992Y018056D01*
X011113Y018124D01*
X011230Y018198D01*
X011344Y018278D01*
X011454Y018364D01*
X011559Y018454D01*
X011660Y018550D01*
X011756Y018650D01*
X011717Y018610D02*
X011764Y018658D01*
X011813Y018704D01*
X011865Y018746D01*
X011920Y018786D01*
X011976Y018822D01*
X012034Y018855D01*
X012095Y018885D01*
X012156Y018911D01*
X012220Y018934D01*
X012284Y018953D01*
X012349Y018968D01*
X012415Y018980D01*
X012482Y018987D01*
X012549Y018991D01*
X012616Y018992D01*
X012683Y018988D01*
X012750Y018981D01*
X012816Y018969D01*
X012881Y018954D01*
X012946Y018936D01*
X013009Y018913D01*
X013071Y018888D01*
X013132Y018858D01*
X013190Y018825D01*
X013247Y018789D01*
X013301Y018750D01*
X013353Y018708D01*
X013403Y018663D01*
X013450Y018615D01*
X013494Y018565D01*
X013536Y018512D01*
X013574Y018457D01*
X013609Y018399D01*
X013641Y018340D01*
X013669Y018279D01*
X013694Y018217D01*
X013715Y018153D01*
X013732Y018088D01*
X013746Y018023D01*
X013756Y017956D01*
X013763Y017890D01*
X013765Y017822D01*
X013765Y017114D01*
X015681Y017711D02*
X015681Y016011D01*
X016476Y015661D02*
X017281Y015661D01*
X018081Y016011D02*
X018081Y017711D01*
X017281Y018061D02*
X016488Y018061D01*
X016181Y016861D02*
X016183Y016913D01*
X016189Y016965D01*
X016199Y017017D01*
X016212Y017067D01*
X016229Y017117D01*
X016250Y017165D01*
X016275Y017211D01*
X016303Y017255D01*
X016334Y017297D01*
X016368Y017337D01*
X016405Y017374D01*
X016445Y017408D01*
X016487Y017439D01*
X016531Y017467D01*
X016577Y017492D01*
X016625Y017513D01*
X016675Y017530D01*
X016725Y017543D01*
X016777Y017553D01*
X016829Y017559D01*
X016881Y017561D01*
X016933Y017559D01*
X016985Y017553D01*
X017037Y017543D01*
X017087Y017530D01*
X017137Y017513D01*
X017185Y017492D01*
X017231Y017467D01*
X017275Y017439D01*
X017317Y017408D01*
X017357Y017374D01*
X017394Y017337D01*
X017428Y017297D01*
X017459Y017255D01*
X017487Y017211D01*
X017512Y017165D01*
X017533Y017117D01*
X017550Y017067D01*
X017563Y017017D01*
X017573Y016965D01*
X017579Y016913D01*
X017581Y016861D01*
X017579Y016809D01*
X017573Y016757D01*
X017563Y016705D01*
X017550Y016655D01*
X017533Y016605D01*
X017512Y016557D01*
X017487Y016511D01*
X017459Y016467D01*
X017428Y016425D01*
X017394Y016385D01*
X017357Y016348D01*
X017317Y016314D01*
X017275Y016283D01*
X017231Y016255D01*
X017185Y016230D01*
X017137Y016209D01*
X017087Y016192D01*
X017037Y016179D01*
X016985Y016169D01*
X016933Y016163D01*
X016881Y016161D01*
X016829Y016163D01*
X016777Y016169D01*
X016725Y016179D01*
X016675Y016192D01*
X016625Y016209D01*
X016577Y016230D01*
X016531Y016255D01*
X016487Y016283D01*
X016445Y016314D01*
X016405Y016348D01*
X016368Y016385D01*
X016334Y016425D01*
X016303Y016467D01*
X016275Y016511D01*
X016250Y016557D01*
X016229Y016605D01*
X016212Y016655D01*
X016199Y016705D01*
X016189Y016757D01*
X016183Y016809D01*
X016181Y016861D01*
X013765Y014358D02*
X013765Y013492D01*
X011088Y011838D01*
X008174Y011838D01*
X004631Y007861D02*
X003131Y007861D01*
X002781Y003561D02*
X001988Y003561D01*
X001181Y003211D02*
X001181Y001511D01*
X001976Y001161D02*
X002781Y001161D01*
X003581Y001511D02*
X003581Y003211D01*
X001681Y002361D02*
X001683Y002413D01*
X001689Y002465D01*
X001699Y002517D01*
X001712Y002567D01*
X001729Y002617D01*
X001750Y002665D01*
X001775Y002711D01*
X001803Y002755D01*
X001834Y002797D01*
X001868Y002837D01*
X001905Y002874D01*
X001945Y002908D01*
X001987Y002939D01*
X002031Y002967D01*
X002077Y002992D01*
X002125Y003013D01*
X002175Y003030D01*
X002225Y003043D01*
X002277Y003053D01*
X002329Y003059D01*
X002381Y003061D01*
X002433Y003059D01*
X002485Y003053D01*
X002537Y003043D01*
X002587Y003030D01*
X002637Y003013D01*
X002685Y002992D01*
X002731Y002967D01*
X002775Y002939D01*
X002817Y002908D01*
X002857Y002874D01*
X002894Y002837D01*
X002928Y002797D01*
X002959Y002755D01*
X002987Y002711D01*
X003012Y002665D01*
X003033Y002617D01*
X003050Y002567D01*
X003063Y002517D01*
X003073Y002465D01*
X003079Y002413D01*
X003081Y002361D01*
X003079Y002309D01*
X003073Y002257D01*
X003063Y002205D01*
X003050Y002155D01*
X003033Y002105D01*
X003012Y002057D01*
X002987Y002011D01*
X002959Y001967D01*
X002928Y001925D01*
X002894Y001885D01*
X002857Y001848D01*
X002817Y001814D01*
X002775Y001783D01*
X002731Y001755D01*
X002685Y001730D01*
X002637Y001709D01*
X002587Y001692D01*
X002537Y001679D01*
X002485Y001669D01*
X002433Y001663D01*
X002381Y001661D01*
X002329Y001663D01*
X002277Y001669D01*
X002225Y001679D01*
X002175Y001692D01*
X002125Y001709D01*
X002077Y001730D01*
X002031Y001755D01*
X001987Y001783D01*
X001945Y001814D01*
X001905Y001848D01*
X001868Y001885D01*
X001834Y001925D01*
X001803Y001967D01*
X001775Y002011D01*
X001750Y002057D01*
X001729Y002105D01*
X001712Y002155D01*
X001699Y002205D01*
X001689Y002257D01*
X001683Y002309D01*
X001681Y002361D01*
X009001Y003467D02*
X009119Y003467D01*
X009001Y003467D02*
X009001Y003585D01*
X009083Y003735D02*
X009085Y003753D01*
X009091Y003771D01*
X009100Y003787D01*
X009112Y003800D01*
X009127Y003811D01*
X009144Y003819D01*
X009162Y003823D01*
X009180Y003823D01*
X009198Y003819D01*
X009215Y003811D01*
X009230Y003800D01*
X009242Y003787D01*
X009251Y003771D01*
X009257Y003753D01*
X009259Y003735D01*
X009257Y003717D01*
X009251Y003699D01*
X009242Y003683D01*
X009230Y003670D01*
X009215Y003659D01*
X009198Y003651D01*
X009180Y003647D01*
X009162Y003647D01*
X009144Y003651D01*
X009127Y003659D01*
X009112Y003670D01*
X009100Y003683D01*
X009091Y003699D01*
X009085Y003717D01*
X009083Y003735D01*
X009001Y004136D02*
X009001Y004255D01*
X009119Y004255D01*
X010143Y004255D02*
X010261Y004255D01*
X010261Y004136D01*
X010261Y003585D02*
X010261Y003467D01*
X010143Y003467D01*
X014631Y007861D02*
X016131Y007861D01*
X017737Y008194D02*
X017737Y008666D01*
X016131Y013361D02*
X014631Y013361D01*
X016488Y003561D02*
X017281Y003561D01*
X018081Y003211D02*
X018081Y001511D01*
X017281Y001161D02*
X016476Y001161D01*
X015681Y001511D02*
X015681Y003211D01*
X016181Y002361D02*
X016183Y002413D01*
X016189Y002465D01*
X016199Y002517D01*
X016212Y002567D01*
X016229Y002617D01*
X016250Y002665D01*
X016275Y002711D01*
X016303Y002755D01*
X016334Y002797D01*
X016368Y002837D01*
X016405Y002874D01*
X016445Y002908D01*
X016487Y002939D01*
X016531Y002967D01*
X016577Y002992D01*
X016625Y003013D01*
X016675Y003030D01*
X016725Y003043D01*
X016777Y003053D01*
X016829Y003059D01*
X016881Y003061D01*
X016933Y003059D01*
X016985Y003053D01*
X017037Y003043D01*
X017087Y003030D01*
X017137Y003013D01*
X017185Y002992D01*
X017231Y002967D01*
X017275Y002939D01*
X017317Y002908D01*
X017357Y002874D01*
X017394Y002837D01*
X017428Y002797D01*
X017459Y002755D01*
X017487Y002711D01*
X017512Y002665D01*
X017533Y002617D01*
X017550Y002567D01*
X017563Y002517D01*
X017573Y002465D01*
X017579Y002413D01*
X017581Y002361D01*
X017579Y002309D01*
X017573Y002257D01*
X017563Y002205D01*
X017550Y002155D01*
X017533Y002105D01*
X017512Y002057D01*
X017487Y002011D01*
X017459Y001967D01*
X017428Y001925D01*
X017394Y001885D01*
X017357Y001848D01*
X017317Y001814D01*
X017275Y001783D01*
X017231Y001755D01*
X017185Y001730D01*
X017137Y001709D01*
X017087Y001692D01*
X017037Y001679D01*
X016985Y001669D01*
X016933Y001663D01*
X016881Y001661D01*
X016829Y001663D01*
X016777Y001669D01*
X016725Y001679D01*
X016675Y001692D01*
X016625Y001709D01*
X016577Y001730D01*
X016531Y001755D01*
X016487Y001783D01*
X016445Y001814D01*
X016405Y001848D01*
X016368Y001885D01*
X016334Y001925D01*
X016303Y001967D01*
X016275Y002011D01*
X016250Y002057D01*
X016229Y002105D01*
X016212Y002155D01*
X016199Y002205D01*
X016189Y002257D01*
X016183Y002309D01*
X016181Y002361D01*
D122*
X015539Y002490D02*
X015038Y002490D01*
X015121Y002672D02*
X015038Y002756D01*
X015038Y002922D01*
X015121Y003006D01*
X015205Y003006D01*
X015539Y002672D01*
X015539Y003006D01*
X015101Y003391D02*
X014601Y003391D01*
X014601Y003641D01*
X014684Y003724D01*
X014851Y003724D01*
X014934Y003641D01*
X014934Y003391D01*
X014934Y003558D02*
X015101Y003724D01*
X014851Y003906D02*
X014851Y004240D01*
X015101Y004157D02*
X014601Y004157D01*
X014851Y003906D01*
X014481Y004561D02*
X014481Y003161D01*
X014531Y003111D01*
X014531Y002961D01*
X014529Y002944D01*
X014525Y002927D01*
X014518Y002911D01*
X014508Y002897D01*
X014495Y002884D01*
X014481Y002874D01*
X014465Y002867D01*
X014448Y002863D01*
X014431Y002861D01*
X013831Y002861D01*
X013814Y002863D01*
X013797Y002867D01*
X013781Y002874D01*
X013767Y002884D01*
X013754Y002897D01*
X013744Y002911D01*
X013737Y002927D01*
X013733Y002944D01*
X013731Y002961D01*
X013731Y003111D01*
X013781Y003161D01*
X013781Y004561D01*
X013731Y004611D01*
X013731Y004761D01*
X013733Y004778D01*
X013737Y004795D01*
X013744Y004811D01*
X013754Y004825D01*
X013767Y004838D01*
X013781Y004848D01*
X013797Y004855D01*
X013814Y004859D01*
X013831Y004861D01*
X014431Y004861D01*
X014448Y004859D01*
X014465Y004855D01*
X014481Y004848D01*
X014495Y004838D01*
X014508Y004825D01*
X014518Y004811D01*
X014525Y004795D01*
X014529Y004778D01*
X014531Y004761D01*
X014531Y004611D01*
X014481Y004561D01*
X013601Y004219D02*
X013601Y004052D01*
X013518Y003969D01*
X013601Y003787D02*
X013434Y003620D01*
X013434Y003704D02*
X013434Y003453D01*
X013601Y003453D02*
X013101Y003453D01*
X013101Y003704D01*
X013184Y003787D01*
X013351Y003787D01*
X013434Y003704D01*
X013184Y003969D02*
X013101Y004052D01*
X013101Y004219D01*
X013184Y004303D01*
X013267Y004303D01*
X013351Y004219D01*
X013434Y004303D01*
X013518Y004303D01*
X013601Y004219D01*
X013351Y004219D02*
X013351Y004136D01*
X012981Y004561D02*
X012981Y003161D01*
X013031Y003111D01*
X013031Y002961D01*
X013029Y002944D01*
X013025Y002927D01*
X013018Y002911D01*
X013008Y002897D01*
X012995Y002884D01*
X012981Y002874D01*
X012965Y002867D01*
X012948Y002863D01*
X012931Y002861D01*
X012331Y002861D01*
X012314Y002863D01*
X012297Y002867D01*
X012281Y002874D01*
X012267Y002884D01*
X012254Y002897D01*
X012244Y002911D01*
X012237Y002927D01*
X012233Y002944D01*
X012231Y002961D01*
X012231Y003111D01*
X012281Y003161D01*
X012281Y004561D01*
X012231Y004611D01*
X012231Y004761D01*
X012233Y004778D01*
X012237Y004795D01*
X012244Y004811D01*
X012254Y004825D01*
X012267Y004838D01*
X012281Y004848D01*
X012297Y004855D01*
X012314Y004859D01*
X012331Y004861D01*
X012931Y004861D01*
X012948Y004859D01*
X012965Y004855D01*
X012981Y004848D01*
X012995Y004838D01*
X013008Y004825D01*
X013018Y004811D01*
X013025Y004795D01*
X013029Y004778D01*
X013031Y004761D01*
X013031Y004611D01*
X012981Y004561D01*
X011631Y005034D02*
X011631Y002734D01*
X007631Y002734D01*
X007631Y003484D01*
X007670Y003486D01*
X007709Y003492D01*
X007747Y003501D01*
X007784Y003514D01*
X007820Y003531D01*
X007853Y003551D01*
X007885Y003575D01*
X007914Y003601D01*
X007940Y003630D01*
X007964Y003662D01*
X007984Y003695D01*
X008001Y003731D01*
X008014Y003768D01*
X008023Y003806D01*
X008029Y003845D01*
X008031Y003884D01*
X008029Y003923D01*
X008023Y003962D01*
X008014Y004000D01*
X008001Y004037D01*
X007984Y004073D01*
X007964Y004106D01*
X007940Y004138D01*
X007914Y004167D01*
X007885Y004193D01*
X007853Y004217D01*
X007820Y004237D01*
X007784Y004254D01*
X007747Y004267D01*
X007709Y004276D01*
X007670Y004282D01*
X007631Y004284D01*
X007631Y005034D01*
X011631Y005034D01*
X011387Y004191D02*
X011387Y003691D01*
X011220Y003691D02*
X011554Y003691D01*
X011220Y004024D02*
X011387Y004191D01*
X011038Y004108D02*
X010955Y004191D01*
X010788Y004191D01*
X010705Y004108D01*
X010705Y003774D01*
X010788Y003691D01*
X010955Y003691D01*
X011038Y003774D01*
X010528Y003691D02*
X010361Y003691D01*
X010444Y003691D02*
X010444Y004191D01*
X010361Y004191D02*
X010528Y004191D01*
X007031Y004611D02*
X007031Y004761D01*
X007029Y004778D01*
X007025Y004795D01*
X007018Y004811D01*
X007008Y004825D01*
X006995Y004838D01*
X006981Y004848D01*
X006965Y004855D01*
X006948Y004859D01*
X006931Y004861D01*
X006331Y004861D01*
X006314Y004859D01*
X006297Y004855D01*
X006281Y004848D01*
X006267Y004838D01*
X006254Y004825D01*
X006244Y004811D01*
X006237Y004795D01*
X006233Y004778D01*
X006231Y004761D01*
X006231Y004611D01*
X006281Y004561D01*
X006281Y003161D01*
X006231Y003111D01*
X006231Y002961D01*
X006233Y002944D01*
X006237Y002927D01*
X006244Y002911D01*
X006254Y002897D01*
X006267Y002884D01*
X006281Y002874D01*
X006297Y002867D01*
X006314Y002863D01*
X006331Y002861D01*
X006931Y002861D01*
X006948Y002863D01*
X006965Y002867D01*
X006981Y002874D01*
X006995Y002884D01*
X007008Y002897D01*
X007018Y002911D01*
X007025Y002927D01*
X007029Y002944D01*
X007031Y002961D01*
X007031Y003111D01*
X006981Y003161D01*
X006981Y004561D01*
X007031Y004611D01*
X006164Y004365D02*
X006164Y004031D01*
X005830Y004365D01*
X005746Y004365D01*
X005663Y004282D01*
X005663Y004115D01*
X005746Y004031D01*
X005746Y003849D02*
X005913Y003849D01*
X005997Y003766D01*
X005997Y003516D01*
X006164Y003516D02*
X005663Y003516D01*
X005663Y003766D01*
X005746Y003849D01*
X005997Y003683D02*
X006164Y003849D01*
X005406Y003111D02*
X005406Y002961D01*
X005404Y002944D01*
X005400Y002927D01*
X005393Y002911D01*
X005383Y002897D01*
X005370Y002884D01*
X005356Y002874D01*
X005340Y002867D01*
X005323Y002863D01*
X005306Y002861D01*
X004706Y002861D01*
X004689Y002863D01*
X004672Y002867D01*
X004656Y002874D01*
X004642Y002884D01*
X004629Y002897D01*
X004619Y002911D01*
X004612Y002927D01*
X004608Y002944D01*
X004606Y002961D01*
X004606Y003111D01*
X004656Y003161D01*
X004656Y004561D01*
X004606Y004611D01*
X004606Y004761D01*
X004608Y004778D01*
X004612Y004795D01*
X004619Y004811D01*
X004629Y004825D01*
X004642Y004838D01*
X004656Y004848D01*
X004672Y004855D01*
X004689Y004859D01*
X004706Y004861D01*
X005306Y004861D01*
X005323Y004859D01*
X005340Y004855D01*
X005356Y004848D01*
X005370Y004838D01*
X005383Y004825D01*
X005393Y004811D01*
X005400Y004795D01*
X005404Y004778D01*
X005406Y004761D01*
X005406Y004611D01*
X005356Y004561D01*
X005356Y003161D01*
X005406Y003111D01*
X004536Y003485D02*
X004036Y003485D01*
X004036Y003735D01*
X004119Y003818D01*
X004286Y003818D01*
X004369Y003735D01*
X004369Y003485D01*
X004369Y003651D02*
X004536Y003818D01*
X004536Y004000D02*
X004536Y004334D01*
X004536Y004167D02*
X004036Y004167D01*
X004202Y004000D01*
X004251Y003106D02*
X004251Y002772D01*
X004251Y002939D02*
X003751Y002939D01*
X003917Y002772D01*
X003751Y002590D02*
X004251Y002590D01*
X004084Y002423D01*
X004251Y002256D01*
X003751Y002256D01*
X003834Y002074D02*
X003751Y001991D01*
X003751Y001824D01*
X003834Y001741D01*
X003917Y001741D01*
X004001Y001824D01*
X004001Y001991D01*
X004084Y002074D01*
X004168Y002074D01*
X004251Y001991D01*
X004251Y001824D01*
X004168Y001741D01*
X002434Y005828D02*
X001933Y005828D01*
X002434Y005828D02*
X002434Y006162D01*
X002434Y006344D02*
X002434Y006678D01*
X002434Y006860D02*
X002434Y007110D01*
X002350Y007193D01*
X002016Y007193D01*
X001933Y007110D01*
X001933Y006860D01*
X002434Y006860D01*
X002183Y006511D02*
X002183Y006344D01*
X001933Y006344D02*
X001933Y006678D01*
X001933Y006344D02*
X002434Y006344D01*
X002434Y007375D02*
X002434Y007709D01*
X002434Y007542D02*
X001933Y007542D01*
X002100Y007375D01*
X002881Y006861D02*
X002883Y006924D01*
X002889Y006986D01*
X002899Y007048D01*
X002912Y007110D01*
X002930Y007170D01*
X002951Y007229D01*
X002976Y007287D01*
X003005Y007343D01*
X003037Y007397D01*
X003072Y007449D01*
X003110Y007498D01*
X003152Y007546D01*
X003196Y007590D01*
X003244Y007632D01*
X003293Y007670D01*
X003345Y007705D01*
X003399Y007737D01*
X003455Y007766D01*
X003513Y007791D01*
X003572Y007812D01*
X003632Y007830D01*
X003694Y007843D01*
X003756Y007853D01*
X003818Y007859D01*
X003881Y007861D01*
X003944Y007859D01*
X004006Y007853D01*
X004068Y007843D01*
X004130Y007830D01*
X004190Y007812D01*
X004249Y007791D01*
X004307Y007766D01*
X004363Y007737D01*
X004417Y007705D01*
X004469Y007670D01*
X004518Y007632D01*
X004566Y007590D01*
X004610Y007546D01*
X004652Y007498D01*
X004690Y007449D01*
X004725Y007397D01*
X004757Y007343D01*
X004786Y007287D01*
X004811Y007229D01*
X004832Y007170D01*
X004850Y007110D01*
X004863Y007048D01*
X004873Y006986D01*
X004879Y006924D01*
X004881Y006861D01*
X004879Y006798D01*
X004873Y006736D01*
X004863Y006674D01*
X004850Y006612D01*
X004832Y006552D01*
X004811Y006493D01*
X004786Y006435D01*
X004757Y006379D01*
X004725Y006325D01*
X004690Y006273D01*
X004652Y006224D01*
X004610Y006176D01*
X004566Y006132D01*
X004518Y006090D01*
X004469Y006052D01*
X004417Y006017D01*
X004363Y005985D01*
X004307Y005956D01*
X004249Y005931D01*
X004190Y005910D01*
X004130Y005892D01*
X004068Y005879D01*
X004006Y005869D01*
X003944Y005863D01*
X003881Y005861D01*
X003818Y005863D01*
X003756Y005869D01*
X003694Y005879D01*
X003632Y005892D01*
X003572Y005910D01*
X003513Y005931D01*
X003455Y005956D01*
X003399Y005985D01*
X003345Y006017D01*
X003293Y006052D01*
X003244Y006090D01*
X003196Y006132D01*
X003152Y006176D01*
X003110Y006224D01*
X003072Y006273D01*
X003037Y006325D01*
X003005Y006379D01*
X002976Y006435D01*
X002951Y006493D01*
X002930Y006552D01*
X002912Y006612D01*
X002899Y006674D01*
X002889Y006736D01*
X002883Y006798D01*
X002881Y006861D01*
X005731Y009911D02*
X006531Y009911D01*
X006548Y009913D01*
X006565Y009917D01*
X006581Y009924D01*
X006595Y009934D01*
X006608Y009947D01*
X006618Y009961D01*
X006625Y009977D01*
X006629Y009994D01*
X006631Y010011D01*
X006631Y011711D01*
X006629Y011728D01*
X006625Y011745D01*
X006618Y011761D01*
X006608Y011775D01*
X006595Y011788D01*
X006581Y011798D01*
X006565Y011805D01*
X006548Y011809D01*
X006531Y011811D01*
X005731Y011811D01*
X005714Y011809D01*
X005697Y011805D01*
X005681Y011798D01*
X005667Y011788D01*
X005654Y011775D01*
X005644Y011761D01*
X005637Y011745D01*
X005633Y011728D01*
X005631Y011711D01*
X005631Y010011D01*
X005633Y009994D01*
X005637Y009977D01*
X005644Y009961D01*
X005654Y009947D01*
X005667Y009934D01*
X005681Y009924D01*
X005697Y009917D01*
X005714Y009913D01*
X005731Y009911D01*
X006131Y010711D02*
X006131Y010761D01*
X006131Y010961D02*
X006131Y011011D01*
X006074Y011991D02*
X005907Y011991D01*
X005824Y012074D01*
X005824Y012408D01*
X005907Y012491D01*
X006074Y012491D01*
X006157Y012408D01*
X006339Y012324D02*
X006506Y012491D01*
X006506Y011991D01*
X006339Y011991D02*
X006673Y011991D01*
X006157Y012074D02*
X006074Y011991D01*
X002881Y012361D02*
X002883Y012424D01*
X002889Y012486D01*
X002899Y012548D01*
X002912Y012610D01*
X002930Y012670D01*
X002951Y012729D01*
X002976Y012787D01*
X003005Y012843D01*
X003037Y012897D01*
X003072Y012949D01*
X003110Y012998D01*
X003152Y013046D01*
X003196Y013090D01*
X003244Y013132D01*
X003293Y013170D01*
X003345Y013205D01*
X003399Y013237D01*
X003455Y013266D01*
X003513Y013291D01*
X003572Y013312D01*
X003632Y013330D01*
X003694Y013343D01*
X003756Y013353D01*
X003818Y013359D01*
X003881Y013361D01*
X003944Y013359D01*
X004006Y013353D01*
X004068Y013343D01*
X004130Y013330D01*
X004190Y013312D01*
X004249Y013291D01*
X004307Y013266D01*
X004363Y013237D01*
X004417Y013205D01*
X004469Y013170D01*
X004518Y013132D01*
X004566Y013090D01*
X004610Y013046D01*
X004652Y012998D01*
X004690Y012949D01*
X004725Y012897D01*
X004757Y012843D01*
X004786Y012787D01*
X004811Y012729D01*
X004832Y012670D01*
X004850Y012610D01*
X004863Y012548D01*
X004873Y012486D01*
X004879Y012424D01*
X004881Y012361D01*
X004879Y012298D01*
X004873Y012236D01*
X004863Y012174D01*
X004850Y012112D01*
X004832Y012052D01*
X004811Y011993D01*
X004786Y011935D01*
X004757Y011879D01*
X004725Y011825D01*
X004690Y011773D01*
X004652Y011724D01*
X004610Y011676D01*
X004566Y011632D01*
X004518Y011590D01*
X004469Y011552D01*
X004417Y011517D01*
X004363Y011485D01*
X004307Y011456D01*
X004249Y011431D01*
X004190Y011410D01*
X004130Y011392D01*
X004068Y011379D01*
X004006Y011369D01*
X003944Y011363D01*
X003881Y011361D01*
X003818Y011363D01*
X003756Y011369D01*
X003694Y011379D01*
X003632Y011392D01*
X003572Y011410D01*
X003513Y011431D01*
X003455Y011456D01*
X003399Y011485D01*
X003345Y011517D01*
X003293Y011552D01*
X003244Y011590D01*
X003196Y011632D01*
X003152Y011676D01*
X003110Y011724D01*
X003072Y011773D01*
X003037Y011825D01*
X003005Y011879D01*
X002976Y011935D01*
X002951Y011993D01*
X002930Y012052D01*
X002912Y012112D01*
X002899Y012174D01*
X002889Y012236D01*
X002883Y012298D01*
X002881Y012361D01*
X002434Y012303D02*
X002434Y011969D01*
X001933Y011969D01*
X001933Y012303D01*
X001933Y012485D02*
X001933Y012735D01*
X002017Y012818D01*
X002350Y012818D01*
X002434Y012735D01*
X002434Y012485D01*
X001933Y012485D01*
X002183Y012136D02*
X002183Y011969D01*
X002434Y011787D02*
X002434Y011453D01*
X001933Y011453D01*
X002017Y013000D02*
X001933Y013084D01*
X001933Y013250D01*
X002017Y013334D01*
X002100Y013334D01*
X002183Y013250D01*
X002267Y013334D01*
X002350Y013334D01*
X002434Y013250D01*
X002434Y013084D01*
X002350Y013000D01*
X002183Y013167D02*
X002183Y013250D01*
X003809Y016141D02*
X003892Y016141D01*
X003976Y016224D01*
X003976Y016391D01*
X004059Y016474D01*
X004143Y016474D01*
X004226Y016391D01*
X004226Y016224D01*
X004143Y016141D01*
X003809Y016141D02*
X003726Y016224D01*
X003726Y016391D01*
X003809Y016474D01*
X003726Y016656D02*
X004226Y016656D01*
X004059Y016823D01*
X004226Y016990D01*
X003726Y016990D01*
X003809Y017172D02*
X003726Y017256D01*
X003726Y017422D01*
X003809Y017506D01*
X003892Y017506D01*
X003976Y017422D01*
X004059Y017506D01*
X004143Y017506D01*
X004226Y017422D01*
X004226Y017256D01*
X004143Y017172D01*
X003976Y017339D02*
X003976Y017422D01*
X008761Y017466D02*
X008761Y016966D01*
X009011Y016966D01*
X009095Y017049D01*
X009095Y017133D01*
X009011Y017216D01*
X008761Y017216D01*
X009011Y017216D02*
X009095Y017299D01*
X009095Y017383D01*
X009011Y017466D01*
X008761Y017466D01*
X009277Y017299D02*
X009277Y016966D01*
X009277Y017216D02*
X009610Y017216D01*
X009610Y017299D02*
X009610Y016966D01*
X009610Y017299D02*
X009443Y017466D01*
X009277Y017299D01*
X009792Y017466D02*
X010126Y017466D01*
X009959Y017466D02*
X009959Y016966D01*
X010308Y016966D02*
X010641Y016966D01*
X010475Y016966D02*
X010475Y017466D01*
X010308Y017299D01*
X014976Y017178D02*
X015476Y017178D01*
X015309Y017011D01*
X015476Y016844D01*
X014976Y016844D01*
X015059Y016662D02*
X014976Y016579D01*
X014976Y016412D01*
X015059Y016328D01*
X015142Y016328D01*
X015226Y016412D01*
X015226Y016579D01*
X015309Y016662D01*
X015393Y016662D01*
X015476Y016579D01*
X015476Y016412D01*
X015393Y016328D01*
X015226Y017360D02*
X015226Y017693D01*
X015476Y017610D02*
X014976Y017610D01*
X015226Y017360D01*
X016871Y013188D02*
X017121Y012938D01*
X017121Y013271D01*
X017371Y013188D02*
X016871Y013188D01*
X016954Y012756D02*
X016871Y012672D01*
X016871Y012422D01*
X017371Y012422D01*
X017371Y012672D01*
X017288Y012756D01*
X016954Y012756D01*
X016871Y012240D02*
X016871Y011906D01*
X017371Y011906D01*
X017371Y012240D01*
X017121Y012073D02*
X017121Y011906D01*
X017371Y011724D02*
X017371Y011391D01*
X016871Y011391D01*
X014381Y012361D02*
X014383Y012424D01*
X014389Y012486D01*
X014399Y012548D01*
X014412Y012610D01*
X014430Y012670D01*
X014451Y012729D01*
X014476Y012787D01*
X014505Y012843D01*
X014537Y012897D01*
X014572Y012949D01*
X014610Y012998D01*
X014652Y013046D01*
X014696Y013090D01*
X014744Y013132D01*
X014793Y013170D01*
X014845Y013205D01*
X014899Y013237D01*
X014955Y013266D01*
X015013Y013291D01*
X015072Y013312D01*
X015132Y013330D01*
X015194Y013343D01*
X015256Y013353D01*
X015318Y013359D01*
X015381Y013361D01*
X015444Y013359D01*
X015506Y013353D01*
X015568Y013343D01*
X015630Y013330D01*
X015690Y013312D01*
X015749Y013291D01*
X015807Y013266D01*
X015863Y013237D01*
X015917Y013205D01*
X015969Y013170D01*
X016018Y013132D01*
X016066Y013090D01*
X016110Y013046D01*
X016152Y012998D01*
X016190Y012949D01*
X016225Y012897D01*
X016257Y012843D01*
X016286Y012787D01*
X016311Y012729D01*
X016332Y012670D01*
X016350Y012610D01*
X016363Y012548D01*
X016373Y012486D01*
X016379Y012424D01*
X016381Y012361D01*
X016379Y012298D01*
X016373Y012236D01*
X016363Y012174D01*
X016350Y012112D01*
X016332Y012052D01*
X016311Y011993D01*
X016286Y011935D01*
X016257Y011879D01*
X016225Y011825D01*
X016190Y011773D01*
X016152Y011724D01*
X016110Y011676D01*
X016066Y011632D01*
X016018Y011590D01*
X015969Y011552D01*
X015917Y011517D01*
X015863Y011485D01*
X015807Y011456D01*
X015749Y011431D01*
X015690Y011410D01*
X015630Y011392D01*
X015568Y011379D01*
X015506Y011369D01*
X015444Y011363D01*
X015381Y011361D01*
X015318Y011363D01*
X015256Y011369D01*
X015194Y011379D01*
X015132Y011392D01*
X015072Y011410D01*
X015013Y011431D01*
X014955Y011456D01*
X014899Y011485D01*
X014845Y011517D01*
X014793Y011552D01*
X014744Y011590D01*
X014696Y011632D01*
X014652Y011676D01*
X014610Y011724D01*
X014572Y011773D01*
X014537Y011825D01*
X014505Y011879D01*
X014476Y011935D01*
X014451Y011993D01*
X014430Y012052D01*
X014412Y012112D01*
X014399Y012174D01*
X014389Y012236D01*
X014383Y012298D01*
X014381Y012361D01*
X013548Y012324D02*
X013548Y012408D01*
X013464Y012491D01*
X013298Y012491D01*
X013214Y012408D01*
X013032Y012408D02*
X012949Y012491D01*
X012782Y012491D01*
X012699Y012408D01*
X012699Y012074D01*
X012782Y011991D01*
X012949Y011991D01*
X013032Y012074D01*
X013214Y011991D02*
X013548Y012324D01*
X013548Y011991D02*
X013214Y011991D01*
X013531Y011811D02*
X012731Y011811D01*
X012714Y011809D01*
X012697Y011805D01*
X012681Y011798D01*
X012667Y011788D01*
X012654Y011775D01*
X012644Y011761D01*
X012637Y011745D01*
X012633Y011728D01*
X012631Y011711D01*
X012631Y010011D01*
X012633Y009994D01*
X012637Y009977D01*
X012644Y009961D01*
X012654Y009947D01*
X012667Y009934D01*
X012681Y009924D01*
X012697Y009917D01*
X012714Y009913D01*
X012731Y009911D01*
X013531Y009911D01*
X013548Y009913D01*
X013565Y009917D01*
X013581Y009924D01*
X013595Y009934D01*
X013608Y009947D01*
X013618Y009961D01*
X013625Y009977D01*
X013629Y009994D01*
X013631Y010011D01*
X013631Y011711D01*
X013629Y011728D01*
X013625Y011745D01*
X013618Y011761D01*
X013608Y011775D01*
X013595Y011788D01*
X013581Y011798D01*
X013565Y011805D01*
X013548Y011809D01*
X013531Y011811D01*
X013131Y011011D02*
X013131Y010961D01*
X013131Y010761D02*
X013131Y010711D01*
X016871Y007625D02*
X016871Y007459D01*
X016954Y007375D01*
X016954Y007193D02*
X016871Y007110D01*
X016871Y006860D01*
X017371Y006860D01*
X017371Y007110D01*
X017288Y007193D01*
X016954Y007193D01*
X016871Y007625D02*
X016954Y007709D01*
X017037Y007709D01*
X017371Y007375D01*
X017371Y007709D01*
X017371Y006678D02*
X017371Y006344D01*
X016871Y006344D01*
X016871Y006678D01*
X017121Y006511D02*
X017121Y006344D01*
X017371Y006162D02*
X017371Y005828D01*
X016871Y005828D01*
X014381Y006861D02*
X014383Y006924D01*
X014389Y006986D01*
X014399Y007048D01*
X014412Y007110D01*
X014430Y007170D01*
X014451Y007229D01*
X014476Y007287D01*
X014505Y007343D01*
X014537Y007397D01*
X014572Y007449D01*
X014610Y007498D01*
X014652Y007546D01*
X014696Y007590D01*
X014744Y007632D01*
X014793Y007670D01*
X014845Y007705D01*
X014899Y007737D01*
X014955Y007766D01*
X015013Y007791D01*
X015072Y007812D01*
X015132Y007830D01*
X015194Y007843D01*
X015256Y007853D01*
X015318Y007859D01*
X015381Y007861D01*
X015444Y007859D01*
X015506Y007853D01*
X015568Y007843D01*
X015630Y007830D01*
X015690Y007812D01*
X015749Y007791D01*
X015807Y007766D01*
X015863Y007737D01*
X015917Y007705D01*
X015969Y007670D01*
X016018Y007632D01*
X016066Y007590D01*
X016110Y007546D01*
X016152Y007498D01*
X016190Y007449D01*
X016225Y007397D01*
X016257Y007343D01*
X016286Y007287D01*
X016311Y007229D01*
X016332Y007170D01*
X016350Y007110D01*
X016363Y007048D01*
X016373Y006986D01*
X016379Y006924D01*
X016381Y006861D01*
X016379Y006798D01*
X016373Y006736D01*
X016363Y006674D01*
X016350Y006612D01*
X016332Y006552D01*
X016311Y006493D01*
X016286Y006435D01*
X016257Y006379D01*
X016225Y006325D01*
X016190Y006273D01*
X016152Y006224D01*
X016110Y006176D01*
X016066Y006132D01*
X016018Y006090D01*
X015969Y006052D01*
X015917Y006017D01*
X015863Y005985D01*
X015807Y005956D01*
X015749Y005931D01*
X015690Y005910D01*
X015630Y005892D01*
X015568Y005879D01*
X015506Y005869D01*
X015444Y005863D01*
X015381Y005861D01*
X015318Y005863D01*
X015256Y005869D01*
X015194Y005879D01*
X015132Y005892D01*
X015072Y005910D01*
X015013Y005931D01*
X014955Y005956D01*
X014899Y005985D01*
X014845Y006017D01*
X014793Y006052D01*
X014744Y006090D01*
X014696Y006132D01*
X014652Y006176D01*
X014610Y006224D01*
X014572Y006273D01*
X014537Y006325D01*
X014505Y006379D01*
X014476Y006435D01*
X014451Y006493D01*
X014430Y006552D01*
X014412Y006612D01*
X014399Y006674D01*
X014389Y006736D01*
X014383Y006798D01*
X014381Y006861D01*
X015539Y002490D02*
X015372Y002323D01*
X015539Y002157D01*
X015038Y002157D01*
X015121Y001974D02*
X015038Y001891D01*
X015038Y001724D01*
X015121Y001641D01*
X015205Y001641D01*
X015288Y001724D01*
X015288Y001891D01*
X015372Y001974D01*
X015455Y001974D01*
X015539Y001891D01*
X015539Y001724D01*
X015455Y001641D01*
D123*
X014131Y002786D03*
X012631Y002786D03*
X012631Y004936D03*
X014131Y004936D03*
X006631Y004936D03*
X005006Y004936D03*
X005006Y002786D03*
X006631Y002786D03*
D124*
X006431Y010761D02*
X006131Y010761D01*
X005831Y010761D01*
X005831Y010961D02*
X006131Y010961D01*
X006431Y010961D01*
X012831Y010961D02*
X013131Y010961D01*
X013431Y010961D01*
X013431Y010761D02*
X013131Y010761D01*
X012831Y010761D01*
D125*
X001922Y008813D03*
D126*
X001922Y008820D03*
D127*
X001918Y008827D03*
D128*
X001915Y008834D03*
D129*
X001911Y008841D03*
D130*
X001908Y008848D03*
D131*
X001908Y008855D03*
X002496Y009674D03*
D132*
X001908Y008862D03*
X002475Y010682D03*
D133*
X001901Y008869D03*
D134*
X001901Y008876D03*
D135*
X001901Y008883D03*
D136*
X001894Y008890D03*
D137*
X001894Y008897D03*
D138*
X001894Y008904D03*
X001460Y010388D03*
X001460Y010395D03*
X001460Y010409D03*
X001460Y010416D03*
D139*
X001232Y010395D03*
X001232Y010388D03*
X001232Y010381D03*
X001232Y010374D03*
X001225Y010339D03*
X001225Y010325D03*
X001218Y010283D03*
X001218Y010276D03*
X001218Y010269D03*
X001197Y010129D03*
X001197Y010115D03*
X001197Y010108D03*
X001197Y010101D03*
X001197Y010094D03*
X001190Y010080D03*
X001190Y010073D03*
X001190Y010066D03*
X001190Y010059D03*
X001190Y010045D03*
X001498Y010066D03*
X001498Y010073D03*
X001498Y010080D03*
X001498Y010094D03*
X001498Y010101D03*
X001505Y010045D03*
X001477Y009219D03*
X001505Y009198D03*
X001617Y009114D03*
X001792Y008988D03*
X001890Y008911D03*
D140*
X001887Y008918D03*
X001859Y008939D03*
X001782Y008995D03*
X001754Y009016D03*
X001747Y009023D03*
X001712Y009044D03*
X001684Y009065D03*
X001649Y009093D03*
X001607Y009121D03*
X001572Y009149D03*
X001544Y009170D03*
X001467Y009226D03*
X001502Y010059D03*
D141*
X002083Y010304D03*
X002083Y010311D03*
X002321Y010479D03*
X002321Y010486D03*
X001460Y009233D03*
X001495Y009205D03*
X001516Y009191D03*
X001523Y009184D03*
X001551Y009163D03*
X001565Y009156D03*
X001600Y009128D03*
X001635Y009100D03*
X001656Y009086D03*
X001663Y009079D03*
X001691Y009058D03*
X001705Y009051D03*
X001733Y009030D03*
X001761Y009009D03*
X001803Y008981D03*
X001810Y008974D03*
X001831Y008960D03*
X001838Y008953D03*
X001845Y008946D03*
X001873Y008925D03*
D142*
X001866Y008932D03*
X001775Y009002D03*
X001628Y009107D03*
X001488Y009212D03*
D143*
X001579Y009142D03*
X001677Y009072D03*
X001817Y008967D03*
D144*
X001722Y009037D03*
X001533Y009177D03*
X001505Y010052D03*
X001498Y010087D03*
X001197Y010087D03*
X001197Y010122D03*
X001190Y010052D03*
X001225Y010332D03*
D145*
X001211Y010234D03*
X001211Y010220D03*
X001211Y010213D03*
X001204Y010185D03*
X001204Y010178D03*
X001204Y010171D03*
X001204Y010164D03*
X001484Y010199D03*
X001491Y010150D03*
X001491Y010143D03*
X001491Y010136D03*
X001491Y010129D03*
X001589Y009135D03*
D146*
X001040Y009240D03*
D147*
X000966Y009345D03*
X002436Y009345D03*
X002436Y009338D03*
X002436Y009331D03*
X002436Y009324D03*
X002436Y009310D03*
X002436Y009303D03*
X002436Y009296D03*
X002436Y009289D03*
X002436Y009275D03*
X002436Y009268D03*
X002436Y009261D03*
X002436Y009254D03*
X002436Y009240D03*
X002436Y009359D03*
X002436Y009366D03*
X002436Y009373D03*
X002436Y011039D03*
X002436Y011046D03*
X002436Y011053D03*
X002436Y011060D03*
X002436Y011130D03*
X002436Y011144D03*
X002436Y011151D03*
X002436Y011158D03*
X002436Y011165D03*
D148*
X001036Y009247D03*
D149*
X002436Y009247D03*
X002436Y009282D03*
X002436Y009317D03*
X002436Y009352D03*
X002436Y011032D03*
X002436Y011067D03*
X002436Y011137D03*
D150*
X001029Y009254D03*
D151*
X001026Y009261D03*
D152*
X001019Y009268D03*
D153*
X001015Y009275D03*
D154*
X001008Y009282D03*
D155*
X001005Y009289D03*
D156*
X000998Y009296D03*
D157*
X000994Y009303D03*
D158*
X000991Y009310D03*
D159*
X000987Y009317D03*
D160*
X000980Y009324D03*
D161*
X000977Y009331D03*
D162*
X000970Y009338D03*
D163*
X000963Y009352D03*
D164*
X000956Y009359D03*
D165*
X000952Y009366D03*
D166*
X000945Y009373D03*
D167*
X000588Y009380D03*
X000588Y009394D03*
X000588Y009401D03*
X000588Y009408D03*
X000588Y009415D03*
X000588Y009429D03*
X000588Y009436D03*
X000588Y009443D03*
X000588Y009450D03*
X000588Y009464D03*
X000588Y009471D03*
X000588Y009478D03*
X000588Y009485D03*
X000588Y009499D03*
X000588Y009506D03*
X000588Y009513D03*
X000588Y009520D03*
X000588Y009534D03*
X000588Y009541D03*
X000588Y009548D03*
X000588Y009555D03*
X000588Y009569D03*
X000588Y009576D03*
X000588Y009583D03*
X000588Y009590D03*
X000588Y009604D03*
X000588Y009611D03*
X000588Y009618D03*
X000588Y009625D03*
X000588Y009639D03*
X000588Y009646D03*
X000588Y009653D03*
X000588Y009660D03*
X000588Y009674D03*
X000588Y009681D03*
X000588Y009688D03*
X000588Y010668D03*
X000588Y010675D03*
X000588Y010689D03*
X000588Y010696D03*
X000588Y010703D03*
X000588Y010710D03*
X000588Y010724D03*
X000588Y010731D03*
X000588Y010738D03*
X000588Y010745D03*
X000588Y010759D03*
X000588Y010766D03*
X000588Y010773D03*
X000588Y010780D03*
X000588Y010794D03*
X000588Y010801D03*
X000588Y010808D03*
X000588Y010815D03*
X000588Y010829D03*
X000588Y010836D03*
X000588Y010843D03*
X000588Y010850D03*
X000588Y010864D03*
X000588Y010871D03*
X000588Y010878D03*
X000588Y010885D03*
X000588Y010899D03*
X000588Y010906D03*
X000588Y010913D03*
X000588Y010920D03*
X000588Y010934D03*
X000588Y010941D03*
X000588Y010948D03*
X000588Y010955D03*
X000588Y010969D03*
X000588Y010976D03*
X000588Y010983D03*
X000588Y010990D03*
X000588Y011004D03*
X000588Y011011D03*
X000588Y011018D03*
X000588Y011025D03*
D168*
X002818Y011025D03*
X002818Y011018D03*
X002818Y011011D03*
X002818Y011004D03*
X002818Y010990D03*
X002818Y010983D03*
X002818Y010976D03*
X002818Y010969D03*
X002818Y010955D03*
X002818Y010948D03*
X002818Y010941D03*
X002818Y010934D03*
X002818Y010920D03*
X002818Y010913D03*
X002818Y010906D03*
X002818Y010899D03*
X002818Y010885D03*
X002818Y010878D03*
X002818Y010871D03*
X002818Y010864D03*
X002818Y010850D03*
X002818Y010843D03*
X002818Y010836D03*
X002818Y010829D03*
X002818Y010815D03*
X002818Y010808D03*
X002818Y010801D03*
X002818Y010794D03*
X002818Y010780D03*
X002818Y010773D03*
X002818Y010766D03*
X002818Y010759D03*
X002818Y010745D03*
X002818Y010738D03*
X002818Y010731D03*
X002818Y010724D03*
X002818Y010710D03*
X002818Y010703D03*
X002818Y010696D03*
X002818Y010689D03*
X002818Y010675D03*
X002818Y010668D03*
X002818Y010661D03*
X002818Y010654D03*
X002818Y010640D03*
X002818Y010633D03*
X002818Y010626D03*
X002818Y010619D03*
X002818Y010605D03*
X002818Y010598D03*
X002818Y010591D03*
X002818Y010584D03*
X002818Y010570D03*
X002818Y010563D03*
X002818Y010556D03*
X002818Y010549D03*
X002818Y010535D03*
X002818Y010528D03*
X002818Y010521D03*
X002818Y010360D03*
X002818Y010353D03*
X002818Y010346D03*
X002818Y010339D03*
X002818Y010325D03*
X002818Y010318D03*
X002818Y010311D03*
X002818Y010304D03*
X002818Y010290D03*
X002818Y010283D03*
X002818Y010276D03*
X002818Y010269D03*
X002818Y010255D03*
X002818Y010248D03*
X002818Y010241D03*
X002818Y010234D03*
X002818Y010220D03*
X002818Y010213D03*
X002818Y010206D03*
X002818Y010199D03*
X002818Y010185D03*
X002818Y010178D03*
X002818Y010171D03*
X002818Y010164D03*
X002818Y010150D03*
X002818Y010143D03*
X002818Y010136D03*
X002818Y010129D03*
X002818Y009765D03*
X002818Y009758D03*
X002818Y009751D03*
X002818Y009744D03*
X002818Y009730D03*
X002818Y009723D03*
X002818Y009716D03*
X002818Y009709D03*
X002818Y009695D03*
X002818Y009688D03*
X002818Y009681D03*
X002818Y009674D03*
X002818Y009660D03*
X002818Y009653D03*
X002818Y009646D03*
X002818Y009639D03*
X002818Y009625D03*
X002818Y009618D03*
X002818Y009611D03*
X002818Y009604D03*
X002818Y009590D03*
X002818Y009583D03*
X002818Y009576D03*
X002818Y009569D03*
X002818Y009555D03*
X002818Y009548D03*
X002818Y009541D03*
X002818Y009534D03*
X002818Y009520D03*
X002818Y009513D03*
X002818Y009506D03*
X002818Y009499D03*
X002818Y009485D03*
X002818Y009478D03*
X002818Y009471D03*
X002818Y009464D03*
X002818Y009450D03*
X002818Y009443D03*
X002818Y009436D03*
X002818Y009429D03*
X002818Y009415D03*
X002818Y009408D03*
X002818Y009401D03*
X002818Y009394D03*
X002818Y009380D03*
D169*
X000588Y009387D03*
X000588Y009422D03*
X000588Y009457D03*
X000588Y009492D03*
X000588Y009527D03*
X000588Y009562D03*
X000588Y009597D03*
X000588Y009632D03*
X000588Y009667D03*
X000588Y010682D03*
X000588Y010717D03*
X000588Y010752D03*
X000588Y010787D03*
X000588Y010822D03*
X000588Y010857D03*
X000588Y010892D03*
X000588Y010927D03*
X000588Y010962D03*
X000588Y010997D03*
D170*
X002818Y010997D03*
X002818Y010962D03*
X002818Y010927D03*
X002818Y010892D03*
X002818Y010857D03*
X002818Y010822D03*
X002818Y010787D03*
X002818Y010752D03*
X002818Y010717D03*
X002818Y010682D03*
X002818Y010647D03*
X002818Y010612D03*
X002818Y010577D03*
X002818Y010542D03*
X002818Y010367D03*
X002818Y010332D03*
X002818Y010297D03*
X002818Y010262D03*
X002818Y010227D03*
X002818Y010192D03*
X002818Y010157D03*
X002818Y010122D03*
X002818Y009772D03*
X002818Y009737D03*
X002818Y009702D03*
X002818Y009667D03*
X002818Y009632D03*
X002818Y009597D03*
X002818Y009562D03*
X002818Y009527D03*
X002818Y009492D03*
X002818Y009457D03*
X002818Y009422D03*
X002818Y009387D03*
D171*
X002496Y009681D03*
D172*
X002496Y009688D03*
X002097Y010073D03*
X002097Y010080D03*
X002090Y010108D03*
X002076Y010486D03*
D173*
X000903Y009709D03*
X000903Y009695D03*
D174*
X001726Y009695D03*
D175*
X002499Y009695D03*
D176*
X001792Y009737D03*
X000903Y009702D03*
D177*
X001761Y009702D03*
D178*
X002496Y009702D03*
D179*
X001771Y009709D03*
D180*
X002496Y009709D03*
X002391Y010283D03*
D181*
X001796Y009744D03*
X000907Y009751D03*
X000907Y009744D03*
X000907Y009730D03*
X000907Y009723D03*
X000907Y009716D03*
X000907Y009758D03*
X000907Y009765D03*
X000907Y009779D03*
X000907Y009786D03*
D182*
X001778Y009716D03*
D183*
X002496Y009716D03*
X001341Y010619D03*
X001341Y010626D03*
X001341Y010633D03*
X001341Y010640D03*
X001341Y010654D03*
D184*
X001785Y009723D03*
D185*
X002496Y009723D03*
X002692Y009835D03*
X002692Y010038D03*
X002545Y010143D03*
X002538Y010150D03*
X002426Y010248D03*
X001341Y010570D03*
X001341Y010584D03*
X001341Y010591D03*
X001341Y010598D03*
X000711Y010598D03*
X000711Y010591D03*
X000711Y010584D03*
X000711Y010570D03*
X000711Y010563D03*
X000711Y010556D03*
X000711Y010549D03*
X000711Y010535D03*
X000711Y010528D03*
X000711Y010521D03*
X000711Y010514D03*
X000711Y010500D03*
X000711Y010493D03*
X000711Y010486D03*
X000711Y010479D03*
X000711Y010465D03*
X000711Y010458D03*
X000711Y010451D03*
X000711Y010444D03*
X000711Y010430D03*
X000711Y010423D03*
X000711Y010416D03*
X000711Y010409D03*
X000711Y010395D03*
X000711Y010388D03*
X000711Y010381D03*
X000711Y010374D03*
X000711Y010360D03*
X000711Y010353D03*
X000711Y010346D03*
X000711Y010339D03*
X000711Y010325D03*
X000711Y010318D03*
X000711Y010311D03*
X000711Y010304D03*
X000711Y010290D03*
X000711Y010283D03*
X000711Y010276D03*
X000711Y010269D03*
X000711Y010255D03*
X000711Y010248D03*
X000711Y010241D03*
X000711Y010234D03*
X000711Y010220D03*
X000711Y010213D03*
X000711Y010206D03*
X000711Y010199D03*
X000711Y010185D03*
X000711Y010178D03*
X000711Y010171D03*
X000711Y010164D03*
X000711Y010150D03*
X000711Y010143D03*
X000711Y010136D03*
X000711Y010129D03*
X000711Y010115D03*
X000711Y010108D03*
X000711Y010101D03*
X000711Y010094D03*
X000711Y010080D03*
X000711Y010073D03*
X000711Y010066D03*
X000711Y010059D03*
X000711Y010045D03*
X000711Y010038D03*
X000711Y010031D03*
X000711Y010024D03*
X000711Y010010D03*
X000711Y010003D03*
X000711Y009996D03*
X000711Y009989D03*
X000711Y009975D03*
X000711Y009968D03*
X000711Y009961D03*
X000711Y009954D03*
X000711Y009940D03*
X000711Y009933D03*
X000711Y009926D03*
X000711Y009919D03*
X000711Y009905D03*
X000711Y009898D03*
X000711Y009891D03*
X000711Y010605D03*
X000711Y010619D03*
X000711Y010626D03*
X000711Y010633D03*
X000711Y010640D03*
X000711Y010654D03*
X000711Y010661D03*
D186*
X001789Y009730D03*
D187*
X002496Y009730D03*
X001341Y010479D03*
X001341Y010486D03*
X001341Y010493D03*
D188*
X000907Y009772D03*
X000907Y009737D03*
D189*
X001341Y010437D03*
X001852Y010647D03*
X002496Y009737D03*
D190*
X002496Y009744D03*
D191*
X001799Y009751D03*
D192*
X002496Y009751D03*
X002650Y010101D03*
D193*
X001803Y009765D03*
X001803Y009758D03*
D194*
X001876Y010206D03*
X001876Y010626D03*
X002646Y010108D03*
X002499Y009758D03*
D195*
X002496Y009765D03*
X002216Y010360D03*
X002482Y010591D03*
D196*
X001806Y009772D03*
D197*
X002496Y009772D03*
X001887Y010612D03*
D198*
X001806Y009779D03*
D199*
X002562Y009786D03*
X002562Y009779D03*
D200*
X001810Y009786D03*
X001810Y009793D03*
D201*
X000910Y009800D03*
X000910Y009793D03*
X000910Y009814D03*
X000910Y009821D03*
X000910Y009828D03*
X000910Y009835D03*
X000910Y009849D03*
X000910Y009856D03*
X000910Y009863D03*
D202*
X002559Y009800D03*
X002559Y009793D03*
D203*
X001806Y009800D03*
D204*
X000910Y009807D03*
X000910Y009842D03*
D205*
X001810Y009807D03*
X000928Y011032D03*
X000928Y011067D03*
X000928Y011137D03*
D206*
X002555Y009807D03*
D207*
X001810Y009814D03*
X001810Y009821D03*
X000928Y011039D03*
X000928Y011046D03*
X000928Y011053D03*
X000928Y011060D03*
X000928Y011130D03*
X000928Y011144D03*
X000928Y011151D03*
X000928Y011158D03*
X000928Y011165D03*
D208*
X002555Y009821D03*
X002555Y009814D03*
D209*
X002142Y009828D03*
D210*
X001936Y009835D03*
D211*
X001929Y009842D03*
D212*
X002412Y010262D03*
X002699Y010507D03*
X002699Y009842D03*
D213*
X001925Y009849D03*
X001925Y009856D03*
D214*
X002408Y010269D03*
X002702Y010374D03*
X002702Y010381D03*
X002702Y010388D03*
X002702Y010395D03*
X002702Y010409D03*
X002702Y010416D03*
X002702Y010423D03*
X002702Y010430D03*
X002702Y010444D03*
X002702Y010451D03*
X002702Y010458D03*
X002702Y010465D03*
X002702Y010479D03*
X002702Y010486D03*
X002702Y010493D03*
X002702Y009849D03*
D215*
X002706Y009856D03*
X002706Y009863D03*
X002706Y009989D03*
X002706Y009996D03*
X002706Y010003D03*
X002706Y010010D03*
D216*
X002639Y010115D03*
X002219Y010353D03*
X002478Y010584D03*
X001883Y010619D03*
X001645Y009863D03*
X002198Y009870D03*
D217*
X002191Y009863D03*
X002226Y010339D03*
D218*
X001204Y009884D03*
X001204Y009870D03*
D219*
X002709Y009870D03*
X002709Y009884D03*
X002709Y009891D03*
X002709Y009898D03*
X002709Y009905D03*
X002709Y009919D03*
X002709Y009926D03*
X002709Y009933D03*
X002709Y009940D03*
X002709Y009954D03*
X002709Y009961D03*
X002709Y009968D03*
X002709Y009975D03*
D220*
X001204Y009877D03*
D221*
X001880Y010227D03*
X002202Y009877D03*
D222*
X002709Y009877D03*
X002709Y009912D03*
X002709Y009947D03*
X002709Y009982D03*
X002478Y010647D03*
D223*
X002478Y010598D03*
X002205Y009891D03*
X002205Y009884D03*
D224*
X001474Y009891D03*
X001474Y009898D03*
X001474Y009905D03*
X001474Y009919D03*
D225*
X002209Y009926D03*
X002209Y009919D03*
X002209Y009905D03*
X002209Y009898D03*
X002209Y009933D03*
X002209Y009940D03*
X002209Y009954D03*
X002209Y009961D03*
X002209Y009968D03*
X002209Y009975D03*
X002209Y009989D03*
X002209Y009996D03*
X002209Y010003D03*
X002209Y010010D03*
X002209Y010024D03*
X002209Y010031D03*
X002209Y010038D03*
X002209Y010374D03*
X002209Y010381D03*
X002209Y010388D03*
X002202Y010458D03*
X002202Y010465D03*
D226*
X001341Y010577D03*
X000711Y010577D03*
X000711Y010542D03*
X000711Y010507D03*
X000711Y010472D03*
X000711Y010437D03*
X000711Y010402D03*
X000711Y010367D03*
X000711Y010332D03*
X000711Y010297D03*
X000711Y010262D03*
X000711Y010227D03*
X000711Y010192D03*
X000711Y010157D03*
X000711Y010122D03*
X000711Y010087D03*
X000711Y010052D03*
X000711Y010017D03*
X000711Y009982D03*
X000711Y009947D03*
X000711Y009912D03*
X000711Y010612D03*
X000711Y010647D03*
D227*
X001474Y009912D03*
D228*
X002209Y009912D03*
X002209Y009947D03*
X002209Y009982D03*
X002209Y010017D03*
X002202Y010472D03*
D229*
X001348Y009968D03*
X001348Y009961D03*
X001348Y009954D03*
X001348Y009940D03*
X001348Y009933D03*
X001348Y009926D03*
D230*
X001764Y009926D03*
X001764Y009933D03*
X001764Y009940D03*
X001764Y009954D03*
X001764Y009961D03*
X001764Y009968D03*
X001764Y009975D03*
X001764Y009989D03*
X001764Y009996D03*
X001764Y010003D03*
X001764Y010010D03*
X001764Y010024D03*
X001764Y010031D03*
X001764Y010038D03*
X001764Y010045D03*
X001764Y010059D03*
X001764Y010066D03*
X001764Y010073D03*
X001764Y010080D03*
X001764Y010094D03*
X001764Y010101D03*
X001764Y010108D03*
X001764Y010115D03*
X001764Y010129D03*
X001764Y010283D03*
X001764Y010290D03*
X001764Y010304D03*
X001764Y010311D03*
X001764Y010318D03*
X001764Y010325D03*
X001764Y010339D03*
X001764Y010346D03*
X001764Y010353D03*
X001764Y010360D03*
X001764Y010374D03*
X001764Y010381D03*
X001764Y010388D03*
X001764Y010395D03*
X001764Y010409D03*
X001764Y010416D03*
X001764Y010423D03*
X001764Y010430D03*
X001764Y010444D03*
X001764Y010451D03*
X001764Y010458D03*
X001764Y010465D03*
X001764Y010479D03*
X001764Y010486D03*
X001764Y010493D03*
X002086Y010115D03*
X002093Y010101D03*
X002093Y010094D03*
X002331Y010514D03*
X002478Y010668D03*
D231*
X001348Y009947D03*
D232*
X001764Y009947D03*
X001764Y009982D03*
X001764Y010017D03*
X001764Y010052D03*
X001764Y010087D03*
X001764Y010122D03*
X001764Y010297D03*
X001764Y010332D03*
X001764Y010367D03*
X001764Y010402D03*
X001764Y010437D03*
X001764Y010472D03*
D233*
X001918Y010500D03*
X001918Y010150D03*
X001918Y010143D03*
X001344Y009975D03*
D234*
X001348Y009982D03*
D235*
X001348Y009989D03*
X001348Y009996D03*
X001348Y010003D03*
X001348Y010010D03*
D236*
X001344Y010017D03*
X001911Y010542D03*
D237*
X002702Y010472D03*
X002702Y010437D03*
X002702Y010402D03*
X002702Y010017D03*
D238*
X001911Y010164D03*
X001911Y010269D03*
X001911Y010276D03*
X001911Y010549D03*
X001344Y010024D03*
D239*
X002552Y010136D03*
X002559Y010129D03*
X002699Y010024D03*
X002699Y010500D03*
D240*
X002475Y010521D03*
X001908Y010556D03*
X001908Y010563D03*
X001908Y010171D03*
X001348Y010038D03*
X001348Y010031D03*
D241*
X002695Y010031D03*
X002695Y010514D03*
D242*
X002100Y010066D03*
X002100Y010059D03*
X002100Y010045D03*
D243*
X002436Y010241D03*
X002443Y010234D03*
X002688Y010045D03*
X002478Y010633D03*
X001344Y010563D03*
X001344Y010556D03*
D244*
X002100Y010052D03*
D245*
X002685Y010052D03*
X001341Y010542D03*
D246*
X001344Y010521D03*
X001344Y010514D03*
X001344Y010500D03*
X002464Y010213D03*
X002471Y010206D03*
X002499Y010185D03*
X002506Y010178D03*
X002681Y010059D03*
D247*
X002674Y010066D03*
X002478Y010626D03*
X001344Y010465D03*
X001344Y010458D03*
X001344Y010451D03*
D248*
X001341Y010444D03*
X002671Y010073D03*
D249*
X002664Y010080D03*
D250*
X002328Y010507D03*
X002097Y010087D03*
D251*
X002660Y010087D03*
D252*
X002653Y010094D03*
X002478Y010605D03*
X001869Y010633D03*
D253*
X001474Y010290D03*
X001474Y010283D03*
X001474Y010276D03*
X001474Y010269D03*
X001481Y010241D03*
X001481Y010234D03*
X001481Y010220D03*
X001481Y010213D03*
X001481Y010206D03*
X001495Y010115D03*
X001495Y010108D03*
X001201Y010136D03*
X001201Y010143D03*
X001201Y010150D03*
X001215Y010241D03*
X001215Y010248D03*
X001215Y010255D03*
X001222Y010290D03*
X001222Y010304D03*
X001222Y010311D03*
X001222Y010318D03*
X001229Y010346D03*
X001229Y010353D03*
X001229Y010360D03*
X001236Y010409D03*
X001236Y010416D03*
X001236Y010423D03*
D254*
X001211Y010227D03*
X001204Y010157D03*
X001484Y010192D03*
X001491Y010122D03*
D255*
X002083Y010122D03*
D256*
X002566Y010122D03*
D257*
X002062Y010129D03*
D258*
X001922Y010136D03*
D259*
X001488Y010157D03*
X001208Y010192D03*
D260*
X001915Y010157D03*
D261*
X002527Y010157D03*
D262*
X001488Y010164D03*
X001488Y010171D03*
X001488Y010178D03*
X001488Y010185D03*
X001208Y010199D03*
X001208Y010206D03*
D263*
X002454Y010220D03*
X002517Y010171D03*
X002524Y010164D03*
D264*
X002478Y010528D03*
X002478Y010535D03*
X001904Y010570D03*
X001904Y010255D03*
X001904Y010178D03*
D265*
X001901Y010185D03*
X001901Y010248D03*
X001901Y010584D03*
X002237Y010325D03*
X002482Y010549D03*
D266*
X001894Y010192D03*
D267*
X002492Y010192D03*
D268*
X001887Y010199D03*
X001887Y010234D03*
D269*
X002478Y010199D03*
D270*
X001866Y010213D03*
X001866Y010220D03*
D271*
X001481Y010227D03*
X001474Y010262D03*
X001222Y010297D03*
X001215Y010262D03*
X001229Y010367D03*
X001236Y010402D03*
D272*
X002447Y010227D03*
D273*
X002482Y010570D03*
X001894Y010598D03*
X001894Y010241D03*
D274*
X001477Y010248D03*
X001477Y010255D03*
X001470Y010304D03*
X001470Y010311D03*
X001470Y010318D03*
X001470Y010325D03*
X001463Y010339D03*
X001463Y010346D03*
X001463Y010353D03*
X001463Y010360D03*
X001463Y010374D03*
X001463Y010381D03*
X001456Y010423D03*
D275*
X001344Y010605D03*
X002422Y010255D03*
X002478Y010640D03*
D276*
X001908Y010262D03*
D277*
X002398Y010276D03*
D278*
X002062Y010283D03*
X002069Y010493D03*
D279*
X002079Y010479D03*
X002072Y010290D03*
X002324Y010493D03*
X002324Y010500D03*
D280*
X002387Y010290D03*
D281*
X001470Y010297D03*
X001470Y010332D03*
X001463Y010367D03*
D282*
X002079Y010297D03*
D283*
X002377Y010297D03*
D284*
X002373Y010304D03*
X002478Y010654D03*
D285*
X002366Y010311D03*
D286*
X002237Y010318D03*
D287*
X002230Y010332D03*
D288*
X002223Y010346D03*
D289*
X002212Y010367D03*
D290*
X002205Y010395D03*
X002205Y010409D03*
X002205Y010416D03*
X002205Y010423D03*
X002205Y010430D03*
X002205Y010444D03*
X002205Y010451D03*
D291*
X001460Y010402D03*
D292*
X002205Y010402D03*
X002205Y010437D03*
D293*
X001344Y010430D03*
D294*
X001344Y010472D03*
D295*
X001344Y010507D03*
D296*
X001918Y010507D03*
D297*
X001915Y010514D03*
X001915Y010521D03*
X001915Y010528D03*
X001915Y010535D03*
D298*
X001838Y010654D03*
X001341Y010549D03*
X001341Y010535D03*
X001341Y010528D03*
D299*
X001904Y010577D03*
X002478Y010542D03*
D300*
X002478Y010556D03*
X002478Y010563D03*
X001897Y010591D03*
D301*
X002478Y010577D03*
D302*
X001890Y010605D03*
D303*
X001344Y010612D03*
D304*
X002478Y010612D03*
D305*
X002478Y010619D03*
D306*
X001862Y010640D03*
D307*
X001341Y010647D03*
D308*
X001344Y010661D03*
D309*
X001806Y010661D03*
D310*
X002478Y010661D03*
D311*
X002478Y010675D03*
D312*
X001701Y011074D03*
X001701Y011081D03*
X001701Y011088D03*
X001701Y011095D03*
X001701Y011109D03*
X001701Y011116D03*
X001701Y011123D03*
D313*
X001701Y011102D03*
D314*
X007780Y004811D02*
X007930Y004811D01*
X007855Y004811D02*
X007855Y004361D01*
X007780Y004361D02*
X007930Y004361D01*
X008087Y004436D02*
X008162Y004361D01*
X008312Y004361D01*
X008387Y004436D01*
X008547Y004361D02*
X008847Y004661D01*
X008847Y004736D01*
X008772Y004811D01*
X008622Y004811D01*
X008547Y004736D01*
X008387Y004736D02*
X008312Y004811D01*
X008162Y004811D01*
X008087Y004736D01*
X008087Y004436D01*
X008547Y004361D02*
X008847Y004361D01*
X007269Y008476D02*
X007272Y008592D01*
X007280Y008708D01*
X007295Y008823D01*
X007314Y008937D01*
X007340Y009050D01*
X007371Y009162D01*
X007407Y009272D01*
X007449Y009380D01*
X007496Y009486D01*
X007548Y009589D01*
X007605Y009690D01*
X007667Y009788D01*
X007734Y009883D01*
X007805Y009974D01*
X007881Y010062D01*
X007961Y010146D01*
X008045Y010226D01*
X008133Y010302D01*
X008224Y010373D01*
X008319Y010440D01*
X008417Y010502D01*
X008518Y010559D01*
X008621Y010611D01*
X008727Y010658D01*
X008835Y010700D01*
X008945Y010736D01*
X009057Y010767D01*
X009170Y010793D01*
X009284Y010812D01*
X009399Y010827D01*
X009515Y010835D01*
X009631Y010838D01*
X009747Y010835D01*
X009863Y010827D01*
X009978Y010812D01*
X010092Y010793D01*
X010205Y010767D01*
X010317Y010736D01*
X010427Y010700D01*
X010535Y010658D01*
X010641Y010611D01*
X010744Y010559D01*
X010845Y010502D01*
X010943Y010440D01*
X011038Y010373D01*
X011129Y010302D01*
X011217Y010226D01*
X011301Y010146D01*
X011381Y010062D01*
X011457Y009974D01*
X011528Y009883D01*
X011595Y009788D01*
X011657Y009690D01*
X011714Y009589D01*
X011766Y009486D01*
X011813Y009380D01*
X011855Y009272D01*
X011891Y009162D01*
X011922Y009050D01*
X011948Y008937D01*
X011967Y008823D01*
X011982Y008708D01*
X011990Y008592D01*
X011993Y008476D01*
X011990Y008360D01*
X011982Y008244D01*
X011967Y008129D01*
X011948Y008015D01*
X011922Y007902D01*
X011891Y007790D01*
X011855Y007680D01*
X011813Y007572D01*
X011766Y007466D01*
X011714Y007363D01*
X011657Y007262D01*
X011595Y007164D01*
X011528Y007069D01*
X011457Y006978D01*
X011381Y006890D01*
X011301Y006806D01*
X011217Y006726D01*
X011129Y006650D01*
X011038Y006579D01*
X010943Y006512D01*
X010845Y006450D01*
X010744Y006393D01*
X010641Y006341D01*
X010535Y006294D01*
X010427Y006252D01*
X010317Y006216D01*
X010205Y006185D01*
X010092Y006159D01*
X009978Y006140D01*
X009863Y006125D01*
X009747Y006117D01*
X009631Y006114D01*
X009515Y006117D01*
X009399Y006125D01*
X009284Y006140D01*
X009170Y006159D01*
X009057Y006185D01*
X008945Y006216D01*
X008835Y006252D01*
X008727Y006294D01*
X008621Y006341D01*
X008518Y006393D01*
X008417Y006450D01*
X008319Y006512D01*
X008224Y006579D01*
X008133Y006650D01*
X008045Y006726D01*
X007961Y006806D01*
X007881Y006890D01*
X007805Y006978D01*
X007734Y007069D01*
X007667Y007164D01*
X007605Y007262D01*
X007548Y007363D01*
X007496Y007466D01*
X007449Y007572D01*
X007407Y007680D01*
X007371Y007790D01*
X007340Y007902D01*
X007314Y008015D01*
X007295Y008129D01*
X007280Y008244D01*
X007272Y008360D01*
X007269Y008476D01*
D315*
X015419Y009756D02*
X015737Y009724D01*
X015771Y009617D01*
X015822Y009517D01*
X015620Y009270D01*
X015790Y009100D01*
X016037Y009302D01*
X016137Y009251D01*
X016278Y009592D01*
X016225Y009620D01*
X016179Y009658D01*
X016140Y009705D01*
X016112Y009758D01*
X016094Y009816D01*
X016088Y009876D01*
X016095Y009939D01*
X016114Y009999D01*
X016145Y010054D01*
X016187Y010101D01*
X016237Y010139D01*
X016294Y010166D01*
X016356Y010181D01*
X016419Y010183D01*
X016481Y010171D01*
X016540Y010148D01*
X016592Y010113D01*
X016636Y010068D01*
X016671Y010014D01*
X016693Y009955D01*
X016703Y009893D01*
X016700Y009830D01*
X016684Y009769D01*
X016656Y009712D01*
X016618Y009662D01*
X016569Y009622D01*
X016514Y009592D01*
X016655Y009251D01*
X016755Y009302D01*
X017002Y009100D01*
X017172Y009270D01*
X016970Y009517D01*
X017021Y009617D01*
X017055Y009724D01*
X017373Y009756D01*
X017373Y009996D01*
X017055Y010028D01*
X017021Y010135D01*
X016970Y010234D01*
X017172Y010482D01*
X017002Y010651D01*
X017002Y010651D01*
X016755Y010450D01*
X016655Y010501D01*
X016548Y010535D01*
X016516Y010853D01*
X016276Y010853D01*
X016244Y010535D01*
X016137Y010501D01*
X016037Y010450D01*
X015790Y010651D01*
X015790Y010651D01*
X015620Y010482D01*
X015822Y010234D01*
X015771Y010135D01*
X015737Y010028D01*
X015419Y009996D01*
X015419Y009756D01*
X015419Y009787D02*
X016103Y009787D01*
X016091Y009845D02*
X015419Y009845D01*
X015419Y009903D02*
X016091Y009903D01*
X016102Y009960D02*
X015419Y009960D01*
X015636Y010018D02*
X016125Y010018D01*
X016164Y010075D02*
X015752Y010075D01*
X015770Y010133D02*
X016229Y010133D01*
X016094Y010479D02*
X016699Y010479D01*
X016790Y010479D02*
X017169Y010479D01*
X017122Y010421D02*
X015670Y010421D01*
X015623Y010479D02*
X016002Y010479D01*
X015931Y010536D02*
X015675Y010536D01*
X015732Y010594D02*
X015861Y010594D01*
X015717Y010363D02*
X017075Y010363D01*
X017028Y010306D02*
X015764Y010306D01*
X015811Y010248D02*
X016981Y010248D01*
X016992Y010191D02*
X015800Y010191D01*
X015676Y009730D02*
X016127Y009730D01*
X016167Y009672D02*
X015753Y009672D01*
X015772Y009615D02*
X016235Y009615D01*
X016264Y009557D02*
X015802Y009557D01*
X015808Y009499D02*
X016240Y009499D01*
X016216Y009442D02*
X015761Y009442D01*
X015714Y009384D02*
X016192Y009384D01*
X016169Y009327D02*
X015667Y009327D01*
X015621Y009269D02*
X015997Y009269D01*
X015926Y009211D02*
X015679Y009211D01*
X015736Y009154D02*
X015856Y009154D01*
X016101Y009269D02*
X016145Y009269D01*
X016528Y009557D02*
X016990Y009557D01*
X016984Y009499D02*
X016552Y009499D01*
X016576Y009442D02*
X017031Y009442D01*
X017078Y009384D02*
X016600Y009384D01*
X016624Y009327D02*
X017125Y009327D01*
X017171Y009269D02*
X016795Y009269D01*
X016866Y009211D02*
X017113Y009211D01*
X017056Y009154D02*
X016936Y009154D01*
X016691Y009269D02*
X016647Y009269D01*
X016556Y009615D02*
X017020Y009615D01*
X017039Y009672D02*
X016625Y009672D01*
X016665Y009730D02*
X017116Y009730D01*
X017157Y010018D02*
X016669Y010018D01*
X016691Y009960D02*
X017373Y009960D01*
X017373Y009903D02*
X016702Y009903D01*
X016701Y009845D02*
X017373Y009845D01*
X017373Y009787D02*
X016689Y009787D01*
X016629Y010075D02*
X017040Y010075D01*
X017022Y010133D02*
X016562Y010133D01*
X016548Y010536D02*
X016244Y010536D01*
X016250Y010594D02*
X016542Y010594D01*
X016536Y010651D02*
X016256Y010651D01*
X016261Y010709D02*
X016531Y010709D01*
X016525Y010767D02*
X016267Y010767D01*
X016273Y010824D02*
X016519Y010824D01*
X016861Y010536D02*
X017117Y010536D01*
X017060Y010594D02*
X016931Y010594D01*
D316*
X009631Y008476D03*
M02*
